<svg width="54" height="46" viewBox="0 0 54 46" fill="none" xmlns="http://www.w3.org/2000/svg">
<path fill-rule="evenodd" clip-rule="evenodd" d="M41.375 32.375V41.125C41.375 42.2853 40.9141 43.3981 40.0936 44.2186C39.2731 45.0391 38.1603 45.5 37 45.5H17C15.8397 45.5 14.7269 45.0391 13.9064 44.2186C13.0859 43.3981 12.625 42.2853 12.625 41.125V32.375C12.625 29.2256 13.8761 26.2051 16.1031 23.9781C18.3301 21.7511 21.3506 20.5 24.5 20.5H29.5C32.6494 20.5 35.6699 21.7511 37.8969 23.9781C40.1239 26.2051 41.375 29.2256 41.375 32.375Z" fill="#F1F1F1"/>
<path d="M27 19.25C32.1777 19.25 36.375 15.0527 36.375 9.875C36.375 4.69733 32.1777 0.5 27 0.5C21.8223 0.5 17.625 4.69733 17.625 9.875C17.625 15.0527 21.8223 19.25 27 19.25Z" fill="#F1F1F1"/>
<path d="M45.75 19.25C49.2018 19.25 52 16.4518 52 13C52 9.54822 49.2018 6.75 45.75 6.75C42.2982 6.75 39.5 9.54822 39.5 13C39.5 16.4518 42.2982 19.25 45.75 19.25Z" fill="#C0C0C0"/>
<path d="M8.25 19.25C11.7018 19.25 14.5 16.4518 14.5 13C14.5 9.54822 11.7018 6.75 8.25 6.75C4.79822 6.75 2 9.54822 2 13C2 16.4518 4.79822 19.25 8.25 19.25Z" fill="#C0C0C0"/>
<path fill-rule="evenodd" clip-rule="evenodd" d="M10.1525 41.75H4.5C3.34 41.75 2.2275 41.29 1.4075 40.4675C1.00073 40.0618 0.678059 39.5798 0.457978 39.0491C0.237898 38.5184 0.124742 37.9495 0.125 37.375V27.375C0.125 25.5525 0.850001 23.8025 2.1375 22.5125C3.42806 21.2245 5.17668 20.5008 7 20.5H9.5C11.245 20.5 12.9225 21.165 14.195 22.3525C11.5856 25.0363 10.1255 28.6318 10.125 32.375V41.125C10.125 41.335 10.135 41.545 10.1525 41.75ZM39.805 22.3525C41.0791 21.1629 42.7569 20.5009 44.5 20.5H47C48.8225 20.5 50.5725 21.225 51.8625 22.5125C53.15 23.8025 53.875 25.5525 53.875 27.375V37.375C53.875 38.535 53.415 39.6475 52.5925 40.4675C52.1868 40.8743 51.7048 41.1969 51.1741 41.417C50.6434 41.6371 50.0745 41.7503 49.5 41.75H43.8475C43.865 41.545 43.875 41.335 43.875 41.125V32.375C43.8745 28.6318 42.4144 25.0363 39.805 22.3525Z" fill="#C0C0C0"/>
</svg>
