<svg width="40" height="40" viewBox="0 0 40 40" fill="none" xmlns="http://www.w3.org/2000/svg">
<path fill-rule="evenodd" clip-rule="evenodd" d="M30.6479 26.9447V33.4262C30.6479 34.2857 30.3065 35.11 29.6987 35.7178C29.0909 36.3255 28.2666 36.667 27.4071 36.667H12.5923C11.7328 36.667 10.9085 36.3255 10.3007 35.7178C9.69297 35.11 9.35156 34.2857 9.35156 33.4262V26.9447C9.35156 24.6118 10.2783 22.3744 11.9279 20.7248C13.5776 19.0752 15.815 18.1484 18.1479 18.1484H21.8516C24.1845 18.1484 26.4219 19.0752 28.0715 20.7248C29.7211 22.3744 30.6479 24.6118 30.6479 26.9447Z" fill="#2A2A2A"/>
<path d="M20.0001 17.2229C23.8354 17.2229 26.9446 14.1138 26.9446 10.2784C26.9446 6.44312 23.8354 3.33398 20.0001 3.33398C16.1648 3.33398 13.0557 6.44312 13.0557 10.2784C13.0557 14.1138 16.1648 17.2229 20.0001 17.2229Z" fill="#2A2A2A"/>
<path d="M33.8884 17.2221C36.4453 17.2221 38.518 15.1494 38.518 12.5925C38.518 10.0356 36.4453 7.96289 33.8884 7.96289C31.3315 7.96289 29.2588 10.0356 29.2588 12.5925C29.2588 15.1494 31.3315 17.2221 33.8884 17.2221Z" fill="#151515"/>
<path d="M6.11107 17.2221C8.66796 17.2221 10.7407 15.1494 10.7407 12.5925C10.7407 10.0356 8.66796 7.96289 6.11107 7.96289C3.5542 7.96289 1.48145 10.0356 1.48145 12.5925C1.48145 15.1494 3.5542 17.2221 6.11107 17.2221Z" fill="#151515"/>
<path fill-rule="evenodd" clip-rule="evenodd" d="M7.52055 33.8892H3.33351C2.47426 33.8892 1.65018 33.5484 1.04277 32.9392C0.741463 32.6387 0.502447 32.2816 0.339424 31.8885C0.176402 31.4954 0.0925827 31.074 0.0927738 30.6484V23.241C0.0927738 21.891 0.629812 20.5947 1.58351 19.6392C2.53949 18.6851 3.83476 18.149 5.18537 18.1484H7.03722C8.32981 18.1484 9.5724 18.641 10.515 19.5207C8.58211 21.5087 7.50055 24.172 7.50018 26.9447V33.4262C7.50018 33.5818 7.50759 33.7373 7.52055 33.8892ZM29.4854 19.5207C30.4291 18.6395 31.672 18.1491 32.9631 18.1484H34.815C36.165 18.1484 37.4613 18.6855 38.4168 19.6392C39.3706 20.5947 39.9076 21.891 39.9076 23.241V30.6484C39.9076 31.5077 39.5668 32.3318 38.9576 32.9392C38.6571 33.2405 38.3 33.4795 37.9069 33.6425C37.5138 33.8055 37.0924 33.8894 36.6668 33.8892H32.4798C32.4928 33.7373 32.5002 33.5818 32.5002 33.4262V26.9447C32.4998 24.172 31.4183 21.5087 29.4854 19.5207Z" fill="#151515"/>
</svg>
