<svg width="22" height="22" viewBox="0 0 22 22" fill="none" xmlns="http://www.w3.org/2000/svg">
<path d="M11 1.83301C5.94004 1.83301 1.83337 5.93967 1.83337 10.9997C1.83337 16.0597 5.94004 20.1663 11 20.1663C16.06 20.1663 20.1667 16.0597 20.1667 10.9997C20.1667 5.93967 16.06 1.83301 11 1.83301ZM14.6942 11.4855L11.9442 14.2355C11.8067 14.373 11.6325 14.4372 11.4584 14.4372C11.2842 14.4372 11.11 14.373 10.9725 14.2355C10.7067 13.9697 10.7067 13.5297 10.9725 13.2638L12.5492 11.6872H7.79171C7.41587 11.6872 7.10421 11.3755 7.10421 10.9997C7.10421 10.6238 7.41587 10.3122 7.79171 10.3122H12.5492L10.9725 8.73551C10.7067 8.46967 10.7067 8.02967 10.9725 7.76384C11.2384 7.49801 11.6784 7.49801 11.9442 7.76384L14.6942 10.5138C14.96 10.7797 14.96 11.2197 14.6942 11.4855Z" fill="#050610"/>
</svg>
