<svg width="22" height="22" viewBox="0 0 22 22" fill="none" xmlns="http://www.w3.org/2000/svg">
<path d="M11 1.8335C5.93998 1.8335 1.83331 5.94016 1.83331 11.0002C1.83331 16.0602 5.93998 20.1668 11 20.1668C16.06 20.1668 20.1666 16.0602 20.1666 11.0002C20.1666 5.94016 16.06 1.8335 11 1.8335ZM14.6941 11.486L11.9441 14.236C11.8066 14.3735 11.6325 14.4377 11.4583 14.4377C11.2841 14.4377 11.11 14.3735 10.9725 14.236C10.7066 13.9702 10.7066 13.5302 10.9725 13.2643L12.5491 11.6877H7.79165C7.41581 11.6877 7.10415 11.376 7.10415 11.0002C7.10415 10.6243 7.41581 10.3127 7.79165 10.3127H12.5491L10.9725 8.736C10.7066 8.47016 10.7066 8.03016 10.9725 7.76433C11.2383 7.4985 11.6783 7.4985 11.9441 7.76433L14.6941 10.5143C14.96 10.7802 14.96 11.2202 14.6941 11.486Z" fill="#E7EEFF"/>
</svg>
