<svg width="40" height="40" viewBox="0 0 40 40" fill="none" xmlns="http://www.w3.org/2000/svg">
<path d="M40 8.91994V21.0284C40 21.0284 37.4085 21.5389 36.8746 21.6061C36.3425 21.6731 34.6701 22.2131 33.458 21.0481C31.5888 19.2566 24.9477 12.6521 24.9477 12.6521C24.9477 12.6521 23.8027 11.5285 21.9641 12.4996C20.2763 13.3891 17.7745 14.6928 16.7295 15.2005C14.7541 16.2519 13.1168 14.5837 13.1168 13.313C13.1168 12.3273 13.7319 11.6583 14.6111 11.1663C16.9939 9.72184 22.0161 6.90283 24.1078 5.79142C25.3793 5.11518 26.2953 5.05723 28.0409 6.52779C30.1908 8.33586 32.1041 9.98397 32.1041 9.98397C32.1041 9.98397 32.7281 10.5048 33.7233 10.295C36.1671 9.77833 40 8.91994 40 8.91994ZM13.5666 29.4365C13.8883 28.6102 13.7807 27.686 13.1641 27.052C12.6101 26.4848 11.8012 26.3354 11.0299 26.5121C11.2456 25.7471 11.1265 24.9328 10.5694 24.3582C10.0137 23.7926 9.20627 23.6401 8.43507 23.8184C8.6492 23.0546 8.5304 22.2404 7.973 21.6675C7.10027 20.7723 5.59063 20.8107 4.59891 21.756C3.61243 22.7026 2.9805 24.4176 3.86093 25.4271C4.7399 26.4315 5.74987 25.8204 6.51981 25.6449C6.30561 26.4088 5.66383 27.1194 6.45419 28.1192C7.2438 29.1196 8.34307 28.5127 9.1138 28.3389C8.89887 29.0999 8.28513 29.8817 9.04513 30.8088C9.812 31.7387 11.068 31.2432 11.8976 30.9855C11.5775 31.8086 10.8922 32.696 11.7726 33.6902C12.6517 34.6917 14.6831 34.2284 15.6754 33.2817C16.6651 32.3351 16.76 30.8348 15.8896 29.9368C15.2887 29.3207 14.3928 29.1773 13.5666 29.4365ZM31.6727 23.137C24.4995 15.9637 27.8734 19.3391 24.0131 15.4705C24.0131 15.4705 22.853 14.3155 21.3239 14.9864C20.2505 15.4568 18.8686 16.0979 17.8287 16.5873C16.6861 17.1864 15.8638 17.3719 15.4777 17.3693C13.2687 17.3549 11.4766 15.5794 11.4766 13.3726C11.4766 11.941 12.2366 10.6947 13.3701 9.9872C14.9641 8.88418 18.633 6.9327 18.633 6.9327C18.633 6.9327 17.5153 5.51637 15.0668 5.51637C12.6191 5.51637 7.505 8.86667 7.505 8.86667C7.505 8.86667 6.05421 9.79592 3.9861 8.95892L0 7.57084V21.4263C0 21.4263 1.13821 21.7558 2.16092 22.1735C2.3919 21.5148 2.76461 20.9065 3.28161 20.4041C4.97831 18.7881 7.7906 18.7713 9.33427 20.3607C9.79933 20.8439 10.1239 21.4203 10.2895 22.0575C10.9115 22.2495 11.4749 22.5897 11.9277 23.0561C12.3877 23.5284 12.7173 24.1119 12.8843 24.7497C13.5056 24.9419 14.0682 25.2832 14.5225 25.75C15.0341 26.2776 15.3749 26.9149 15.5341 27.6053C16.1825 27.7939 16.7711 28.1468 17.2431 28.6297C18.1709 29.5826 18.5001 30.8754 18.3007 32.1225C18.3023 32.1225 18.3053 32.1225 18.3068 32.1254C18.3219 32.1452 18.8815 32.769 19.2305 33.121C19.9145 33.8055 21.0312 33.8055 21.7172 33.121C22.3987 32.4366 22.4017 31.3221 21.7172 30.6343C21.6927 30.6098 19.2498 28.0546 19.4464 27.8565C19.6416 27.6598 22.7539 30.8982 22.8118 30.9574C23.4949 31.6406 24.6109 31.6406 25.2969 30.9574C25.9814 30.2731 25.9799 29.1586 25.2969 28.4724C25.2633 28.4404 25.1233 28.3063 25.0713 28.2528C25.0713 28.2528 21.9855 25.5039 22.2204 25.2691C22.4581 25.0328 26.2911 28.6097 26.2973 28.6097C26.9863 29.2302 28.0476 29.2256 28.7104 28.5624C29.3553 27.9176 29.3691 26.8975 28.7974 26.2101C28.7853 26.1736 25.8763 23.1335 26.1033 22.9048C26.3337 22.673 29.2121 25.6369 29.2181 25.643C29.8997 26.3261 31.0172 26.3261 31.7033 25.643C32.3863 24.96 32.3863 23.844 31.7033 23.1549C31.694 23.149 31.6818 23.1429 31.6727 23.137Z" fill="#2A2A2A"/>
<path d="M39.9997 8.91994V21.0284C39.9997 21.0284 37.4081 21.5389 36.8743 21.6061C36.3421 21.6731 34.6697 22.2131 33.4577 21.0481C31.5885 19.2566 24.9474 12.6521 24.9474 12.6521C24.9474 12.6521 23.8023 11.5285 21.9637 12.4996C20.276 13.3891 17.7742 14.6928 16.7292 15.2005C14.7537 16.2519 13.1164 14.5837 13.1164 13.313C13.1164 12.3273 13.7315 11.6583 14.6107 11.1663C16.9935 9.72184 22.0157 6.90283 24.1075 5.79142C25.3789 5.11518 26.295 5.05723 28.0406 6.52779C30.1905 8.33586 32.1037 9.98397 32.1037 9.98397C32.1037 9.98397 32.7277 10.5048 33.7229 10.295C36.1667 9.77833 39.9997 8.91994 39.9997 8.91994ZM13.5663 29.4365C13.8879 28.6102 13.7804 27.686 13.1638 27.052C12.6097 26.4848 11.8008 26.3354 11.0295 26.5121C11.2453 25.7471 11.1261 24.9328 10.5691 24.3582C10.0133 23.7926 9.20594 23.6401 8.43474 23.8184C8.64888 23.0546 8.53008 22.2404 7.97268 21.6675C7.09994 20.7723 5.5903 20.8107 4.59858 21.756C3.6121 22.7026 2.98017 24.4176 3.8606 25.4271C4.73958 26.4315 5.74954 25.8204 6.51948 25.6449C6.30528 26.4088 5.6635 27.1194 6.45386 28.1192C7.24348 29.1196 8.34274 28.5127 9.11348 28.3389C8.89854 29.0999 8.28474 29.8817 9.04481 30.8088C9.81168 31.7387 11.0677 31.2432 11.8973 30.9855C11.5771 31.8086 10.8919 32.696 11.7723 33.6902C12.6513 34.6917 14.6828 34.2284 15.6751 33.2817C16.6647 32.3351 16.7597 30.8348 15.8893 29.9368C15.2883 29.3207 14.3925 29.1773 13.5663 29.4365Z" fill="#151515"/>
</svg>
