<svg width="60" height="44" viewBox="0 0 60 44" fill="none" xmlns="http://www.w3.org/2000/svg">
<path d="M60 5.37893V23.5416C60 23.5416 56.1128 24.3074 55.3119 24.4081C54.5137 24.5086 52.0051 25.3186 50.187 23.5711C47.3832 20.8839 37.4216 10.9772 37.4216 10.9772C37.4216 10.9772 35.704 9.29183 32.9461 10.7484C30.4145 12.0827 26.6618 14.0382 25.0943 14.7997C22.1311 16.3769 19.6752 13.8746 19.6752 11.9685C19.6752 10.49 20.5978 9.48649 21.9166 8.74851C25.4908 6.58178 33.0241 2.35327 36.1617 0.686156C38.0689 -0.328206 39.443 -0.415127 42.0614 1.79071C45.2862 4.50281 48.1561 6.97498 48.1561 6.97498C48.1561 6.97498 49.0921 7.75618 50.5849 7.44155C54.2506 6.66652 60 5.37893 60 5.37893ZM20.3499 36.1537C20.8324 34.9143 20.6711 33.528 19.7462 32.577C18.9151 31.7263 17.7018 31.5021 16.5448 31.7672C16.8684 30.6197 16.6897 29.3983 15.8541 28.5364C15.0205 27.6879 13.8094 27.4592 12.6526 27.7267C12.9738 26.5809 12.7956 25.3596 11.9595 24.5002C10.6504 23.1574 8.38595 23.2151 6.89836 24.633C5.41865 26.0529 4.47075 28.6255 5.79139 30.1397C7.10985 31.6463 8.6248 30.7296 9.77971 30.4664C9.45842 31.6123 8.49575 32.6781 9.68129 34.1779C10.8657 35.6784 12.5146 34.7681 13.6707 34.5073C13.3483 35.6488 12.4277 36.8216 13.5677 38.2122C14.718 39.6071 16.602 38.8639 17.8464 38.4773C17.3662 39.712 16.3383 41.043 17.6589 42.5344C18.9775 44.0366 22.0247 43.3416 23.5131 41.9215C24.9976 40.5016 25.14 38.2512 23.8344 36.9042C22.933 35.98 21.5892 35.765 20.3499 36.1537ZM47.509 26.7045C36.7492 15.9446 41.8101 21.0076 36.0197 15.2048C36.0197 15.2048 34.2795 13.4723 31.9859 14.4786C30.3758 15.1842 28.3029 16.1458 26.7431 16.8799C25.0292 17.7786 23.7957 18.0568 23.2165 18.0529C19.9031 18.0313 17.2149 15.3681 17.2149 12.0579C17.2149 9.91056 18.3549 8.04104 20.0552 6.97982C22.4461 5.3253 27.9495 2.39807 27.9495 2.39807C27.9495 2.39807 26.2729 0.273584 22.6002 0.273584C18.9286 0.273584 11.2575 5.29903 11.2575 5.29903C11.2575 5.29903 9.08132 6.69291 5.97915 5.4374L0 3.35529V24.1385C0 24.1385 1.70731 24.6327 3.24138 25.2593C3.58785 24.2712 4.14691 23.3588 4.92242 22.6052C7.46746 20.1811 11.6859 20.1559 14.0014 22.5401C14.699 23.2649 15.1858 24.1295 15.4342 25.0853C16.3672 25.3733 17.2123 25.8835 17.8915 26.5832C18.5815 27.2916 19.0759 28.1669 19.3265 29.1235C20.2584 29.4118 21.1023 29.9238 21.7838 30.6241C22.5512 31.4154 23.0624 32.3713 23.3011 33.407C24.2737 33.6899 25.1567 34.2192 25.8647 34.9436C27.2563 36.3729 27.7502 38.3122 27.451 40.1828C27.4534 40.1828 27.458 40.1828 27.4602 40.1871C27.4829 40.2168 28.3223 41.1526 28.8458 41.6805C29.8717 42.7073 31.5468 42.7073 32.5758 41.6805C33.598 40.654 33.6025 38.9822 32.5758 37.9505C32.539 37.9138 28.8747 34.081 29.1696 33.7838C29.4624 33.4887 34.1308 38.3463 34.2177 38.4352C35.2423 39.46 36.9163 39.46 37.9454 38.4352C38.9721 37.4087 38.9699 35.7369 37.9454 34.7076C37.895 34.6597 37.6849 34.4584 37.6069 34.3782C37.6069 34.3782 32.9783 30.2549 33.3306 29.9027C33.6872 29.5482 39.4366 34.9136 39.4459 34.9136C40.4794 35.8443 42.0714 35.8374 43.0656 34.8426C44.033 33.8754 44.0537 32.3453 43.1961 31.3142C43.178 31.2594 38.8145 26.6993 39.155 26.3562C39.5005 26.0086 43.8181 30.4544 43.8272 30.4636C44.8495 31.4882 46.5258 31.4882 47.5549 30.4636C48.5794 29.439 48.5794 27.7651 47.5549 26.7314C47.541 26.7226 47.5227 26.7134 47.509 26.7045Z" fill="#F1F1F1"/>
<path d="M60 5.37893V23.5416C60 23.5416 56.1127 24.3074 55.3119 24.4081C54.5137 24.5086 52.0051 25.3186 50.187 23.5711C47.3832 20.8839 37.4216 10.9772 37.4216 10.9772C37.4216 10.9772 35.704 9.29183 32.9461 10.7484C30.4145 12.0827 26.6618 14.0382 25.0943 14.7997C22.1311 16.3769 19.6751 13.8746 19.6751 11.9685C19.6751 10.49 20.5977 9.48649 21.9166 8.74851C25.4907 6.58178 33.0241 2.35327 36.1617 0.686156C38.0689 -0.328206 39.443 -0.415127 42.0614 1.79071C45.2862 4.50281 48.1561 6.97498 48.1561 6.97498C48.1561 6.97498 49.0921 7.75618 50.5849 7.44155C54.2506 6.66652 60 5.37893 60 5.37893ZM20.3499 36.1537C20.8324 34.9143 20.6711 33.528 19.7462 32.577C18.9151 31.7263 17.7017 31.5021 16.5448 31.7672C16.8684 30.6197 16.6897 29.3983 15.8541 28.5364C15.0205 27.6879 13.8094 27.4592 12.6526 27.7267C12.9738 26.5809 12.7956 25.3596 11.9595 24.5002C10.6504 23.1574 8.38594 23.2151 6.89836 24.633C5.41864 26.0529 4.47074 28.6255 5.79138 30.1397C7.10985 31.6463 8.62479 30.7296 9.7797 30.4664C9.45841 31.6123 8.49574 32.6781 9.68128 34.1779C10.8657 35.6784 12.5146 34.7681 13.6707 34.5073C13.3483 35.6488 12.4276 36.8216 13.5677 38.2122C14.718 39.6071 16.602 38.8639 17.8464 38.4773C17.3662 39.712 16.3383 41.043 17.6589 42.5344C18.9775 44.0366 22.0247 43.3416 23.5131 41.9215C24.9976 40.5016 25.14 38.2512 23.8344 36.9042C22.933 35.98 21.5892 35.765 20.3499 36.1537Z" fill="#C0C0C0"/>
</svg>
