<svg width="110" height="110" viewBox="0 0 110 110" fill="none" xmlns="http://www.w3.org/2000/svg">
<rect width="110" height="110" rx="55" fill="#F1F1F1"/>
<path d="M56.6953 31.9531C56.3845 31.9531 56.0864 32.0766 55.8667 32.2964C55.6469 32.5161 55.5234 32.8142 55.5234 33.125C55.5234 33.4358 55.6469 33.7339 55.8667 33.9536C56.0864 34.1734 56.3845 34.2969 56.6953 34.2969C61.7346 34.3031 66.5657 36.3077 70.129 39.871C73.6923 43.4343 75.6969 48.2654 75.7031 53.3047C75.7031 53.6155 75.8266 53.9136 76.0464 54.1333C76.2661 54.3531 76.5642 54.4766 76.875 54.4766C77.1858 54.4766 77.4839 54.3531 77.7036 54.1333C77.9234 53.9136 78.0469 53.6155 78.0469 53.3047C78.0407 47.6438 75.7891 42.2166 71.7863 38.2137C67.7834 34.2109 62.3562 31.9593 56.6953 31.9531Z" fill="#050610"/>
<path d="M56.6953 37.4922C56.3845 37.4922 56.0864 37.6157 55.8667 37.8354C55.6469 38.0552 55.5234 38.3533 55.5234 38.6641C55.5234 38.9749 55.6469 39.2729 55.8667 39.4927C56.0864 39.7125 56.3845 39.8359 56.6953 39.8359C60.2655 39.8421 63.6878 41.2631 66.2123 43.7877C68.7369 46.3122 70.1579 49.7345 70.1641 53.3047C70.1641 53.6155 70.2875 53.9136 70.5073 54.1333C70.7271 54.3531 71.0251 54.4766 71.3359 54.4766C71.6467 54.4766 71.9448 54.3531 72.1646 54.1333C72.3843 53.9136 72.5078 53.6155 72.5078 53.3047C72.5037 49.1122 70.8364 45.0927 67.8719 42.1281C64.9073 39.1636 60.8878 37.4963 56.6953 37.4922Z" fill="#050610"/>
<path d="M56.6953 43.0312C56.3845 43.0312 56.0864 43.1547 55.8667 43.3745C55.6469 43.5943 55.5234 43.8923 55.5234 44.2031C55.5234 44.5139 55.6469 44.812 55.8667 45.0318C56.0864 45.2515 56.3845 45.375 56.6953 45.375C58.7971 45.3791 60.8117 46.2159 62.2979 47.7021C63.7841 49.1883 64.6209 51.2029 64.625 53.3047C64.625 53.6155 64.7485 53.9136 64.9682 54.1333C65.188 54.3531 65.4861 54.4766 65.7969 54.4766C66.1077 54.4766 66.4057 54.3531 66.6255 54.1333C66.8453 53.9136 66.9688 53.6155 66.9688 53.3047C66.9646 50.5813 65.8809 47.9706 63.9552 46.0448C62.0294 44.1191 59.4187 43.0354 56.6953 43.0312Z" fill="#050610"/>
<path d="M65.4686 78.0626C64.5954 78.0597 63.7263 77.9442 62.8827 77.7189C55.5425 75.7574 48.8489 71.8959 43.4765 66.5235C38.1041 61.1511 34.2426 54.4575 32.2811 47.1173C31.8938 45.6658 31.8388 44.1457 32.1202 42.67C32.4015 41.1943 33.012 39.8011 33.9061 38.5939C34.8144 37.3638 35.9887 36.3546 37.3415 35.6417C38.6942 34.9288 40.1905 34.5306 41.7186 34.4767L45.3827 34.3517C46.0694 34.3287 46.7417 34.5525 47.2777 34.9824C47.8137 35.4124 48.178 36.0201 48.3046 36.6955L49.7421 43.9064C49.8866 44.6594 49.7268 45.439 49.2978 46.0745C48.8688 46.71 48.2054 47.1496 47.453 47.297L42.8671 48.1642C44.5749 52.4539 47.1453 56.3473 50.4188 59.6034C53.6924 62.8595 57.5995 65.409 61.8983 67.0939L62.7655 62.508C62.8366 62.1344 62.9809 61.7786 63.1901 61.4611C63.3993 61.1435 63.6692 60.8705 63.9844 60.6578C64.2996 60.445 64.6537 60.2967 65.0264 60.2214C65.3991 60.146 65.7831 60.1452 66.1561 60.2189L73.3671 61.6564C74.0432 61.7815 74.6518 62.1454 75.082 62.6817C75.5122 63.218 75.7354 63.8911 75.7108 64.5783L75.5624 68.2814C75.5085 69.8095 75.1102 71.3058 74.3973 72.6586C73.6844 74.0113 72.6753 75.1856 71.4452 76.0939C69.716 77.3747 67.6205 78.0649 65.4686 78.0626ZM45.5233 36.6564L41.8671 36.7814C40.6881 36.8193 39.533 37.1236 38.4885 37.6716C37.4439 38.2196 36.537 38.997 35.8358 39.9455C35.1424 40.8725 34.6683 41.9446 34.4491 43.0813C34.2299 44.218 34.2713 45.3896 34.5702 46.508C36.4202 53.4497 40.0681 59.7808 45.1459 64.8627C50.2237 69.9446 56.5518 73.5976 63.4921 75.4533C64.6091 75.7527 65.7796 75.7943 66.9151 75.575C68.0506 75.3558 69.1214 74.8814 70.0467 74.1876C70.9967 73.4872 71.7756 72.5807 72.3249 71.5361C72.8743 70.4915 73.1798 69.336 73.2186 68.1564L73.3436 64.5001C73.3481 64.3729 73.3074 64.2482 73.2288 64.1481C73.1501 64.048 73.0386 63.979 72.9139 63.9533L65.703 62.5236C65.6335 62.5088 65.5617 62.5081 65.492 62.5215C65.4222 62.5349 65.3558 62.5622 65.2967 62.6017C65.2377 62.6407 65.1872 62.6913 65.1482 62.7504C65.1093 62.8095 65.0827 62.8758 65.0702 62.9455L63.9374 68.8908C63.8943 69.1175 63.7856 69.3267 63.6249 69.4923C63.457 69.6618 63.2417 69.7764 63.0074 69.8211C62.7731 69.8657 62.5308 69.8382 62.3124 69.7423C57.2229 67.9527 52.5995 65.0445 48.7827 61.2317C44.9659 57.4189 42.0527 52.7987 40.2577 47.7111C40.1585 47.4969 40.1263 47.2577 40.1653 47.0249C40.2044 46.7921 40.3128 46.5765 40.4764 46.4064C40.605 46.2675 40.7661 46.1628 40.9452 46.1017L41.1249 46.0548L47.0546 44.9298C47.1242 44.9173 47.1906 44.8907 47.2496 44.8518C47.3087 44.8128 47.3593 44.7623 47.3983 44.7033C47.4378 44.6442 47.4651 44.5778 47.4785 44.5081C47.492 44.4383 47.4912 44.3665 47.4764 44.297L46.0467 37.0861C46.0231 36.9647 45.9579 36.8555 45.8624 36.777C45.7668 36.6986 45.6469 36.6559 45.5233 36.6564Z" fill="#050610"/>
</svg>
