<svg width="70" height="70" viewBox="0 0 70 70" fill="none" xmlns="http://www.w3.org/2000/svg">
<path d="M27.4417 31.4031H23.3581L22.0513 26.573H26.7882L27.4417 31.4031ZM23.9648 33.7366L25.2715 38.5669H28.3983L27.745 33.7366H23.9648ZM29.7985 31.4031H34.0686V26.573H29.145L29.7985 31.4031ZM30.7551 38.5669H34.0686V33.7366H30.1018L30.7551 38.5669ZM36.4021 38.5669H39.7391L40.3924 33.7366H36.4021V38.5669ZM36.4021 31.4031H40.6957L41.349 26.573H36.4021L36.4021 31.4031ZM42.0958 38.5669H43.4492C44.4993 38.5669 45.4326 37.8669 45.7128 36.8402L46.5294 33.7366H42.7259L42.0958 38.5669ZM47.9295 26.573H43.7059L43.0526 31.4031H47.1595L48.3029 27.0629C48.3495 26.8995 48.2795 26.7829 48.2328 26.713C48.1862 26.6662 48.0928 26.573 47.9295 26.573ZM31.3852 49.1376C31.3852 49.6275 30.4985 49.6275 30.4985 49.1376C30.4985 48.9042 30.7084 48.6942 30.9419 48.6942C31.1751 48.6942 31.3852 48.9042 31.3852 49.1376ZM41.7924 49.1376C41.7924 49.6275 40.929 49.6275 40.929 49.1376C40.929 48.9042 41.1158 48.6942 41.3724 48.6942C41.6058 48.6942 41.7924 48.9042 41.7924 49.1376ZM41.7924 49.1376C41.7924 49.6275 40.929 49.6275 40.929 49.1376C40.929 48.9042 41.1158 48.6942 41.3724 48.6942C41.6058 48.6942 41.7924 48.9042 41.7924 49.1376ZM31.3852 49.1376C31.3852 49.6275 30.4985 49.6275 30.4985 49.1376C30.4985 48.9042 30.7084 48.6942 30.9419 48.6942C31.1751 48.6942 31.3852 48.9042 31.3852 49.1376ZM31.3852 49.1376C31.3852 49.6275 30.4985 49.6275 30.4985 49.1376C30.4985 48.9042 30.7084 48.6942 30.9419 48.6942C31.1751 48.6942 31.3852 48.9042 31.3852 49.1376ZM41.7924 49.1376C41.7924 49.6275 40.929 49.6275 40.929 49.1376C40.929 48.9042 41.1158 48.6942 41.3724 48.6942C41.6058 48.6942 41.7924 48.9042 41.7924 49.1376ZM41.7924 49.1376C41.7924 49.6275 40.929 49.6275 40.929 49.1376C40.929 48.9042 41.1158 48.6942 41.3724 48.6942C41.6058 48.6942 41.7924 48.9042 41.7924 49.1376ZM31.3852 49.1376C31.3852 49.6275 30.4985 49.6275 30.4985 49.1376C30.4985 48.9042 30.7084 48.6942 30.9419 48.6942C31.1751 48.6942 31.3852 48.9042 31.3852 49.1376ZM31.3852 49.1376C31.3852 49.6275 30.4985 49.6275 30.4985 49.1376C30.4985 48.9042 30.7084 48.6942 30.9419 48.6942C31.1751 48.6942 31.3852 48.9042 31.3852 49.1376ZM41.7924 49.1376C41.7924 49.6275 40.929 49.6275 40.929 49.1376C40.929 48.9042 41.1158 48.6942 41.3724 48.6942C41.6058 48.6942 41.7924 48.9042 41.7924 49.1376ZM41.7924 49.1376C41.7924 49.6275 40.929 49.6275 40.929 49.1376C40.929 48.9042 41.1158 48.6942 41.3724 48.6942C41.6058 48.6942 41.7924 48.9042 41.7924 49.1376ZM31.3852 49.1376C31.3852 49.6275 30.4985 49.6275 30.4985 49.1376C30.4985 48.9042 30.7084 48.6942 30.9419 48.6942C31.1751 48.6942 31.3852 48.9042 31.3852 49.1376ZM31.3852 49.1376C31.3852 49.6275 30.4985 49.6275 30.4985 49.1376C30.4985 48.9042 30.7084 48.6942 30.9419 48.6942C31.1751 48.6942 31.3852 48.9042 31.3852 49.1376ZM41.7924 49.1376C41.7924 49.6275 40.929 49.6275 40.929 49.1376C40.929 48.9042 41.1158 48.6942 41.3724 48.6942C41.6058 48.6942 41.7924 48.9042 41.7924 49.1376ZM41.7924 49.1376C41.7924 49.6275 40.929 49.6275 40.929 49.1376C40.929 48.9042 41.1158 48.6942 41.3724 48.6942C41.6058 48.6942 41.7924 48.9042 41.7924 49.1376ZM31.3852 49.1376C31.3852 49.6275 30.4985 49.6275 30.4985 49.1376C30.4985 48.9042 30.7084 48.6942 30.9419 48.6942C31.1751 48.6942 31.3852 48.9042 31.3852 49.1376ZM65.5938 12.0821V51.0277L58.8734 45.3574C58.2201 44.8206 57.4033 44.5172 56.5867 44.5172C54.6033 44.5172 53.0164 46.1273 53.0164 48.0875V58.4948H5.20359C2.33347 58.4948 0 56.1614 0 53.2911V12.0821H65.5938ZM33.7187 49.1376C33.7187 47.6208 32.4819 46.3608 30.9419 46.3608C29.4017 46.3608 28.165 47.6208 28.165 49.1376C28.165 50.6776 29.4017 51.9144 30.9419 51.9144C32.4819 51.9144 33.7187 50.6776 33.7187 49.1376ZM44.1259 49.1376C44.1259 47.6208 42.8892 46.3608 41.3724 46.3608C39.8324 46.3608 38.5956 47.6208 38.5956 49.1376C38.5956 50.6776 39.8324 51.9144 41.3724 51.9144C42.8892 51.9144 44.1259 50.6776 44.1259 49.1376ZM50.0996 25.3128C49.5629 24.6361 48.7928 24.2395 47.9295 24.2395H21.4213L20.7446 21.6492C20.3945 20.3425 19.2044 19.4324 17.8278 19.4324H16.101C15.4476 19.4324 14.9343 19.9458 14.9343 20.5991C14.9343 21.2526 15.4476 21.7659 16.101 21.7659H17.8278C18.1311 21.7659 18.4111 21.976 18.481 22.256L24.0581 43.0938C24.4547 44.634 25.8549 45.6839 27.4416 45.6839H46.1328C46.7861 45.6839 47.2995 45.1707 47.2995 44.5172C47.2995 43.8873 46.7861 43.3505 46.1328 43.3505H27.4417C26.905 43.3505 26.4383 43.0005 26.2983 42.4871L25.8783 40.9004H43.4492C45.5494 40.9004 47.4162 39.477 47.9528 37.4469L50.5663 27.6463C50.7764 26.8296 50.613 25.9662 50.0996 25.3128ZM41.7924 49.1376C41.7924 49.6275 40.929 49.6275 40.929 49.1376C40.929 48.9042 41.1158 48.6942 41.3724 48.6942C41.6058 48.6942 41.7924 48.9042 41.7924 49.1376ZM31.3852 49.1376C31.3852 49.6275 30.4985 49.6275 30.4985 49.1376C30.4985 48.9042 30.7084 48.6942 30.9419 48.6942C31.1751 48.6942 31.3852 48.9042 31.3852 49.1376ZM31.3852 49.1376C31.3852 49.6275 30.4985 49.6275 30.4985 49.1376C30.4985 48.9042 30.7084 48.6942 30.9419 48.6942C31.1751 48.6942 31.3852 48.9042 31.3852 49.1376ZM41.7924 49.1376C41.7924 49.6275 40.929 49.6275 40.929 49.1376C40.929 48.9042 41.1158 48.6942 41.3724 48.6942C41.6058 48.6942 41.7924 48.9042 41.7924 49.1376ZM41.7924 49.1376C41.7924 49.6275 40.929 49.6275 40.929 49.1376C40.929 48.9042 41.1158 48.6942 41.3724 48.6942C41.6058 48.6942 41.7924 48.9042 41.7924 49.1376ZM31.3852 49.1376C31.3852 49.6275 30.4985 49.6275 30.4985 49.1376C30.4985 48.9042 30.7084 48.6942 30.9419 48.6942C31.1751 48.6942 31.3852 48.9042 31.3852 49.1376ZM31.3852 49.1376C31.3852 49.6275 30.4985 49.6275 30.4985 49.1376C30.4985 48.9042 30.7084 48.6942 30.9419 48.6942C31.1751 48.6942 31.3852 48.9042 31.3852 49.1376ZM41.7924 49.1376C41.7924 49.6275 40.929 49.6275 40.929 49.1376C40.929 48.9042 41.1158 48.6942 41.3724 48.6942C41.6058 48.6942 41.7924 48.9042 41.7924 49.1376ZM41.7924 49.1376C41.7924 49.6275 40.929 49.6275 40.929 49.1376C40.929 48.9042 41.1158 48.6942 41.3724 48.6942C41.6058 48.6942 41.7924 48.9042 41.7924 49.1376ZM31.3852 49.1376C31.3852 49.6275 30.4985 49.6275 30.4985 49.1376C30.4985 48.9042 30.7084 48.6942 30.9419 48.6942C31.1751 48.6942 31.3852 48.9042 31.3852 49.1376ZM31.3852 49.1376C31.3852 49.6275 30.4985 49.6275 30.4985 49.1376C30.4985 48.9042 30.7084 48.6942 30.9419 48.6942C31.1751 48.6942 31.3852 48.9042 31.3852 49.1376ZM41.7924 49.1376C41.7924 49.6275 40.929 49.6275 40.929 49.1376C40.929 48.9042 41.1158 48.6942 41.3724 48.6942C41.6058 48.6942 41.7924 48.9042 41.7924 49.1376ZM65.5938 7.71847V9.74858H0V7.71847C0 4.84821 2.33347 2.53809 5.20359 2.53809H60.3903C63.2604 2.53809 65.5938 4.84821 65.5938 7.71847ZM18.5977 6.7151C18.5977 6.10837 18.1078 5.61829 17.501 5.61829H5.50696C4.90023 5.61829 4.4103 6.10837 4.4103 6.7151C4.4103 7.32182 4.90023 7.81175 5.50696 7.81175H17.501C18.1078 7.81175 18.5977 7.32182 18.5977 6.7151ZM51.5465 6.7151C51.5465 6.08501 51.033 5.54836 50.3797 5.54836C49.7496 5.54836 49.213 6.08501 49.213 6.7151C49.213 7.36839 49.7496 7.88183 50.3797 7.88183C51.033 7.88183 51.5465 7.36839 51.5465 6.7151ZM56.3766 6.7151C56.3766 6.08501 55.84 5.54836 55.2099 5.54836C54.5566 5.54836 54.0431 6.08501 54.0431 6.7151C54.0431 7.36839 54.5566 7.88183 55.2099 7.88183C55.84 7.88183 56.3766 7.36839 56.3766 6.7151ZM61.1836 6.7151C61.1836 6.08501 60.6703 5.54836 60.0168 5.54836C59.3635 5.54836 58.8501 6.08501 58.8501 6.7151C58.8501 7.36839 59.3635 7.88183 60.0168 7.88183C60.6703 7.88183 61.1836 7.36839 61.1836 6.7151ZM41.7924 49.1376C41.7924 49.6275 40.929 49.6275 40.929 49.1376C40.929 48.9042 41.1158 48.6942 41.3724 48.6942C41.6058 48.6942 41.7924 48.9042 41.7924 49.1376ZM31.3852 49.1376C31.3852 49.6275 30.4985 49.6275 30.4985 49.1376C30.4985 48.9042 30.7084 48.6942 30.9419 48.6942C31.1751 48.6942 31.3852 48.9042 31.3852 49.1376ZM31.3852 49.1376C31.3852 49.6275 30.4985 49.6275 30.4985 49.1376C30.4985 48.9042 30.7084 48.6942 30.9419 48.6942C31.1751 48.6942 31.3852 48.9042 31.3852 49.1376ZM31.3852 49.1376C31.3852 49.6275 30.4985 49.6275 30.4985 49.1376C30.4985 48.9042 30.7084 48.6942 30.9419 48.6942C31.1751 48.6942 31.3852 48.9042 31.3852 49.1376ZM69.5611 57.429L57.3648 47.1452C56.5653 46.4711 55.3428 47.0396 55.343 48.0853L55.347 64.0387C55.3473 65.0822 56.5638 65.6528 57.3663 64.9857L60.7154 62.2021L62.5705 66.1915C63.0818 67.2911 64.3877 67.7679 65.4872 67.2567C66.5867 66.7454 67.0636 65.4395 66.5523 64.34L64.6972 60.3505L68.984 59.5834C70.0113 59.3996 70.3589 58.1017 69.5611 57.429Z" fill="black"/>
</svg>
