<svg width="71" height="70" viewBox="0 0 71 70" fill="none" xmlns="http://www.w3.org/2000/svg">
<path d="M35 0C30.4037 2.00909e-07 25.8525 0.905302 21.6061 2.66422C17.3597 4.42313 13.5013 7.00121 10.2513 10.2513C7.00121 13.5013 4.42313 17.3597 2.66422 21.6061C0.905301 25.8525 -4.01818e-07 30.4037 0 35H35L35 0Z" fill="#F1F1F1"/>
<path d="M27.364 34.9998C27.364 32.2994 26.3248 29.7096 24.475 27.8001C22.6252 25.8907 20.1164 24.8179 17.5004 24.8179C14.8844 24.8179 12.3755 25.8907 10.5257 27.8001C8.67592 29.7096 7.63672 32.2994 7.63672 34.9998L27.364 34.9998Z" fill="#131724"/>
<path d="M70 34.9998C70 30.4035 69.0947 25.8522 67.3358 21.6058C65.5769 17.3594 62.9988 13.5011 59.7487 10.251C56.4987 7.00097 52.6403 4.42289 48.3939 2.66397C44.1475 0.905057 39.5963 -0.000244342 35 -0.000244141L35 34.9998H70Z" fill="#C0C0C0"/>
<path d="M35 27.3635C37.7004 27.3635 40.2902 26.3243 42.1996 24.4745C44.1091 22.6247 45.1818 20.1159 45.1818 17.4999C45.1818 14.8839 44.1091 12.375 42.1996 10.5252C40.2902 8.67543 37.7004 7.63623 35 7.63623L35 27.3635Z" fill="#131724"/>
<path d="M0 34.9998C-4.01818e-07 39.596 0.905301 44.1473 2.66422 48.3937C4.42313 52.6401 7.00121 56.4984 10.2513 59.7485C13.5013 62.9985 17.3597 65.5766 21.6061 67.3355C25.8525 69.0945 30.4037 69.9998 35 69.9998L35 34.9998L0 34.9998Z" fill="#C0C0C0"/>
<path d="M35 42.6355C32.2996 42.6355 29.7098 43.6747 27.8004 45.5245C25.8909 47.3743 24.8182 49.8832 24.8182 52.4992C24.8182 55.1152 25.8909 57.624 27.8004 59.4738C29.7098 61.3236 32.2996 62.3628 35 62.3628L35 42.6355Z" fill="#131724"/>
<path d="M35 69.9998C39.5963 69.9998 44.1475 69.0945 48.3939 67.3355C52.6403 65.5766 56.4987 62.9985 59.7487 59.7485C62.9988 56.4984 65.5769 52.6401 67.3358 48.3937C69.0947 44.1473 70 39.596 70 34.9998H35L35 69.9998Z" fill="#F1F1F1"/>
<path d="M42.636 34.9995C42.636 37.6999 43.6752 40.2897 45.525 42.1991C47.3748 44.1086 49.8836 45.1813 52.4996 45.1813C55.1156 45.1813 57.6245 44.1086 59.4743 42.1991C61.3241 40.2897 62.3633 37.6999 62.3633 34.9995L42.636 34.9995Z" fill="#131724"/>
</svg>
