<svg width="60" height="60" viewBox="0 0 60 60" fill="none" xmlns="http://www.w3.org/2000/svg">
<path d="M40.1887 0H19.919C16.4729 0 13.5449 2.80983 13.5449 6.25491V53.7522C13.5449 57.1973 16.411 60 19.857 60L40.1601 59.9781C43.6057 59.9781 46.4246 57.1749 46.4246 53.7294L46.4541 6.25158C46.4536 2.7941 43.6486 0 40.1887 0ZM27.1256 3.75009H33.0064C33.523 3.75009 33.9438 4.16947 33.9438 4.68749C33.9438 5.20552 33.523 5.6249 33.0064 5.6249H27.1256C27.0025 5.62494 26.8806 5.60073 26.7668 5.55364C26.6531 5.50654 26.5497 5.4375 26.4626 5.35044C26.3756 5.26339 26.3065 5.16003 26.2594 5.04628C26.2124 4.93252 26.1881 4.81061 26.1882 4.68749C26.1881 4.56438 26.2124 4.44246 26.2594 4.32871C26.3065 4.21496 26.3756 4.1116 26.4626 4.02454C26.5497 3.93749 26.6531 3.86844 26.7668 3.82135C26.8806 3.77426 27.0025 3.75004 27.1256 3.75009ZM23.5919 4.04842C23.9393 3.70148 24.5717 3.69671 24.9186 4.04842C25.0948 4.22532 25.1943 4.46449 25.1955 4.71418C25.1955 4.95818 25.0926 5.20123 24.9186 5.37518C24.7456 5.54912 24.5011 5.65158 24.2576 5.65158C24.0093 5.65158 23.7706 5.54912 23.5919 5.37518C23.4189 5.20171 23.3202 4.95818 23.3202 4.71418C23.3197 4.46541 23.4189 4.22189 23.5919 4.04842ZM29.8768 58.1419C28.3299 58.1419 27.0717 56.8828 27.0717 55.3363C27.0717 53.7894 28.3299 52.5308 29.8768 52.5308C31.4237 52.5308 32.6819 53.7894 32.6819 55.3363C32.6819 56.8828 31.4233 58.1419 29.8768 58.1419ZM43.5442 50.6241H16.8261V8.90652H43.5442V50.6241Z" fill="#F1F1F1"/>
</svg>
