<svg width="61" height="61" viewBox="0 0 61 61" fill="none" xmlns="http://www.w3.org/2000/svg">
<rect width="61" height="61" rx="30.5" fill="#F1F1F1"/>
<path d="M24.0417 20.1667V40.8333H36.9583V20.1667H24.0417ZM22.75 17.5833H38.25C38.6117 17.5833 38.9131 17.7125 39.1542 17.9708C39.4125 18.2119 39.5417 18.5133 39.5417 18.875V42.125C39.5417 42.4867 39.4125 42.7967 39.1542 43.055C38.9131 43.2961 38.6117 43.4167 38.25 43.4167H22.75C22.3883 43.4167 22.0783 43.2961 21.82 43.055C21.5789 42.7967 21.4583 42.4867 21.4583 42.125V18.875C21.4583 18.5133 21.5789 18.2119 21.82 17.9708C22.0783 17.7125 22.3883 17.5833 22.75 17.5833ZM30.5 36.9583C30.8617 36.9583 31.1631 37.0875 31.4042 37.3458C31.6625 37.5869 31.7917 37.8883 31.7917 38.25C31.7917 38.6117 31.6625 38.9217 31.4042 39.18C31.1631 39.4211 30.8617 39.5417 30.5 39.5417C30.1383 39.5417 29.8283 39.4211 29.57 39.18C29.3289 38.9217 29.2083 38.6117 29.2083 38.25C29.2083 37.8883 29.3289 37.5869 29.57 37.3458C29.8283 37.0875 30.1383 36.9583 30.5 36.9583Z" fill="#050610"/>
</svg>
