<svg width="61" height="61" viewBox="0 0 61 61" fill="none" xmlns="http://www.w3.org/2000/svg">
<rect width="61" height="61" rx="30.5" fill="#F1F1F1"/>
<path d="M21.8975 19.2367C22.7758 18.9094 23.6628 18.8664 24.5583 19.1075C25.4711 19.3486 26.2289 19.8308 26.8317 20.5542C27.4517 21.2603 27.8047 22.0783 27.8908 23.0083C27.9942 23.9383 27.8219 24.8167 27.3742 25.6433L41.2208 39.4642L39.3867 41.2983L25.54 27.4517C24.7306 27.8994 23.8608 28.0803 22.9308 27.9942C22.0008 27.8908 21.1742 27.5378 20.4508 26.935C19.7447 26.315 19.2711 25.5572 19.03 24.6617C18.7889 23.7489 18.8233 22.8533 19.1333 21.975L22.0267 24.8425C22.2678 25.1008 22.5519 25.2817 22.8792 25.385C23.2236 25.4711 23.5681 25.4711 23.9125 25.385C24.2569 25.2989 24.5497 25.1353 24.7908 24.8942C25.0492 24.6358 25.2214 24.3431 25.3075 24.0158C25.3936 23.6714 25.385 23.3356 25.2817 23.0083C25.1956 22.6639 25.0233 22.3625 24.765 22.1042L21.8717 19.2108L21.8975 19.2367ZM35.2792 21.665L39.3867 19.3658L41.2208 21.2L38.9217 25.3075L36.6483 25.7725L33.91 28.5108L32.0758 26.6767L34.8142 23.9383L35.2792 21.665ZM26.5992 32.1533L28.4333 33.9875L21.5875 40.8333C21.3292 41.0744 21.0278 41.2036 20.6833 41.2208C20.3561 41.2208 20.0633 41.1089 19.805 40.885C19.5467 40.6611 19.4003 40.3769 19.3658 40.0325C19.3486 39.6881 19.4433 39.3867 19.65 39.1283L19.7533 38.9992L26.5992 32.1533Z" fill="#050610"/>
</svg>
