<svg width="70" height="70" viewBox="0 0 70 70" fill="none" xmlns="http://www.w3.org/2000/svg">
<g clip-path="url(#clip0_423_9140)">
<path d="M43.1933 55.368H10.5769V8.58818H43.1843V12.0877H47.5671V7.63287C47.57 3.43647 44.1245 0 39.931 0H13.8361C9.63667 0 6.2002 3.43647 6.2002 7.63287V62.3641C6.2002 66.5666 9.63667 70 13.8361 70H39.931C44.1245 70 47.57 66.5666 47.57 62.3641V55.2868H43.1933V55.368ZM26.879 66.179C24.9445 66.179 23.3825 64.6141 23.3825 62.6825C23.3825 60.745 24.9446 59.183 26.879 59.183C28.8165 59.183 30.3817 60.748 30.3817 62.6825C30.3817 64.6141 28.8167 66.179 26.879 66.179Z" fill="#050610"/>
<path d="M58.8226 31.1805C58.4771 29.3721 57.7772 27.6989 56.7859 26.236L60.2945 22.7245L56.7109 19.1528L53.2083 22.6583C51.7513 21.6611 50.0692 20.9701 48.2668 20.6217V15.6501H43.1963V20.6217C41.391 20.9701 39.7238 21.664 38.2519 22.6583L34.7555 19.1528L31.1718 22.7274L34.6744 26.2389C33.6861 27.7018 32.9892 29.375 32.6437 31.1803H27.6782V36.2479H32.6436C32.9816 38.0153 33.6733 39.6961 34.6772 41.1894L31.1716 44.6949L34.7553 48.2635L38.2609 44.7609C39.7268 45.7582 41.3999 46.4521 43.2052 46.8036V51.766H48.2757V46.8006C50.078 46.4551 51.7483 45.7552 53.2172 44.764L56.7198 48.2666L60.3035 44.6949L56.7948 41.1894C57.7861 39.7265 58.4831 38.0504 58.8315 36.245H63.7999V31.1805H58.8226ZM45.7376 39.2279C42.6887 39.2279 40.2134 36.7647 40.2134 33.7127C40.2134 30.6638 42.6886 28.1856 45.7376 28.1856C48.7896 28.1856 51.2528 30.6608 51.2528 33.7127C51.2528 36.7677 48.7835 39.2279 45.7376 39.2279Z" fill="#C0C0C0"/>
<path d="M24.0977 13.2832H14.314V19.249H24.0977V13.2832Z" fill="#F1F1F1"/>
<path d="M24.0977 28.558H14.314V34.5238H24.0977V28.558Z" fill="#F1F1F1"/>
<path d="M24.0977 44.5448H14.314V50.5076H24.0977V44.5448Z" fill="#F1F1F1"/>
</g>
<defs>
<clipPath id="clip0_423_9140">
<rect width="70" height="70" fill="white"/>
</clipPath>
</defs>
</svg>
