<svg width="61" height="61" viewBox="0 0 61 61" fill="none" xmlns="http://www.w3.org/2000/svg">
<rect width="61" height="61" rx="30.5" fill="#F1F1F1"/>
<path d="M20.1667 23.2925L15.9817 19.1075L17.8158 17.2733L22.0008 21.4583H41.6858C41.8925 21.4583 42.0819 21.51 42.2542 21.6133C42.4436 21.6994 42.5986 21.8286 42.7192 22.0008C42.8397 22.1558 42.9172 22.3367 42.9517 22.5433C42.9861 22.7328 42.9775 22.9222 42.9258 23.1117L39.8258 33.445C39.7397 33.7206 39.5761 33.9444 39.335 34.1167C39.1111 34.2889 38.8614 34.375 38.5858 34.375H22.75V36.9583H36.9583V39.5417H21.4583C21.0967 39.5417 20.7867 39.4211 20.5283 39.18C20.2872 38.9217 20.1667 38.6117 20.1667 38.25V23.2925ZM22.75 24.0417V31.7917H37.63L39.955 24.0417H22.75ZM22.1042 44.7083C21.5703 44.7083 21.1139 44.5189 20.735 44.14C20.3561 43.7611 20.1667 43.3047 20.1667 42.7708C20.1667 42.2369 20.3561 41.7806 20.735 41.4017C21.1139 41.0228 21.5703 40.8333 22.1042 40.8333C22.6381 40.8333 23.0944 41.0228 23.4733 41.4017C23.8522 41.7806 24.0417 42.2369 24.0417 42.7708C24.0417 43.3047 23.8522 43.7611 23.4733 44.14C23.0944 44.5189 22.6381 44.7083 22.1042 44.7083ZM37.6042 44.7083C37.0703 44.7083 36.6139 44.5189 36.235 44.14C35.8561 43.7611 35.6667 43.3047 35.6667 42.7708C35.6667 42.2369 35.8561 41.7806 36.235 41.4017C36.6139 41.0228 37.0703 40.8333 37.6042 40.8333C38.1381 40.8333 38.5944 41.0228 38.9733 41.4017C39.3522 41.7806 39.5417 42.2369 39.5417 42.7708C39.5417 43.3047 39.3522 43.7611 38.9733 44.14C38.5944 44.5189 38.1381 44.7083 37.6042 44.7083Z" fill="#050610"/>
</svg>
