<svg width="61" height="61" viewBox="0 0 61 61" fill="none" xmlns="http://www.w3.org/2000/svg">
<rect width="61" height="61" rx="30.5" fill="#F1F1F1"/>
<path d="M36.9583 42.125H24.0417C22.8017 42.125 21.6306 41.8494 20.5283 41.2983C19.4433 40.7472 18.5306 39.9808 17.79 38.9992C17.0667 38.0175 16.6017 36.9153 16.395 35.6925C16.1883 34.4525 16.2658 33.2556 16.6275 32.1017C16.9892 30.9306 17.5919 29.9058 18.4358 29.0275C19.2797 28.1319 20.2872 27.4775 21.4583 27.0642C21.3894 25.3936 21.7425 23.8264 22.5175 22.3625C23.3097 20.8986 24.4206 19.7361 25.85 18.875C27.2794 18.0139 28.8294 17.5833 30.5 17.5833C32.1706 17.5833 33.7206 18.0139 35.15 18.875C36.5794 19.7361 37.6817 20.8986 38.4567 22.3625C39.2489 23.8264 39.6106 25.3936 39.5417 27.0642C40.7128 27.4775 41.7203 28.1319 42.5642 29.0275C43.4081 29.9058 44.0108 30.9306 44.3725 32.1017C44.7342 33.2556 44.8117 34.4525 44.605 35.6925C44.3983 36.9153 43.9247 38.0175 43.1842 38.9992C42.4608 39.9808 41.5481 40.7472 40.4458 41.2983C39.3608 41.8494 38.1983 42.125 36.9583 42.125ZM36.9583 26.625C36.9583 25.4539 36.6569 24.3689 36.0542 23.37C35.4686 22.3539 34.6592 21.5617 33.6258 20.9933C32.6097 20.4078 31.5161 20.1322 30.345 20.1667C29.1739 20.2011 28.0889 20.5283 27.09 21.1483C26.0911 21.7683 25.3161 22.595 24.765 23.6283C24.2311 24.6617 23.99 25.7639 24.0417 26.935L24.145 28.8725L22.3367 29.4925C21.5444 29.7681 20.8642 30.2072 20.2958 30.81C19.7447 31.3956 19.3486 32.0758 19.1075 32.8508C18.8664 33.6258 18.8147 34.4267 18.9525 35.2533C19.0903 36.0628 19.4003 36.7947 19.8825 37.4492C20.3819 38.1036 20.9933 38.6203 21.7167 38.9992C22.44 39.3608 23.215 39.5417 24.0417 39.5417H36.9583C37.8194 39.5417 38.6289 39.3436 39.3867 38.9475C40.1444 38.5342 40.7558 37.9744 41.2208 37.2683C41.7031 36.5622 41.9872 35.7786 42.0733 34.9175C42.1767 34.0564 42.0647 33.2383 41.7375 32.4633C41.4275 31.6711 40.9453 30.9994 40.2908 30.4483C39.6536 29.88 38.9044 29.5097 38.0433 29.3375C37.1994 29.1481 36.3642 29.1739 35.5375 29.415C34.7281 29.6389 34.0133 30.0436 33.3933 30.6292C32.7733 31.2147 32.3256 31.9208 32.05 32.7475L29.5958 31.9208C29.9575 30.8703 30.5 29.9489 31.2233 29.1567C31.9639 28.3472 32.825 27.7272 33.8067 27.2967C34.8056 26.8489 35.8561 26.625 36.9583 26.625Z" fill="#050610"/>
</svg>
