<svg width="70" height="70" viewBox="0 0 70 70" fill="none" xmlns="http://www.w3.org/2000/svg">
<path d="M62.7631 21.6414C62.7631 19.3314 60.8922 17.4605 58.5822 17.4605H52.0404C52.4795 18.695 52.4158 20.0441 51.8749 21.2214H58.5822C58.8113 21.2214 59.0022 21.4123 59.0022 21.6477V52.5177H12.8913V21.6477C12.8913 21.4123 13.0758 21.2214 13.3113 21.2214H27.9031L30.614 17.4605H13.3113C12.7617 17.4596 12.2174 17.5671 11.7094 17.7769C11.2014 17.9866 10.7397 18.2944 10.3508 18.6828C9.96192 19.0711 9.65339 19.5323 9.44288 20.0399C9.23238 20.5476 9.12402 21.0918 9.12402 21.6414V55.6486H62.7631V21.6414Z" fill="#F1F1F1"/>
<path d="M5.34339 62.4708H8.74349C8.91226 62.4708 9.07412 62.5378 9.19346 62.6571C9.3128 62.7765 9.37985 62.9384 9.37985 63.1071C9.37985 63.2759 9.3128 63.4378 9.19346 63.5571C9.07412 63.6764 8.91226 63.7435 8.74349 63.7435H5.34339C5.17462 63.7435 5.01276 63.6764 4.89342 63.5571C4.77408 63.4378 4.70703 63.2759 4.70703 63.1071C4.70703 62.9384 4.77408 62.7765 4.89342 62.6571C5.01276 62.5378 5.17462 62.4708 5.34339 62.4708Z" fill="#C0C0C0"/>
<path d="M63.3855 62.4708H66.657C66.8258 62.4708 66.9877 62.5372 67.107 62.6565C67.2264 62.7759 67.2934 62.9377 67.2934 63.1065C67.2934 63.2753 67.2264 63.4371 67.107 63.5565C66.9877 63.6758 66.8258 63.7428 66.657 63.7428H11.9259C11.7572 63.7428 11.5953 63.6758 11.476 63.5565C11.3566 63.4371 11.2896 63.2753 11.2896 63.1065C11.2896 63.0728 11.3036 63.0435 11.3087 63.011C10.3995 62.5074 9.64176 61.7695 9.11413 60.874C8.5865 59.9786 8.30823 58.9582 8.30821 57.9188V56.8879H65.5809V57.9188C65.5814 58.7939 65.3842 59.6578 65.0041 60.446C64.6239 61.2342 64.0706 61.9263 63.3855 62.4708Z" fill="#C0C0C0"/>
<path d="M17.8668 31.1042L21.1632 37.1204C21.245 37.2697 21.3554 37.4014 21.4882 37.5081C21.6209 37.6147 21.7734 37.6941 21.9369 37.7418C22.1003 37.7895 22.2716 37.8045 22.4408 37.786C22.6101 37.7675 22.774 37.7158 22.9233 37.6339L24.1051 36.9861L24.1719 37.1096C24.2326 37.2203 24.3144 37.318 24.4129 37.397C24.5113 37.4761 24.6244 37.535 24.7456 37.5703C24.8668 37.6057 24.9938 37.6168 25.1193 37.603C25.2448 37.5892 25.3664 37.5509 25.4771 37.4901L31.2731 34.3147C31.3838 34.254 31.4815 34.1721 31.5605 34.0736C31.6396 33.9752 31.6985 33.8621 31.7338 33.7409C31.7692 33.6197 31.7803 33.4927 31.7665 33.3672C31.7527 33.2417 31.7144 33.1201 31.6536 33.0095L26.9763 24.4739C26.9157 24.3632 26.8339 24.2656 26.7355 24.1865C26.6371 24.1074 26.5242 24.0485 26.403 24.0131C26.2819 23.9777 26.1549 23.9665 26.0295 23.9802C25.904 23.9939 25.7825 24.0321 25.6718 24.0927L19.8758 27.2688C19.7651 27.3295 19.6674 27.4113 19.5883 27.5097C19.5093 27.608 19.4504 27.721 19.415 27.8421C19.3796 27.9633 19.3684 28.0902 19.3821 28.2157C19.3957 28.3412 19.434 28.4627 19.4946 28.5734L19.5621 28.6968L18.3803 29.344C18.231 29.4258 18.0993 29.5363 17.9927 29.669C17.886 29.8018 17.8066 29.9543 17.7589 30.1177C17.7112 30.2812 17.6962 30.4524 17.7147 30.6217C17.7332 30.791 17.7849 30.9549 17.8668 31.1042ZM28.0938 23.8624L32.7711 32.396C32.8474 32.5297 32.9047 32.6633 32.9429 32.8097C34.852 32.7015 39.2683 32.4533 49.1002 31.8997L37.2956 10.3651L27.8329 23.4933C27.9347 23.6015 28.0174 23.7287 28.0938 23.8624ZM50.8909 32.5239C50.9934 32.711 51.1318 32.8761 51.2981 33.0098C51.4645 33.1434 51.6555 33.243 51.8603 33.3028C52.0651 33.3626 52.2797 33.3814 52.4918 33.3583C52.7039 33.3352 52.9094 33.2705 53.0965 33.1679L53.3383 33.0356C53.7161 32.8284 53.9962 32.4796 54.1168 32.066C54.2375 31.6523 54.1889 31.2077 53.9817 30.8299L40.837 6.84347C40.6298 6.46568 40.281 6.18565 39.8674 6.065C39.4538 5.94435 39.0091 5.99295 38.6313 6.20011L38.3895 6.33247C38.0119 6.53965 37.732 6.8883 37.6113 7.30178C37.4907 7.71526 37.5392 8.15973 37.7462 8.53747L50.8909 32.5239ZM50.5956 17.3206C50.2432 16.6793 49.7123 16.154 49.0674 15.8084C48.4224 15.4628 47.6911 15.3116 46.962 15.3733L50.2774 21.4251C51.162 20.2797 51.3338 18.6697 50.5956 17.3206ZM32.752 48.1969L36.1247 46.3515C36.5447 46.1224 36.6974 45.5942 36.4683 45.1678C33.6747 42.0497 31.6765 39.6124 30.5247 36.176L26.4074 38.4351L31.5683 47.8533C31.7974 48.2733 32.3256 48.4324 32.752 48.1969Z" fill="#050610"/>
</svg>
