<svg width="61" height="61" viewBox="0 0 61 61" fill="none" xmlns="http://www.w3.org/2000/svg">
<rect width="61" height="61" rx="30.5" fill="#F1F1F1"/>
<path d="M18.875 18.875H42.125C42.4867 18.875 42.7881 19.0042 43.0292 19.2625C43.2875 19.5036 43.4167 19.805 43.4167 20.1667V40.8333C43.4167 41.195 43.2875 41.505 43.0292 41.7633C42.7881 42.0044 42.4867 42.125 42.125 42.125H18.875C18.5133 42.125 18.2033 42.0044 17.945 41.7633C17.7039 41.505 17.5833 41.195 17.5833 40.8333V20.1667C17.5833 19.805 17.7039 19.5036 17.945 19.2625C18.2033 19.0042 18.5133 18.875 18.875 18.875ZM20.1667 21.4583V39.5417H40.8333V21.4583H20.1667ZM30.5 34.375H38.25V36.9583H30.5V34.375ZM26.1858 30.5L22.5433 26.8575L24.3775 25.0233L29.8542 30.5L24.3775 35.9767L22.5433 34.1425L26.1858 30.5Z" fill="#050610"/>
</svg>
