<svg width="70" height="70" viewBox="0 0 70 70" fill="none" xmlns="http://www.w3.org/2000/svg">
<path d="M40.5845 20.0658L42.998 16.7496C39.1256 13.9311 34.5398 12.4414 29.7363 12.4414C24.9329 12.4414 20.347 13.9311 16.4746 16.7496L18.8881 20.0658C22.0546 17.7611 25.8059 16.543 29.7363 16.543C33.6667 16.543 37.418 17.7611 40.5845 20.0658Z" fill="#F1F1F1"/>
<path d="M11.6523 10.1125L14.0658 13.4288C18.6405 10.0996 24.0592 8.33984 29.7363 8.33984C35.4134 8.33984 40.8321 10.0996 45.4066 13.4288L47.8201 10.1125C42.5397 6.26951 36.2865 4.23828 29.7363 4.23828C23.1861 4.23828 16.9328 6.26951 11.6523 10.1125ZM18.888 49.9342L16.4746 53.2505C20.347 56.0689 24.9329 57.5586 29.7363 57.5586C34.5396 57.5586 39.1256 56.0689 42.998 53.2505L40.5845 49.9342C37.4179 52.2389 33.6667 53.457 29.7363 53.457C25.8059 53.457 22.0546 52.2389 18.888 49.9342Z" fill="#F1F1F1"/>
<path d="M48.8183 18.5254V27.9394H54.7021V51.4746H64.1162V27.9394H70V18.5254H48.8183ZM0 18.5254H9.41404V51.4746H0V18.5254Z" fill="#050610"/>
<path fill-rule="evenodd" clip-rule="evenodd" d="M29.7364 49.1212C37.5352 49.1212 43.8575 42.799 43.8575 35C43.8575 27.2011 37.5352 20.8789 29.7364 20.8789C21.9375 20.8789 15.6152 27.2011 15.6152 35C15.6152 42.799 21.9375 49.1212 29.7364 49.1212ZM29.7364 30.293C32.336 30.293 34.4435 32.4004 34.4435 35.0001C34.4435 37.5998 32.3361 39.7071 29.7364 39.7071C27.1368 39.7071 25.0293 37.5998 25.0293 35.0001C25.0293 32.4004 27.1368 30.293 29.7364 30.293Z" fill="#C0C0C0"/>
<path d="M14.0658 56.5713C18.6403 59.9005 24.059 61.6602 29.7361 61.6602C35.4132 61.6602 40.832 59.9005 45.4066 56.5713L47.8201 59.8875C42.5396 63.7306 36.2863 65.7618 29.7361 65.7618C23.1859 65.7618 16.9327 63.7306 11.6523 59.8875L14.0658 56.5713Z" fill="#F1F1F1"/>
</svg>
