<svg width="70" height="70" viewBox="0 0 70 70" fill="none" xmlns="http://www.w3.org/2000/svg">
<path d="M68.0743 0.369428C67.9145 0.229374 67.7265 0.125148 67.5231 0.0637517C67.3196 0.00235568 67.1054 -0.0147887 66.8948 0.0134704L36.9646 4.01985C36.607 4.06752 36.2789 4.24348 36.0414 4.51499C35.8038 4.7865 35.673 5.13506 35.6733 5.49581V31.6967C35.6733 32.0917 35.8302 32.4705 36.1095 32.7498C36.3888 33.0291 36.7676 33.186 37.1626 33.186H67.0929C67.4879 33.186 67.8667 33.0291 68.146 32.7498C68.4253 32.4705 68.5822 32.0917 68.5822 31.6967V1.48943C68.5826 1.27728 68.5374 1.06753 68.4498 0.87432C68.3622 0.681111 68.2342 0.508941 68.0743 0.369428ZM31.2052 36.2452H31.2022L3.04733 36.3033C2.65284 36.304 2.27478 36.4613 1.99612 36.7405C1.71745 37.0198 1.56095 37.3981 1.56095 37.7926V60.1345C1.56091 60.4968 1.69292 60.8467 1.93225 61.1186C2.17158 61.3906 2.50183 61.566 2.86116 61.612L31.0161 65.1954C31.226 65.2227 31.4394 65.2049 31.6419 65.1432C31.8444 65.0814 32.0313 64.9771 32.1903 64.8372C32.3492 64.6973 32.4764 64.5251 32.5634 64.3321C32.6503 64.139 32.6951 63.9296 32.6946 63.7179V37.7345C32.6954 37.5387 32.6574 37.3447 32.5828 37.1636C32.5082 36.9826 32.3986 36.8181 32.2601 36.6796C32.1216 36.5412 31.9571 36.4315 31.7761 36.3569C31.595 36.2824 31.401 36.2444 31.2052 36.2452ZM31.0146 4.74666L2.71669 8.38815C1.9735 8.48496 1.41797 9.11794 1.41797 9.8656V31.6967C1.41797 32.0917 1.57488 32.4705 1.85419 32.7498C2.1335 33.0291 2.51233 33.186 2.90733 33.186H31.2052C31.6002 33.186 31.979 33.0291 32.2583 32.7498C32.5377 32.4705 32.6946 32.0917 32.6946 31.6967V6.22411C32.6941 6.01254 32.6487 5.80349 32.5613 5.61081C32.474 5.41813 32.3466 5.24623 32.1878 5.10652C32.0289 4.96681 31.8421 4.86247 31.6399 4.80042C31.4376 4.73838 31.2244 4.72006 31.0146 4.74666ZM67.0958 36.3033L37.1656 36.2616H37.1641C36.9686 36.2614 36.7749 36.2998 36.5942 36.3745C36.4135 36.4493 36.2493 36.5591 36.1111 36.6974C35.9729 36.8358 35.8633 37.0001 35.7887 37.1808C35.7141 37.3616 35.6759 37.5553 35.6763 37.7509V64.4626C35.6763 64.8231 35.807 65.1713 36.0441 65.4427C36.2813 65.7141 36.6089 65.8903 36.9661 65.9386L66.8963 69.9867C67.1066 70.0147 67.3204 69.9974 67.5235 69.9361C67.7266 69.8747 67.9143 69.7707 68.0739 69.6309C68.2335 69.4912 68.3615 69.319 68.4491 69.1258C68.5368 68.9326 68.5822 68.7229 68.5822 68.5107V37.7926C68.5822 37.3981 68.4257 37.0198 68.147 36.7405C67.8684 36.4613 67.4903 36.304 67.0958 36.3033Z" fill="#050610"/>
<path d="M31.2053 36.2451H31.2023L3.04742 36.3032C2.65293 36.304 2.27487 36.4613 1.99621 36.7405C1.71754 37.0197 1.56103 37.3981 1.56104 37.7926V60.1345C1.561 60.4968 1.693 60.8466 1.93234 61.1186C2.17167 61.3905 2.50191 61.5659 2.86125 61.6119L31.0161 65.1953C31.2261 65.2227 31.4394 65.2049 31.642 65.1431C31.8445 65.0814 32.0314 64.977 32.1904 64.8372C32.3493 64.6973 32.4765 64.5251 32.5635 64.332C32.6504 64.139 32.6952 63.9296 32.6947 63.7179V37.7345C32.6954 37.5387 32.6575 37.3447 32.5829 37.1636C32.5083 36.9826 32.3986 36.8181 32.2602 36.6796C32.1217 36.5411 31.9572 36.4315 31.7762 36.3569C31.5951 36.2823 31.4011 36.2443 31.2053 36.2451Z" fill="#C0C0C0"/>
<path d="M2.71669 8.3882L31.0146 4.74671C31.2244 4.72011 31.4376 4.73843 31.6399 4.80047C31.8421 4.86251 32.0289 4.96685 32.1878 5.10657C32.3466 5.24628 32.474 5.41818 32.5613 5.61086C32.6487 5.80354 32.6941 6.01259 32.6946 6.22416V31.6967C32.6946 32.0917 32.5377 32.4705 32.2583 32.7498C31.979 33.0292 31.6002 33.1861 31.2052 33.1861H2.90733C2.51233 33.1861 2.1335 33.0292 1.85419 32.7498C1.57488 32.4705 1.41797 32.0917 1.41797 31.6967V9.86564C1.41797 9.11799 1.9735 8.48501 2.71669 8.3882Z" fill="#F1F1F1"/>
</svg>
