<svg width="61" height="61" viewBox="0 0 61 61" fill="none" xmlns="http://www.w3.org/2000/svg">
<rect width="61" height="61" rx="30.5" fill="#F1F1F1"/>
<path d="M30.5 43.4167C28.1578 43.4167 25.9878 42.8311 23.99 41.66C22.0439 40.5061 20.4939 38.9561 19.34 37.01C18.1689 35.0122 17.5833 32.8422 17.5833 30.5C17.5833 28.6056 17.9794 26.8058 18.7717 25.1008C19.5294 23.4475 20.5886 22.0181 21.9492 20.8125C23.3269 19.6069 24.8856 18.7286 26.625 18.1775V20.9158C25.1094 21.5358 23.8178 22.4486 22.75 23.6542C21.7167 24.8425 20.9847 26.2031 20.5542 27.7358C20.1236 29.3031 20.0633 30.8875 20.3733 32.4892C20.6833 34.0736 21.3292 35.5117 22.3108 36.8033C23.2753 38.0433 24.4636 39.025 25.8758 39.7483C27.3397 40.4717 28.8811 40.8333 30.5 40.8333C31.895 40.8333 33.2211 40.5664 34.4783 40.0325C35.7528 39.4986 36.8722 38.7494 37.8367 37.785C38.8183 36.8033 39.5675 35.6667 40.0842 34.375H42.8225C42.2714 36.1144 41.3931 37.6731 40.1875 39.0508C38.9819 40.4114 37.5525 41.4706 35.8992 42.2283C34.1942 43.0206 32.3944 43.4167 30.5 43.4167ZM43.365 31.7917H29.2083V17.635C29.6389 17.6006 30.0694 17.5833 30.5 17.5833C32.8422 17.5833 35.0122 18.1689 37.01 19.34C38.9561 20.4939 40.5061 22.0439 41.66 23.99C42.8311 25.9878 43.4167 28.1578 43.4167 30.5C43.4167 30.9306 43.3994 31.3611 43.365 31.7917ZM31.7917 20.2442V29.2083H40.7558C40.5664 27.6583 40.0583 26.2375 39.2317 24.9458C38.405 23.6542 37.3458 22.595 36.0542 21.7683C34.7625 20.9417 33.3417 20.4336 31.7917 20.2442Z" fill="#050610"/>
</svg>
