<svg width="70" height="70" viewBox="0 0 70 70" fill="none" xmlns="http://www.w3.org/2000/svg">
<g clip-path="url(#clip0_423_9194)">
<path d="M65.7112 12.3735C65.7086 12.0758 65.5886 11.791 65.3771 11.5814C65.1657 11.3717 64.8799 11.2541 64.5822 11.2541H64.5726C64.2731 11.2566 63.9868 11.378 63.7768 11.5915C63.5668 11.805 63.4501 12.0932 63.4526 12.3927L63.4717 14.7394C56.968 5.837 46.5826 0.561035 35.4147 0.561035C24.6449 0.561035 14.6784 5.38426 8.07013 13.7939C7.88516 14.0294 7.80131 14.3287 7.83704 14.626C7.87277 14.9234 8.02515 15.1943 8.26066 15.3793C8.49617 15.5643 8.79551 15.6481 9.09284 15.6124C9.39017 15.5767 9.66112 15.4243 9.8461 15.1888C16.023 7.32733 25.3426 2.8191 35.4147 2.8191C45.8905 2.8191 55.6199 7.7891 61.6958 16.1558H59.3073C59.0079 16.1558 58.7207 16.2747 58.509 16.4865C58.2972 16.6982 58.1783 16.9854 58.1783 17.2848C58.1783 17.5843 58.2972 17.8714 58.509 18.0832C58.7207 18.2949 59.0079 18.4139 59.3073 18.4139H64.6222C65.2387 18.4139 65.7563 17.8917 65.7513 17.2752L65.7112 12.3735ZM69.9998 34.6968C70.0057 30.5063 69.2278 26.3518 67.7062 22.4473C67.5935 22.1739 67.3781 21.9555 67.1062 21.8392C66.8343 21.723 66.5276 21.718 66.2521 21.8254C65.9765 21.9329 65.7541 22.1442 65.6327 22.4138C65.5113 22.6835 65.5006 22.9901 65.6028 23.2676C67.0224 26.9106 67.7481 30.7869 67.7423 34.6968C67.7423 48.2418 59.2458 60.1051 46.4505 64.6669L47.6709 62.8001C47.752 62.6759 47.8079 62.537 47.8353 62.3913C47.8627 62.2456 47.8612 62.0959 47.8308 61.9508C47.8003 61.8056 47.7416 61.6679 47.658 61.5455C47.5743 61.4231 47.4674 61.3183 47.3432 61.2372C47.2191 61.1561 47.0802 61.1002 46.9345 61.0728C46.7888 61.0454 46.6391 61.0469 46.4939 61.0774C46.3488 61.1078 46.2111 61.1665 46.0887 61.2502C45.9662 61.3338 45.8615 61.4408 45.7804 61.5649L43.0876 65.6853C42.7122 66.2589 42.9505 67.0588 43.5771 67.336L48.1135 69.3366C49.4452 69.9209 50.3569 67.8587 49.0247 67.2705L47.6071 66.6455C61.0799 61.6586 69.9998 49.0637 69.9998 34.6968ZM36.7543 66.5468C36.3101 66.5643 35.8635 66.5733 35.4147 66.5733C17.5896 66.5733 3.08771 52.2735 3.08771 34.6962C3.08771 31.5863 4.39457 27.6973 5.63989 24.4141L6.6357 26.6174C7.23691 27.9463 9.29231 27.012 8.69392 25.6882L6.58884 21.0304C6.52489 20.893 6.43422 20.7697 6.32211 20.6677C6.21 20.5657 6.0787 20.487 5.93587 20.4363C5.79305 20.3856 5.64155 20.3639 5.49022 20.3723C5.3389 20.3808 5.19077 20.4193 5.05449 20.4856L0.623601 22.7053C0.355829 22.8394 0.152284 23.0743 0.0577445 23.3585C-0.036795 23.6426 -0.0145851 23.9527 0.119488 24.2205C0.253562 24.4882 0.488516 24.6918 0.772664 24.7863C1.05681 24.8809 1.36688 24.8587 1.63465 24.7246L3.45296 23.814C2.16473 27.2293 0.830214 31.2786 0.830214 34.6968C0.830214 53.5189 16.3448 68.8319 35.4153 68.8319C35.894 68.8319 36.3705 68.8218 36.8441 68.8031C36.9922 68.7972 37.1378 68.7622 37.2724 68.7001C37.407 68.6379 37.5281 68.5499 37.6287 68.441C37.7293 68.332 37.8074 68.2044 37.8587 68.0652C37.9099 67.9261 37.9333 67.7782 37.9274 67.6301C37.9215 67.4819 37.8865 67.3364 37.8243 67.2017C37.7622 67.0671 37.6741 66.9461 37.5652 66.8455C37.4563 66.7449 37.3286 66.6667 37.1895 66.6155C37.0503 66.5642 36.9025 66.5409 36.7543 66.5468C37.3759 66.523 36.3106 66.5648 36.7543 66.5468Z" fill="#C0C0C0"/>
<path d="M27.0947 35.0891C27.0947 30.8152 30.6613 27.3389 35.0459 27.3389C39.4305 27.3389 42.9971 30.8157 42.9971 35.0891C42.9971 39.3625 39.4305 42.8388 35.0459 42.8388C30.6613 42.8388 27.0947 39.3619 27.0947 35.0891Z" fill="#F1F1F1"/>
<path d="M54.8764 30.7232H52.65C52.2633 29.0748 51.5853 27.4095 50.655 25.8243L52.2452 24.2369C53.2213 23.2626 53.2416 21.6537 52.3485 20.615C51.9302 20.1284 50.1192 18.279 49.6541 17.8336C48.704 16.9236 47.0076 16.7537 46.0175 17.7376L44.4368 19.3149C42.9321 18.406 41.3045 17.7184 39.604 17.273V15.024C39.6065 14.3468 39.3448 13.6953 38.8743 13.2081C38.4039 12.721 37.762 12.4365 37.0851 12.4154C36.4376 12.3951 33.8375 12.3798 33.1933 12.4154C31.8193 12.4916 30.6745 13.6353 30.6745 15.024V17.3351C29.0216 17.7213 27.3506 18.3987 25.7615 19.3279L24.1684 17.7382C23.1935 16.7655 21.5846 16.7458 20.5454 17.6355C20.0576 18.0526 18.2038 19.8602 17.7578 20.3248C16.8461 21.2732 16.6745 22.9724 17.6624 23.9603L19.2402 25.5347C18.3307 27.0344 17.642 28.6573 17.1955 30.3534H14.9386C13.5346 30.3534 12.4581 31.6315 12.4197 32.9621C12.4011 33.6079 12.3842 36.2024 12.4197 36.8454C12.4959 38.2205 13.643 39.3614 15.0312 39.3614H17.2576C17.6443 41.0092 18.3223 42.6751 19.2526 44.2609L17.6618 45.8483C16.6858 46.8226 16.666 48.4315 17.5591 49.4702C17.9774 49.9568 19.7889 51.8067 20.2541 52.2522C21.2064 53.1633 22.8983 53.3281 23.8907 52.3476L25.4713 50.7703C26.976 51.6791 28.6036 52.3668 30.3042 52.8122V55.0612C30.3042 56.4657 31.5862 57.5388 32.9156 57.5772C33.5631 57.5959 36.1633 57.6128 36.8074 57.5772C38.1814 57.501 39.3263 56.3573 39.3263 54.9686V52.7501C40.9792 52.3639 42.6501 51.6859 44.2392 50.7573L45.8323 52.347C46.8078 53.3202 48.4155 53.3394 49.4554 52.4492C49.9431 52.032 51.7964 50.2244 52.2429 49.7604C53.1552 48.812 53.3268 47.1128 52.3383 46.1243L50.7605 44.5505C51.6699 43.0505 52.3585 41.4274 52.8052 39.7312H55.0621C56.1477 39.7312 57.1723 38.8771 57.4749 37.8615C57.6324 37.332 57.5471 32.896 57.5725 33.0992C57.397 31.7004 56.2883 30.7232 54.8764 30.7232ZM35.0461 45.0963C29.4167 45.0963 24.8368 40.6073 24.8368 35.0886C24.8368 29.5699 29.4167 25.0803 35.0461 25.0803C40.6754 25.0803 45.2554 29.5699 45.2554 35.0886C45.2554 40.6073 40.676 45.0963 35.0461 45.0963Z" fill="#050610"/>
</g>
<defs>
<clipPath id="clip0_423_9194">
<rect width="70" height="70" fill="white"/>
</clipPath>
</defs>
</svg>
