<svg width="61" height="61" viewBox="0 0 61 61" fill="none" xmlns="http://www.w3.org/2000/svg">
<rect width="61" height="61" rx="30.5" fill="#F1F1F1"/>
<path d="M42.125 39.5417H44.7083V42.125H16.2917V39.5417H18.875V20.1667C18.875 19.805 18.9956 19.5036 19.2367 19.2625C19.495 19.0042 19.805 18.875 20.1667 18.875H33.0833C33.445 18.875 33.7464 19.0042 33.9875 19.2625C34.2458 19.5036 34.375 19.805 34.375 20.1667V39.5417H39.5417V29.2083H36.9583V26.625H40.8333C41.195 26.625 41.4964 26.7542 41.7375 27.0125C41.9958 27.2536 42.125 27.555 42.125 27.9167V39.5417ZM21.4583 21.4583V39.5417H31.7917V21.4583H21.4583ZM24.0417 29.2083H29.2083V31.7917H24.0417V29.2083ZM24.0417 24.0417H29.2083V26.625H24.0417V24.0417Z" fill="#050610"/>
</svg>
