<svg width="70" height="70" viewBox="0 0 70 70" fill="none" xmlns="http://www.w3.org/2000/svg">
<path d="M61.25 31.0275V30.625C61.25 16.1503 49.4747 4.375 35 4.375C20.5253 4.375 8.75 16.1503 8.75 30.625V31.0275C7.474 31.4769 6.36842 32.3103 5.58507 33.4133C4.80172 34.5163 4.37902 35.8347 4.375 37.1875V41.5625C4.375 45.1806 7.31937 48.125 10.9375 48.125H13.125C13.7052 48.125 14.2616 47.8945 14.6718 47.4843C15.082 47.0741 15.3125 46.5177 15.3125 45.9375V32.8125C15.3125 32.2323 15.082 31.6759 14.6718 31.2657C14.2616 30.8555 13.7052 30.625 13.125 30.625C13.125 18.5631 22.9381 8.75 35 8.75C47.0619 8.75 56.875 18.5631 56.875 30.625C56.2948 30.625 55.7384 30.8555 55.3282 31.2657C54.918 31.6759 54.6875 32.2323 54.6875 32.8125V45.9375C54.6875 46.5177 54.918 47.0741 55.3282 47.4843C55.7384 47.8945 56.2948 48.125 56.875 48.125H59.0625C62.6806 48.125 65.625 45.1806 65.625 41.5625V37.1875C65.621 35.8347 65.1983 34.5163 64.4149 33.4133C63.6316 32.3103 62.526 31.4769 61.25 31.0275ZM54.6875 50.3125C54.6875 56.3434 49.7809 61.25 43.75 61.25H41.5625C41.5625 58.8372 39.6003 56.875 37.1875 56.875H32.8125C30.3997 56.875 28.4375 58.8372 28.4375 61.25C28.4375 63.6628 30.3997 65.625 32.8125 65.625H43.75C52.1937 65.625 59.0625 58.7562 59.0625 50.3125H54.6875Z" fill="#050610"/>
<path d="M35 19.6875C25.3509 19.6875 17.5 27.5384 17.5 37.1875C17.5 46.8366 25.3509 54.6875 35 54.6875C44.6491 54.6875 52.5 46.8366 52.5 37.1875C52.5 27.5384 44.6491 19.6875 35 19.6875ZM28.0437 41.8162C28.2668 42.0019 28.407 42.2686 28.4335 42.5576C28.4599 42.8466 28.3705 43.1343 28.1848 43.3573C27.9992 43.5804 27.7325 43.7206 27.4435 43.7471C27.1545 43.7735 26.8668 43.6841 26.6438 43.4984L20.0813 38.0297C19.9578 37.927 19.8584 37.7985 19.7902 37.6531C19.722 37.5078 19.6867 37.3492 19.6867 37.1886C19.6867 37.028 19.722 36.8694 19.7902 36.7241C19.8584 36.5787 19.9578 36.4501 20.0813 36.3475L26.6438 30.8788C26.7542 30.7868 26.8817 30.7176 27.0189 30.6749C27.1561 30.6322 27.3004 30.617 27.4435 30.6301C27.5866 30.6432 27.7257 30.6844 27.8529 30.7513C27.9801 30.8181 28.0929 30.9094 28.1848 31.0198C28.2768 31.1303 28.346 31.2578 28.3887 31.395C28.4314 31.5322 28.4466 31.6765 28.4335 31.8196C28.4204 31.9627 28.3792 32.1018 28.3123 32.229C28.2455 32.3562 28.1542 32.469 28.0437 32.5609L22.4897 37.1875L28.0437 41.8162ZM38.2025 32.1256L33.8275 43.0631C33.7777 43.2012 33.7006 43.3279 33.6009 43.4355C33.5011 43.5432 33.3807 43.6297 33.2468 43.6899C33.1129 43.75 32.9683 43.7826 32.8215 43.7857C32.6747 43.7887 32.5289 43.7622 32.3926 43.7078C32.2563 43.6533 32.1323 43.5719 32.0281 43.4685C31.9239 43.3651 31.8416 43.2418 31.7861 43.1059C31.7306 42.97 31.703 42.8243 31.7049 42.6776C31.7069 42.5308 31.7384 42.3859 31.7975 42.2516L36.1725 31.3141C36.2211 31.1746 36.2975 31.0465 36.397 30.9374C36.4965 30.8283 36.617 30.7404 36.7514 30.6791C36.8857 30.6179 37.0311 30.5844 37.1787 30.5809C37.3263 30.5773 37.4731 30.6036 37.6103 30.6583C37.7475 30.713 37.8721 30.7949 37.9768 30.8991C38.0815 31.0032 38.1639 31.1275 38.2193 31.2644C38.2746 31.4013 38.3017 31.548 38.2988 31.6956C38.2959 31.8433 38.2631 31.991 38.2025 32.1256ZM43.3562 43.4984C43.2458 43.5904 43.1183 43.6596 42.9811 43.7023C42.8439 43.7449 42.6996 43.7602 42.5565 43.7471C42.4134 43.734 42.2743 43.6928 42.1471 43.6259C42.0199 43.5591 41.9071 43.4678 41.8152 43.3573C41.7232 43.2469 41.654 43.1194 41.6113 42.9822C41.5686 42.845 41.5534 42.7007 41.5665 42.5576C41.5796 42.4145 41.6208 42.2753 41.6877 42.1482C41.7545 42.021 41.8458 41.9082 41.9563 41.8162L47.5103 37.1875L41.9541 32.5609C41.731 32.375 41.5909 32.1081 41.5647 31.8188C41.5384 31.5296 41.6281 31.2418 41.8141 31.0188C42 30.7957 42.2669 30.6556 42.5562 30.6294C42.8454 30.6031 43.1332 30.6928 43.3562 30.8788L49.9188 36.3475C50.0422 36.4501 50.1416 36.5787 50.2098 36.7241C50.278 36.8694 50.3133 37.028 50.3133 37.1886C50.3133 37.3492 50.278 37.5078 50.2098 37.6531C50.1416 37.7985 50.0422 37.927 49.9188 38.0297L43.3562 43.4984Z" fill="#C0C0C0"/>
<path d="M28.0436 41.8163C28.2667 42.0019 28.4069 42.2686 28.4333 42.5576C28.4598 42.8466 28.3703 43.1343 28.1847 43.3574C27.999 43.5805 27.7324 43.7206 27.4434 43.7471C27.1544 43.7736 26.8667 43.6841 26.6436 43.4985L20.0811 38.0297C19.9576 37.9271 19.8583 37.7985 19.7901 37.6532C19.7219 37.5078 19.6865 37.3492 19.6865 37.1886C19.6865 37.0281 19.7219 36.8695 19.7901 36.7241C19.8583 36.5787 19.9576 36.4502 20.0811 36.3475L26.6436 30.8788C26.7541 30.7869 26.8815 30.7176 27.0188 30.6749C27.156 30.6323 27.3003 30.6171 27.4434 30.6302C27.5865 30.6433 27.7256 30.6844 27.8528 30.7513C27.98 30.8182 28.0928 30.9094 28.1847 31.0199C28.2766 31.1303 28.3459 31.2578 28.3885 31.395C28.4312 31.5323 28.4464 31.6765 28.4333 31.8196C28.4202 31.9628 28.3791 32.1019 28.3122 32.2291C28.2453 32.3563 28.154 32.4691 28.0436 32.561L22.4895 37.1875L28.0436 41.8163ZM38.2023 32.1257L33.8273 43.0632C33.7776 43.2013 33.7005 43.3279 33.6007 43.4356C33.501 43.5433 33.3805 43.6297 33.2466 43.6899C33.1127 43.75 32.9681 43.7826 32.8213 43.7857C32.6746 43.7888 32.5287 43.7623 32.3924 43.7078C32.2561 43.6533 32.1322 43.5719 32.028 43.4685C31.9238 43.3651 31.8415 43.2418 31.786 43.1059C31.7304 42.9701 31.7028 42.8244 31.7048 42.6776C31.7067 42.5308 31.7382 42.386 31.7973 42.2516L36.1723 31.3141C36.221 31.1747 36.2973 31.0465 36.3968 30.9374C36.4963 30.8283 36.6169 30.7405 36.7512 30.6792C36.8856 30.6179 37.0309 30.5845 37.1786 30.5809C37.3262 30.5773 37.473 30.6037 37.6102 30.6583C37.7473 30.713 37.872 30.7949 37.9766 30.8991C38.0813 31.0033 38.1638 31.1275 38.2191 31.2644C38.2745 31.4014 38.3015 31.548 38.2986 31.6957C38.2957 31.8433 38.263 31.991 38.2023 32.1257ZM43.3561 43.4985C43.2456 43.5904 43.1182 43.6597 42.9809 43.7023C42.8437 43.745 42.6994 43.7602 42.5563 43.7471C42.4132 43.734 42.2741 43.6928 42.1469 43.626C42.0197 43.5591 41.9069 43.4678 41.815 43.3574C41.7231 43.2469 41.6538 43.1194 41.6111 42.9822C41.5685 42.845 41.5533 42.7007 41.5664 42.5576C41.5795 42.4145 41.6206 42.2754 41.6875 42.1482C41.7544 42.021 41.8456 41.9082 41.9561 41.8163L47.5102 37.1875L41.9539 32.561C41.7308 32.375 41.5908 32.1081 41.5645 31.8189C41.5383 31.5297 41.628 31.2419 41.8139 31.0188C41.9998 30.7957 42.2668 30.6556 42.556 30.6294C42.8452 30.6031 43.133 30.6928 43.3561 30.8788L49.9186 36.3475C50.0421 36.4502 50.1414 36.5787 50.2096 36.7241C50.2778 36.8695 50.3132 37.0281 50.3132 37.1886C50.3132 37.3492 50.2778 37.5078 50.2096 37.6532C50.1414 37.7985 50.0421 37.9271 49.9186 38.0297L43.3561 43.4985Z" fill="#F1F1F1"/>
</svg>
