<svg width="60" height="60" viewBox="0 0 60 60" fill="none" xmlns="http://www.w3.org/2000/svg">
<g clip-path="url(#clip0_998_21790)">
<path d="M52.7653 2.13409C52.7653 1.5681 52.5405 1.02528 52.1402 0.625061C51.74 0.224841 51.1972 0 50.6312 0C50.0652 0 49.5224 0.224841 49.1222 0.625061C48.722 1.02528 48.4971 1.5681 48.4971 2.13409V7.12218C43.4745 2.98158 37.2286 0.609395 30.7236 0.371834C24.2187 0.134274 17.8163 2.04455 12.5051 5.80775C7.19385 9.57096 3.269 14.9778 1.33647 21.1936C-0.596055 27.4095 -0.428799 34.0886 1.81242 40.1999C2.00938 40.7285 2.40761 41.1576 2.92005 41.3934C3.43249 41.6292 4.01745 41.6526 4.54704 41.4583C5.07664 41.2641 5.50779 40.8681 5.74624 40.3568C5.98469 39.8456 6.01104 39.2608 5.81954 38.7302C3.91617 33.5417 3.75893 27.8735 5.37174 22.5874C6.98454 17.3013 10.2792 12.6864 14.7548 9.44408C19.2305 6.20179 24.6424 4.50947 30.1678 4.62439C35.6933 4.7393 41.0301 6.65516 45.3671 10.0807H41.4681C40.9021 10.0807 40.3593 10.3056 39.9591 10.7058C39.5589 11.106 39.334 11.6488 39.334 12.2148C39.334 12.7808 39.5589 13.3236 39.9591 13.7239C40.3593 14.1241 40.9021 14.3489 41.4681 14.3489H49.9198C50.6745 14.3489 51.3983 14.0491 51.9319 13.5155C52.4655 12.9819 52.7653 12.2581 52.7653 11.5035V2.13409ZM6.51738 57.8659C6.51738 58.4319 6.74222 58.9747 7.14244 59.3749C7.54266 59.7752 8.08548 60 8.65147 60C9.21747 60 9.76029 59.7752 10.1605 59.3749C10.5607 58.9747 10.7856 58.4319 10.7856 57.8659V52.8643C15.808 57.005 22.0539 59.3773 28.5588 59.615C35.0637 59.8526 41.466 57.9424 46.7773 54.1793C52.0885 50.4161 56.0133 45.0092 57.9458 38.7934C59.8782 32.5776 59.7109 25.8985 57.4695 19.7873C57.2726 19.2587 56.8744 18.8296 56.3619 18.5938C55.8495 18.358 55.2645 18.3346 54.7349 18.5289C54.2053 18.7231 53.7742 19.1191 53.5357 19.6303C53.2973 20.1416 53.2709 20.7264 53.4624 21.257C55.3655 26.4455 55.5226 32.1135 53.9097 37.3994C52.2968 42.6853 49.0021 47.3001 44.5265 50.5423C40.0509 53.7845 34.6392 55.4767 29.1139 55.3618C23.5885 55.2469 18.2518 53.3312 13.9149 49.9057H18.6412C19.2072 49.9057 19.75 49.6809 20.1502 49.2807C20.5504 48.8805 20.7753 48.3376 20.7753 47.7717C20.7753 47.2057 20.5504 46.6628 20.1502 46.2626C19.75 45.8624 19.2072 45.6376 18.6412 45.6376H9.36284C8.60818 45.6376 7.88442 45.9373 7.3508 46.471C6.81717 47.0046 6.51738 47.7284 6.51738 48.483V57.8659Z" fill="#C0C0C0"/>
<path d="M27.4258 30.9949H32.2988V32.6192H27.4258V30.9949Z" fill="#C0C0C0"/>
<path d="M38.4905 32.6196H33.9218V33.4318C33.9218 33.8807 33.5585 34.244 33.1096 34.244H26.6123C26.1635 34.244 25.8001 33.8807 25.8001 33.4318V32.6196H21.2315C20.7201 32.62 20.2216 32.4593 19.8067 32.1604C19.3918 31.8614 19.0816 31.4393 18.9202 30.9541L16 22.1921V39.929C16 41.2725 17.0931 42.3655 18.4365 42.3655H41.2855C42.6289 42.3655 43.722 41.2724 43.722 39.929V22.1928L40.8015 30.9541C40.6402 31.4393 40.3301 31.8614 39.9152 32.1604C39.5004 32.4594 39.0019 32.6201 38.4905 32.6196H38.4905Z" fill="#F1F1F1"/>
<path d="M33.1107 18.0005H26.6133C25.2698 18.0005 24.1768 19.0935 24.1768 20.4369V21.2491H17.3984L20.4616 30.4398C20.5155 30.6015 20.619 30.7422 20.7574 30.8418C20.8957 30.9415 21.0619 30.9951 21.2325 30.9949H25.8012V30.1828C25.8012 29.7339 26.1645 29.3706 26.6133 29.3706H33.1107C33.5595 29.3706 33.9228 29.7339 33.9228 30.1828V30.9949H38.4915C38.8413 30.9949 39.1513 30.772 39.2624 30.4398L42.3258 21.2491H35.5472V20.4369C35.5472 19.0935 34.4542 18.0005 33.1107 18.0005ZM25.8012 21.2491V20.4369C25.8012 19.9888 26.1652 19.6248 26.6133 19.6248H33.1107C33.5588 19.6248 33.9228 19.9888 33.9228 20.4369V21.2491H25.8012Z" fill="#F1F1F1"/>
</g>
<defs>
<clipPath id="clip0_998_21790">
<rect width="60" height="60" fill="white"/>
</clipPath>
</defs>
</svg>
