<svg width="60" height="60" viewBox="0 0 60 60" fill="none" xmlns="http://www.w3.org/2000/svg">
<path fill-rule="evenodd" clip-rule="evenodd" d="M44.375 39.375V48.125C44.375 49.2853 43.9141 50.3981 43.0936 51.2186C42.2731 52.0391 41.1603 52.5 40 52.5H20C18.8397 52.5 17.7269 52.0391 16.9064 51.2186C16.0859 50.3981 15.625 49.2853 15.625 48.125V39.375C15.625 36.2256 16.8761 33.2051 19.1031 30.9781C21.3301 28.7511 24.3506 27.5 27.5 27.5H32.5C35.6494 27.5 38.6699 28.7511 40.8969 30.9781C43.1239 33.2051 44.375 36.2256 44.375 39.375Z" fill="#F1F1F1"/>
<path d="M30 26.25C35.1777 26.25 39.375 22.0527 39.375 16.875C39.375 11.6973 35.1777 7.5 30 7.5C24.8223 7.5 20.625 11.6973 20.625 16.875C20.625 22.0527 24.8223 26.25 30 26.25Z" fill="#F1F1F1"/>
<path d="M48.75 26.25C52.2018 26.25 55 23.4518 55 20C55 16.5482 52.2018 13.75 48.75 13.75C45.2982 13.75 42.5 16.5482 42.5 20C42.5 23.4518 45.2982 26.25 48.75 26.25Z" fill="#C0C0C0"/>
<path d="M11.25 26.25C14.7018 26.25 17.5 23.4518 17.5 20C17.5 16.5482 14.7018 13.75 11.25 13.75C7.79822 13.75 5 16.5482 5 20C5 23.4518 7.79822 26.25 11.25 26.25Z" fill="#C0C0C0"/>
<path fill-rule="evenodd" clip-rule="evenodd" d="M13.1525 48.75H7.5C6.34 48.75 5.2275 48.29 4.4075 47.4675C4.00073 47.0618 3.67806 46.5798 3.45798 46.0491C3.2379 45.5184 3.12474 44.9495 3.125 44.375V34.375C3.125 32.5525 3.85 30.8025 5.1375 29.5125C6.42806 28.2245 8.17668 27.5008 10 27.5H12.5C14.245 27.5 15.9225 28.165 17.195 29.3525C14.5856 32.0363 13.1255 35.6318 13.125 39.375V48.125C13.125 48.335 13.135 48.545 13.1525 48.75ZM42.805 29.3525C44.0791 28.1629 45.7569 27.5009 47.5 27.5H50C51.8225 27.5 53.5725 28.225 54.8625 29.5125C56.15 30.8025 56.875 32.5525 56.875 34.375V44.375C56.875 45.535 56.415 46.6475 55.5925 47.4675C55.1868 47.8743 54.7048 48.1969 54.1741 48.417C53.6434 48.6371 53.0745 48.7503 52.5 48.75H46.8475C46.865 48.545 46.875 48.335 46.875 48.125V39.375C46.8745 35.6318 45.4144 32.0363 42.805 29.3525Z" fill="#C0C0C0"/>
</svg>
