<svg width="60" height="60" viewBox="0 0 60 60" fill="none" xmlns="http://www.w3.org/2000/svg">
<path d="M20.6812 34.3313H17.25C15.3937 34.3313 13.875 35.8501 13.875 37.7063V51.8813C13.875 53.7563 15.3937 55.2563 17.25 55.2563H20.6812V34.3313ZM45.9375 40.4813L42.825 51.6938C42.5453 52.7175 41.9367 53.6208 41.0931 54.2646C40.2494 54.9084 39.2175 55.2568 38.1562 55.2563H23.4937V34.3313L29.6812 25.5751C30.1605 24.9016 30.8619 24.4186 31.6621 24.2114C32.4623 24.0041 33.31 24.0857 34.0559 24.4419C34.8019 24.7981 35.3983 25.4059 35.7401 26.1585C36.082 26.9111 36.1475 27.7602 35.925 28.5563L34.2937 34.3313H41.2687C44.475 34.3313 46.8 37.3876 45.9375 40.4813ZM11.4037 12.7482L12.8119 15.6001C12.8772 15.7326 12.9739 15.8473 13.0934 15.9342C13.213 16.0211 13.3519 16.0776 13.4981 16.0988L16.6462 16.5563C16.8141 16.5811 16.9717 16.6523 17.1012 16.7618C17.2308 16.8713 17.3273 17.0149 17.3797 17.1762C17.4321 17.3376 17.4384 17.5104 17.398 17.6752C17.3575 17.8399 17.2718 17.9901 17.1506 18.1088L14.8725 20.3288C14.7668 20.432 14.6877 20.5592 14.642 20.6996C14.5963 20.8401 14.5853 20.9895 14.61 21.1351L15.1481 24.2701C15.1767 24.4376 15.1578 24.6097 15.0937 24.7671C15.0296 24.9244 14.9228 25.0607 14.7853 25.1606C14.6478 25.2604 14.4852 25.3199 14.3157 25.3321C14.1462 25.3444 13.9767 25.3091 13.8262 25.2301L11.01 23.7507C10.8792 23.6824 10.7338 23.6467 10.5862 23.6467C10.4387 23.6467 10.2933 23.6824 10.1625 23.7507L7.34624 25.2301C7.19579 25.3091 7.02626 25.3444 6.85679 25.3321C6.68732 25.3199 6.52465 25.2604 6.38717 25.1606C6.24968 25.0607 6.14285 24.9244 6.07874 24.7671C6.01463 24.6097 5.9958 24.4376 6.02436 24.2701L6.56249 21.1351C6.58752 20.9895 6.57669 20.84 6.53096 20.6995C6.48522 20.559 6.40594 20.4318 6.29999 20.3288L4.02561 18.1088C3.90439 17.9901 3.81873 17.8399 3.77826 17.6752C3.73779 17.5104 3.74412 17.3376 3.79654 17.1762C3.84897 17.0149 3.9454 16.8713 4.07498 16.7618C4.20456 16.6523 4.36214 16.5811 4.52999 16.5563L7.67811 16.0988C7.82426 16.0773 7.96302 16.0206 8.08253 15.9338C8.20204 15.8469 8.29874 15.7324 8.36436 15.6001L9.77249 12.7482C9.84755 12.596 9.96373 12.4678 10.1079 12.3781C10.252 12.2885 10.4184 12.241 10.5881 12.241C10.7579 12.241 10.9242 12.2885 11.0684 12.3781C11.2125 12.4678 11.3287 12.596 11.4037 12.7482ZM30.8156 5.2482L32.2237 8.10008C32.2891 8.23263 32.3857 8.34729 32.5053 8.43418C32.6248 8.52107 32.7637 8.57757 32.91 8.59882L36.0581 9.05632C36.226 9.08113 36.3835 9.1523 36.5131 9.26182C36.6427 9.37134 36.7391 9.51486 36.7916 9.67622C36.844 9.83759 36.8503 10.0104 36.8098 10.1751C36.7694 10.3399 36.6837 10.4901 36.5625 10.6088L34.2844 12.8288C34.1787 12.932 34.0996 13.0592 34.0539 13.1996C34.0081 13.3401 33.9972 13.4895 34.0219 13.6351L34.56 16.7701C34.5885 16.9376 34.5697 17.1097 34.5056 17.2671C34.4415 17.4244 34.3347 17.5607 34.1972 17.6606C34.0597 17.7604 33.897 17.8199 33.7276 17.8321C33.5581 17.8444 33.3886 17.8091 33.2381 17.7301L30.4219 16.2507C30.2911 16.1824 30.1457 16.1467 29.9981 16.1467C29.8505 16.1467 29.7052 16.1824 29.5744 16.2507L26.7581 17.7301C26.6077 17.8091 26.4381 17.8444 26.2687 17.8321C26.0992 17.8199 25.9365 17.7604 25.799 17.6606C25.6616 17.5607 25.5547 17.4244 25.4906 17.2671C25.4265 17.1097 25.4077 16.9376 25.4362 16.7701L25.9744 13.6351C25.9994 13.4895 25.9886 13.34 25.9428 13.1995C25.8971 13.059 25.8178 12.9318 25.7119 12.8288L23.4375 10.6088C23.3163 10.4901 23.2306 10.3399 23.1901 10.1751C23.1497 10.0104 23.156 9.83759 23.2084 9.67622C23.2608 9.51486 23.3573 9.37134 23.4869 9.26182C23.6164 9.1523 23.774 9.08113 23.9419 9.05632L27.09 8.59882C27.2362 8.57757 27.3751 8.52107 27.4947 8.43418C27.6142 8.34729 27.7109 8.23263 27.7762 8.10008L29.1844 5.2482C29.2594 5.09596 29.3756 4.96776 29.5197 4.87812C29.6639 4.78848 29.8302 4.74097 30 4.74097C30.1697 4.74097 30.3361 4.78848 30.4802 4.87812C30.6244 4.96776 30.7405 5.09596 30.8156 5.2482ZM50.2275 12.7482L51.6356 15.6001C51.701 15.7326 51.7976 15.8473 51.9172 15.9342C52.0367 16.0211 52.1756 16.0776 52.3219 16.0988L55.47 16.5563C55.6378 16.5811 55.7954 16.6523 55.925 16.7618C56.0546 16.8713 56.151 17.0149 56.2034 17.1762C56.2559 17.3376 56.2622 17.5104 56.2217 17.6752C56.1812 17.8399 56.0956 17.9901 55.9744 18.1088L53.6962 20.3288C53.5905 20.432 53.5114 20.5592 53.4657 20.6996C53.42 20.8401 53.409 20.9895 53.4337 21.1351L53.9719 24.2701C54.0004 24.4376 53.9816 24.6097 53.9175 24.7671C53.8534 24.9244 53.7465 25.0607 53.6091 25.1606C53.4716 25.2604 53.3089 25.3199 53.1394 25.3321C52.97 25.3444 52.8004 25.3091 52.65 25.2301L49.8337 23.7507C49.7029 23.6824 49.5576 23.6467 49.41 23.6467C49.2624 23.6467 49.117 23.6824 48.9862 23.7507L46.17 25.2301C46.0195 25.3091 45.85 25.3444 45.6805 25.3321C45.5111 25.3199 45.3484 25.2604 45.2109 25.1606C45.0734 25.0607 44.9666 24.9244 44.9025 24.7671C44.8384 24.6097 44.8195 24.4376 44.8481 24.2701L45.3862 21.1351C45.4113 20.9895 45.4004 20.84 45.3547 20.6995C45.309 20.559 45.2297 20.4318 45.1237 20.3288L42.8456 18.1088C42.7244 17.9901 42.6387 17.8399 42.5983 17.6752C42.5578 17.5104 42.5641 17.3376 42.6165 17.1762C42.669 17.0149 42.7654 16.8713 42.895 16.7618C43.0246 16.6523 43.1821 16.5811 43.35 16.5563L46.4981 16.0988C46.6444 16.0776 46.7833 16.0211 46.9028 15.9342C47.0224 15.8473 47.119 15.7326 47.1844 15.6001L48.5925 12.7482C48.6677 12.5955 48.7841 12.467 48.9286 12.3771C49.073 12.2872 49.2398 12.2395 49.41 12.2395C49.5802 12.2395 49.7469 12.2872 49.8914 12.3771C50.0359 12.467 50.1523 12.5955 50.2275 12.7482Z" fill="#C0C0C0"/>
<path d="M20.6812 34.3313H17.25C15.3937 34.3313 13.875 35.85 13.875 37.7063V51.8813C13.875 53.7563 15.3937 55.2563 17.25 55.2563H20.6812V34.3313ZM45.9375 40.4813L42.825 51.6938C42.5453 52.7175 41.9367 53.6208 41.0931 54.2646C40.2494 54.9083 39.2175 55.2568 38.1562 55.2563H23.4937V34.3313L29.6812 25.575C30.1605 24.9015 30.8619 24.4186 31.6621 24.2113C32.4623 24.004 33.31 24.0857 34.0559 24.4419C34.8019 24.798 35.3983 25.4059 35.7402 26.1585C36.082 26.9111 36.1475 27.7602 35.925 28.5563L34.2938 34.3313H41.2687C44.475 34.3313 46.8 37.3875 45.9375 40.4813Z" fill="#F1F1F1"/>
</svg>
