<svg width="70" height="70" viewBox="0 0 70 70" fill="none" xmlns="http://www.w3.org/2000/svg">
<path d="M48.1249 7.6562C57.7718 7.6562 65.6249 15.5093 65.6249 25.1562C65.6249 29.225 64.203 33.1843 61.6108 36.3125C61.3046 36.6734 61.2718 37.1984 61.5343 37.5921L64.3999 42.1093L57.1155 40.4906C56.864 40.4359 56.5905 40.4687 56.3608 40.589C53.8452 41.9343 51.0015 42.6453 48.1358 42.6453C46.5499 42.6453 45.0187 42.4156 43.564 42.0218C43.6624 42.7765 43.7171 43.5421 43.739 44.3187C45.1608 44.6468 46.6265 44.8328 48.1358 44.8328C51.2202 44.8328 54.2827 44.0999 57.028 42.7109L66.4999 44.8109C66.5765 44.8328 66.653 44.8328 66.7405 44.8328C67.0905 44.8328 67.4296 44.6578 67.6374 44.3624C67.889 44.0015 67.8999 43.5203 67.6702 43.1484L63.8202 37.0671C66.4233 33.6546 67.8452 29.4546 67.8452 25.1453C67.8452 14.2843 59.0187 5.45776 48.1577 5.45776C37.2968 5.45776 29.1374 13.6718 28.5249 23.9859C29.2577 24.2156 29.9687 24.5 30.6687 24.8062C30.8546 15.3125 38.6202 7.64526 48.1468 7.64526L48.1249 7.6562Z" fill="#C0C0C0"/>
<path d="M12.6219 62.2234C15.3781 63.7 18.5281 64.5312 21.875 64.5312C32.7469 64.5312 41.5625 55.7156 41.5625 44.8438C41.5625 33.9719 32.7469 25.1562 21.875 25.1562C11.0031 25.1562 2.1875 33.9719 2.1875 44.8438C2.1875 49.6125 3.88281 53.9875 6.70469 57.3891L2.1875 64.5312L12.6219 62.2234ZM21.875 56.3281C20.6719 56.3281 19.6875 55.3438 19.6875 54.1406C19.6875 52.9375 20.6719 51.9531 21.875 51.9531C23.0781 51.9531 24.0625 52.9375 24.0625 54.1406C24.0625 55.3438 23.0781 56.3281 21.875 56.3281ZM21.875 33.3594C25.1891 33.3594 27.8906 36.0609 27.8906 39.375C27.8906 42.1203 26.0422 44.45 23.5156 45.1609V49.2188H20.2344V43.75C20.2344 42.8422 20.9672 42.1094 21.875 42.1094C22.6002 42.1094 23.2957 41.8213 23.8085 41.3085C24.3213 40.7957 24.6094 40.1002 24.6094 39.375C24.6094 38.6498 24.3213 37.9543 23.8085 37.4415C23.2957 36.9287 22.6002 36.6406 21.875 36.6406C21.1498 36.6406 20.4543 36.9287 19.9415 37.4415C19.4287 37.9543 19.1406 38.6498 19.1406 39.375H15.8594C15.8594 36.0609 18.5609 33.3594 21.875 33.3594Z" fill="#050610"/>
<path d="M56.875 16.9531H39.375V20.2344H56.875V16.9531Z" fill="#F1F1F1"/>
<path d="M56.875 23.5156H39.375V26.7969H56.875V23.5156Z" fill="#F1F1F1"/>
<path d="M56.875 30.0781H43.75V33.3594H56.875V30.0781Z" fill="#F1F1F1"/>
</svg>
