<svg width="61" height="61" viewBox="0 0 61 61" fill="none" xmlns="http://www.w3.org/2000/svg">
<rect width="61" height="61" rx="30.5" fill="#F1F1F1"/>
<path d="M30.5 17.5833C32.8422 17.5833 35.0122 18.1689 37.01 19.34C38.9561 20.4939 40.5061 22.0439 41.66 23.99C42.8311 25.9878 43.4167 28.1578 43.4167 30.5C43.4167 32.8422 42.8311 35.0122 41.66 37.01C40.5061 38.9561 38.9561 40.5061 37.01 41.66C35.0122 42.8311 32.8422 43.4167 30.5 43.4167C28.1578 43.4167 25.9878 42.8311 23.99 41.66C22.0439 40.5061 20.4939 38.9561 19.34 37.01C18.1689 35.0122 17.5833 32.8422 17.5833 30.5C17.5833 28.1578 18.1689 25.9878 19.34 23.99C20.4939 22.0439 22.0439 20.4939 23.99 19.34C25.9878 18.1689 28.1578 17.5833 30.5 17.5833ZM30.5 20.1667C28.6228 20.1667 26.8833 20.6403 25.2817 21.5875C23.7317 22.5003 22.5003 23.7317 21.5875 25.2817C20.6403 26.8833 20.1667 28.6228 20.1667 30.5C20.1667 32.3772 20.6403 34.1167 21.5875 35.7183C22.5003 37.2683 23.7317 38.4997 25.2817 39.4125C26.8833 40.3597 28.6228 40.8333 30.5 40.8333C32.3772 40.8333 34.1167 40.3597 35.7183 39.4125C37.2683 38.4997 38.4997 37.2683 39.4125 35.7183C40.3597 34.1167 40.8333 32.3772 40.8333 30.5C40.8333 28.6228 40.3597 26.8833 39.4125 25.2817C38.4997 23.7317 37.2683 22.5003 35.7183 21.5875C34.1167 20.6403 32.3772 20.1667 30.5 20.1667ZM26.3925 34.8142L25.385 36.5967C25.2817 36.7517 25.1439 36.8808 24.9717 36.9842C24.8167 37.0703 24.6444 37.1133 24.455 37.1133C24.2656 37.1133 24.0847 37.0703 23.9125 36.9842C23.7575 36.8808 23.6283 36.7517 23.525 36.5967C23.4389 36.4244 23.3958 36.2436 23.3958 36.0542C23.3958 35.8647 23.4389 35.6925 23.525 35.5375L24.3 34.22C25.1439 33.9444 25.8414 34.1425 26.3925 34.8142ZM32.0758 26.1858L35.2017 31.6108H37.9658C38.2586 31.6108 38.5083 31.7142 38.715 31.9208C38.9217 32.1275 39.025 32.3772 39.025 32.67C39.025 32.9628 38.9217 33.2125 38.715 33.4192C38.5083 33.6258 38.2586 33.7292 37.9658 33.7292H36.4158L37.4492 35.5117C37.5869 35.77 37.6128 36.0369 37.5267 36.3125C37.4578 36.5881 37.2942 36.8033 37.0358 36.9583C36.7947 37.0961 36.5364 37.1306 36.2608 37.0617C35.9853 36.9928 35.77 36.8378 35.615 36.5967L31.6883 29.7767C31.4128 29.3117 31.2664 28.8122 31.2492 28.2783C31.2319 27.8306 31.3094 27.4086 31.4817 27.0125C31.6367 26.6508 31.8261 26.3753 32.05 26.1858H32.0758ZM32.4117 22.2592C32.67 22.3969 32.8336 22.6122 32.9025 22.905C32.9886 23.1806 32.9542 23.4475 32.7992 23.7058L28.2525 31.585H31.5592C31.9036 31.585 32.1964 31.7056 32.4375 31.9467C32.6786 32.1706 32.825 32.4547 32.8767 32.7992C32.9456 33.1264 32.9025 33.4364 32.7475 33.7292H23.0858C22.7931 33.7292 22.5433 33.6258 22.3367 33.4192C22.13 33.2125 22.0267 32.9628 22.0267 32.67C22.0267 32.3772 22.13 32.1275 22.3367 31.9208C22.5433 31.6969 22.7931 31.585 23.0858 31.585H25.7983L29.26 25.5917L28.2008 23.7058C28.0631 23.4475 28.0286 23.1806 28.0975 22.905C28.1836 22.6294 28.3472 22.4228 28.5883 22.285C28.8467 22.13 29.1136 22.0956 29.3892 22.1817C29.6647 22.2506 29.88 22.4056 30.035 22.6467L30.5 23.4733L30.965 22.6467C31.12 22.3883 31.3353 22.2247 31.6108 22.1558C31.9036 22.0697 32.1706 22.1042 32.4117 22.2592Z" fill="#050610"/>
</svg>
