<svg width="70" height="70" viewBox="0 0 70 70" fill="none" xmlns="http://www.w3.org/2000/svg">
<path d="M59.185 56.218C62.885 56.218 65.895 53.218 65.895 49.518V9.78805C65.895 6.31805 63.075 3.49805 59.605 3.49805H10.395C6.92498 3.49805 4.10498 6.31805 4.10498 9.78805V49.518C4.10498 53.218 7.11498 56.218 10.815 56.218H26.16V60.065H24.36C23.5695 60.0637 22.8109 60.3764 22.251 60.9343C21.691 61.4922 21.3756 62.2496 21.374 63.04V65.282C21.374 65.953 21.922 66.502 22.593 66.502H47.413C48.084 66.502 48.633 65.953 48.633 65.282V63.04C48.6322 62.6486 48.5543 62.2611 48.4038 61.8997C48.2532 61.5384 48.033 61.2102 47.7556 60.9339C47.4783 60.6577 47.1492 60.4387 46.7872 60.2897C46.4252 60.1406 46.0375 60.0643 45.646 60.065H43.839V56.218H59.185ZM35.005 52.968C34.055 52.968 33.285 52.208 33.285 51.258C33.285 50.298 34.055 49.528 35.005 49.528C35.945 49.528 36.715 50.298 36.715 51.258C36.715 52.208 35.945 52.968 35.005 52.968ZM6.10498 46.308V9.78805C6.10498 7.42805 8.03498 5.49805 10.395 5.49805H59.605C61.965 5.49805 63.895 7.42805 63.895 9.78805V46.308H6.10498Z" fill="#050610"/>
<path d="M52.9351 13.3981C51.6851 13.3981 50.6351 14.1781 50.2251 15.2881H37.9651C37.5551 14.1781 36.4951 13.3981 35.2551 13.3981C34.0151 13.3981 32.9651 14.1781 32.5551 15.2881H19.7751C19.5418 14.6515 19.0917 14.1175 18.5038 13.7799C17.9158 13.4423 17.2277 13.3226 16.5604 13.442C15.893 13.5614 15.289 13.9122 14.8546 14.4327C14.4202 14.9532 14.1832 15.6102 14.1851 16.2881C14.1851 17.0519 14.4885 17.7845 15.0286 18.3246C15.5687 18.8647 16.3012 19.1681 17.0651 19.1681C18.3151 19.1681 19.3651 18.3881 19.7751 17.2881H26.9351C21.7051 20.0581 18.0651 25.4481 17.7651 31.7081H17.1251C16.5551 31.7081 16.0851 32.1681 16.0851 32.7481V35.9881C16.0851 36.5581 16.5551 37.0281 17.1251 37.0281H20.3751C20.9451 37.0281 21.4151 36.5581 21.4151 35.9881V32.7481C21.4151 32.1681 20.9451 31.7081 20.3751 31.7081H19.7651C20.1551 24.4781 25.6151 18.5681 32.6251 17.4781C32.9351 18.1381 33.4651 18.6581 34.1351 18.9481C34.1251 18.9681 34.1151 18.9781 34.1051 18.9981L26.7351 33.7381C26.5651 34.0881 26.6051 34.5181 26.8651 34.8181C27.1151 35.1281 27.5251 35.2581 27.9051 35.1481L35.0051 33.1281L42.0951 35.1481C42.5641 35.2531 42.9101 35.1031 43.1351 34.8181C43.3951 34.5181 43.4451 34.0881 43.2651 33.7381L35.9351 19.0781C36.7751 18.8881 37.4751 18.3181 37.8451 17.5581C44.6351 18.8481 49.8451 24.6381 50.2251 31.7081H49.6251C49.0551 31.7081 48.5851 32.1681 48.5851 32.7481V35.9881C48.5851 36.5581 49.0551 37.0281 49.6251 37.0281H52.8751C53.4451 37.0281 53.9151 36.5581 53.9151 35.9881V32.7481C53.9151 32.1681 53.4451 31.7081 52.8751 31.7081H52.2251C51.9251 25.4481 48.2851 20.0581 43.0551 17.2881H50.2251C50.6351 18.3881 51.6851 19.1681 52.9351 19.1681C53.3133 19.1681 53.6878 19.0936 54.0372 18.9489C54.3866 18.8042 54.7041 18.592 54.9715 18.3246C55.239 18.0572 55.4511 17.7397 55.5958 17.3903C55.7406 17.0408 55.8151 16.6663 55.8151 16.2881C55.8151 14.6881 54.5251 13.3981 52.9351 13.3981Z" fill="#C0C0C0"/>
<circle cx="16.9998" cy="16.1863" r="3.18628" fill="#F1F1F1"/>
<circle cx="35.0002" cy="16.1863" r="3.18628" fill="#F1F1F1"/>
<circle cx="53.0007" cy="16.1863" r="3.18628" fill="#F1F1F1"/>
<rect x="48.4907" y="31.6558" width="5.51514" height="5.6123" rx="1" fill="#F1F1F1"/>
<rect x="16.0742" y="31.6558" width="5.51514" height="5.6123" rx="1" fill="#F1F1F1"/>
</svg>
