<svg width="30" height="34" viewBox="0 0 30 34" fill="none" xmlns="http://www.w3.org/2000/svg">
<path d="M30 0.333333V33.6667H26.6667V22H20V10.3333C20 8.53333 20.4556 6.85555 21.3667 5.3C22.2556 3.78889 23.4556 2.58889 24.9667 1.7C26.5222 0.788888 28.2 0.333333 30 0.333333ZM26.6667 4.53333C25.8 5.02222 25.0667 5.71111 24.4667 6.6C23.7111 7.71111 23.3333 8.95555 23.3333 10.3333V18.6667H26.6667V4.53333ZM10 20.1667V33.6667H6.66667V20.1667C5.4 19.9 4.25556 19.3778 3.23333 18.6C2.21111 17.8 1.41111 16.8333 0.833334 15.7C0.277778 14.5444 0 13.3111 0 12V2H3.33333V13.6667H6.66667V2H10V13.6667H13.3333V2H16.6667V12C16.6667 13.3111 16.3778 14.5444 15.8 15.7C15.2444 16.8333 14.4556 17.8 13.4333 18.6C12.4111 19.3778 11.2667 19.9 10 20.1667Z" fill="#050610"/>
</svg>
