<svg width="35" height="30" viewBox="0 0 35 30" fill="none" xmlns="http://www.w3.org/2000/svg">
<path d="M0.833333 1.66667C0.833333 1.2 0.988889 0.81111 1.3 0.5C1.63333 0.166667 2.03333 0 2.5 0H32.5C32.9667 0 33.3556 0.166667 33.6667 0.5C34 0.81111 34.1667 1.2 34.1667 1.66667V10.8333C33.4111 10.8333 32.7111 11.0222 32.0667 11.4C31.4444 11.7778 30.9444 12.2889 30.5667 12.9333C30.1889 13.5556 30 14.2444 30 15C30 15.7556 30.1889 16.4556 30.5667 17.1C30.9444 17.7222 31.4444 18.2222 32.0667 18.6C32.7111 18.9778 33.4111 19.1667 34.1667 19.1667V28.3333C34.1667 28.8 34 29.2 33.6667 29.5333C33.3556 29.8444 32.9667 30 32.5 30H2.5C2.03333 30 1.63333 29.8444 1.3 29.5333C0.988889 29.2 0.833333 28.8 0.833333 28.3333V1.66667ZM10.9667 26.6667C11.1444 26.1556 11.4444 25.7556 11.8667 25.4667C12.3111 25.1556 12.8 25 13.3333 25C13.8667 25 14.3444 25.1556 14.7667 25.4667C15.2111 25.7556 15.5222 26.1556 15.7 26.6667H30.8333V21.7333C29.5667 21.0889 28.5556 20.1667 27.8 18.9667C27.0444 17.7444 26.6667 16.4222 26.6667 15C26.6667 13.5778 27.0444 12.2667 27.8 11.0667C28.5556 9.84444 29.5667 8.91111 30.8333 8.26667V3.33333H15.7C15.5222 3.84444 15.2111 4.25555 14.7667 4.56667C14.3444 4.85556 13.8667 5 13.3333 5C12.8 5 12.3111 4.85556 11.8667 4.56667C11.4444 4.25555 11.1444 3.84444 10.9667 3.33333H4.16667V26.6667H10.9667ZM13.3333 13.3333C12.6444 13.3333 12.0556 13.0889 11.5667 12.6C11.0778 12.1111 10.8333 11.5222 10.8333 10.8333C10.8333 10.1444 11.0778 9.55556 11.5667 9.06667C12.0556 8.57778 12.6444 8.33333 13.3333 8.33333C14.0222 8.33333 14.6111 8.57778 15.1 9.06667C15.5889 9.55556 15.8333 10.1444 15.8333 10.8333C15.8333 11.5222 15.5889 12.1111 15.1 12.6C14.6111 13.0889 14.0222 13.3333 13.3333 13.3333ZM13.3333 21.6667C12.6444 21.6667 12.0556 21.4222 11.5667 20.9333C11.0778 20.4444 10.8333 19.8556 10.8333 19.1667C10.8333 18.4778 11.0778 17.8889 11.5667 17.4C12.0556 16.9111 12.6444 16.6667 13.3333 16.6667C14.0222 16.6667 14.6111 16.9111 15.1 17.4C15.5889 17.8889 15.8333 18.4778 15.8333 19.1667C15.8333 19.8556 15.5889 20.4444 15.1 20.9333C14.6111 21.4222 14.0222 21.6667 13.3333 21.6667Z" fill="#050610"/>
</svg>
