<svg width="34" height="34" viewBox="0 0 34 34" fill="none" xmlns="http://www.w3.org/2000/svg">
<path d="M18.6667 30V33.3333H15.3333V30H2C1.53333 30 1.13333 29.8444 0.8 29.5333C0.488889 29.2 0.333333 28.8 0.333333 28.3333V1.66667C0.333333 1.2 0.488889 0.81111 0.8 0.5C1.13333 0.166667 1.53333 0 2 0H12C12.9556 0 13.8667 0.2 14.7333 0.599999C15.6222 0.977777 16.3778 1.53333 17 2.26667C17.6222 1.53333 18.3667 0.977777 19.2333 0.599999C20.1222 0.2 21.0444 0 22 0H32C32.4667 0 32.8556 0.166667 33.1667 0.5C33.5 0.81111 33.6667 1.2 33.6667 1.66667V28.3333C33.6667 28.8 33.5 29.2 33.1667 29.5333C32.8556 29.8444 32.4667 30 32 30H18.6667ZM30.3333 26.6667V3.33333H22C21.0889 3.33333 20.3 3.66667 19.6333 4.33333C18.9889 4.97778 18.6667 5.75555 18.6667 6.66667V26.6667H30.3333ZM15.3333 26.6667V6.66667C15.3333 5.75555 15 4.97778 14.3333 4.33333C13.6889 3.66667 12.9111 3.33333 12 3.33333H3.66667V26.6667H15.3333Z" fill="#050610"/>
</svg>
