<svg width="31" height="36" viewBox="0 0 31 36" fill="none" xmlns="http://www.w3.org/2000/svg">
<path d="M7.16667 12.3333V9C7.16667 7.48889 7.53333 6.1 8.26667 4.83333C9.02222 3.54444 10.0333 2.53333 11.3 1.8C12.5889 1.04444 13.9889 0.666665 15.5 0.666665C17.0111 0.666665 18.4 1.04444 19.6667 1.8C20.9556 2.53333 21.9667 3.54444 22.7 4.83333C23.4556 6.1 23.8333 7.48889 23.8333 9V12.3333H28.8333C29.3 12.3333 29.6889 12.5 30 12.8333C30.3333 13.1444 30.5 13.5333 30.5 14V34C30.5 34.4667 30.3333 34.8667 30 35.2C29.6889 35.5111 29.3 35.6667 28.8333 35.6667H2.16667C1.7 35.6667 1.3 35.5111 0.966667 35.2C0.655556 34.8667 0.5 34.4667 0.5 34V14C0.5 13.5333 0.655556 13.1444 0.966667 12.8333C1.3 12.5 1.7 12.3333 2.16667 12.3333H7.16667ZM7.16667 15.6667H3.83333V32.3333H27.1667V15.6667H23.8333V19H20.5V15.6667H10.5V19H7.16667V15.6667ZM10.5 12.3333H20.5V9C20.5 8.08889 20.2778 7.25555 19.8333 6.5C19.3889 5.72222 18.7778 5.11111 18 4.66667C17.2444 4.22222 16.4111 4 15.5 4C14.5889 4 13.7444 4.22222 12.9667 4.66667C12.2111 5.11111 11.6111 5.72222 11.1667 6.5C10.7222 7.25555 10.5 8.08889 10.5 9V12.3333Z" fill="#050610"/>
</svg>
