<svg width="37" height="34" viewBox="0 0 37 34" fill="none" xmlns="http://www.w3.org/2000/svg">
<path d="M11.8333 30.3333V20.3333H25.1667V30.3333H30.1667V3.66667H6.83333V30.3333H11.8333ZM15.1667 30.3333H21.8333V23.6667H15.1667V30.3333ZM33.5 30.3333H36.8333V33.6667H0.166667V30.3333H3.5V2C3.5 1.53333 3.65556 1.14444 3.96667 0.833332C4.3 0.499999 4.7 0.333333 5.16667 0.333333H31.8333C32.3 0.333333 32.6889 0.499999 33 0.833332C33.3333 1.14444 33.5 1.53333 33.5 2V30.3333ZM16.8333 10.3333V7H20.1667V10.3333H23.5V13.6667H20.1667V17H16.8333V13.6667H13.5V10.3333H16.8333Z" fill="white"/>
</svg>
