<svg width="28" height="34" viewBox="0 0 28 34" fill="none" xmlns="http://www.w3.org/2000/svg">
<path d="M2.33333 30.3333H25.6667V33.6667H2.33333V30.3333ZM14 27C11.5778 27 9.33333 26.3889 7.26667 25.1667C5.26667 23.9889 3.67778 22.4 2.5 20.4C1.27778 18.3333 0.666667 16.0889 0.666667 13.6667C0.666667 11.2444 1.27778 9 2.5 6.93333C3.67778 4.93333 5.26667 3.34444 7.26667 2.16667C9.33333 0.944444 11.5778 0.333333 14 0.333333C16.4222 0.333333 18.6667 0.944444 20.7333 2.16667C22.7333 3.34444 24.3222 4.93333 25.5 6.93333C26.7222 9 27.3333 11.2444 27.3333 13.6667C27.3333 16.0889 26.7222 18.3333 25.5 20.4C24.3222 22.4 22.7333 23.9889 20.7333 25.1667C18.6667 26.3889 16.4222 27 14 27ZM14 23.6667C15.8 23.6667 17.4778 23.2111 19.0333 22.3C20.5444 21.4111 21.7444 20.2111 22.6333 18.7C23.5444 17.1444 24 15.4667 24 13.6667C24 11.8667 23.5444 10.1889 22.6333 8.63333C21.7444 7.12222 20.5444 5.92222 19.0333 5.03333C17.4778 4.12222 15.8 3.66667 14 3.66667C12.2 3.66667 10.5222 4.12222 8.96667 5.03333C7.45556 5.92222 6.25556 7.12222 5.36667 8.63333C4.45556 10.1889 4 11.8667 4 13.6667C4 15.4667 4.45556 17.1444 5.36667 18.7C6.25556 20.2111 7.45556 21.4111 8.96667 22.3C10.5222 23.2111 12.2 23.6667 14 23.6667Z" fill="#050610"/>
</svg>
