<svg width="37" height="34" viewBox="0 0 37 34" fill="none" xmlns="http://www.w3.org/2000/svg">
<path d="M3.5 30.6667V8.5C3.5 8.14444 3.6 7.82222 3.8 7.53333C4 7.24444 4.26667 7.04444 4.6 6.93333L20.7 1.06666C20.9889 0.977776 21.2444 1.02222 21.4667 1.2C21.7111 1.35555 21.8333 1.57778 21.8333 1.86667V10.1L32.3667 13.6333C32.7 13.7444 32.9667 13.9444 33.1667 14.2333C33.3889 14.5222 33.5 14.8444 33.5 15.2V30.6667H36.8333V34H0.166667V30.6667H3.5ZM6.83333 30.6667H18.5V5.43333L6.83333 9.66667V30.6667ZM30.1667 30.6667V16.4L21.8333 13.6333V30.6667H30.1667Z" fill="#050610"/>
</svg>
