<svg width="37" height="30" viewBox="0 0 37 30" fill="none" xmlns="http://www.w3.org/2000/svg">
<path d="M33.5 26.6667H36.8333V30H0.166667V26.6667H3.5V1.66667C3.5 1.2 3.65556 0.81111 3.96667 0.5C4.3 0.166667 4.7 0 5.16667 0H21.8333C22.3 0 22.6889 0.166667 23 0.5C23.3333 0.81111 23.5 1.2 23.5 1.66667V26.6667H30.1667V13.3333H26.8333V10H31.8333C32.3 10 32.6889 10.1667 33 10.5C33.3333 10.8111 33.5 11.2 33.5 11.6667V26.6667ZM6.83333 3.33333V26.6667H20.1667V3.33333H6.83333ZM10.1667 13.3333H16.8333V16.6667H10.1667V13.3333ZM10.1667 6.66667H16.8333V10H10.1667V6.66667Z" fill="#050610"/>
</svg>
