<svg width="34" height="36" viewBox="0 0 34 36" fill="none" xmlns="http://www.w3.org/2000/svg">
<path d="M3.66667 9.23333V30.6L12.1 27L22.1 32L30.3333 28.4667V7.1L32.5 6.16667C32.7889 6.05555 33.0556 6.07778 33.3 6.23333C33.5444 6.38889 33.6667 6.62222 33.6667 6.93333V30.6667L22 35.6667L12 30.6667L1.5 35.1667C1.21111 35.2778 0.944444 35.2556 0.7 35.1C0.455556 34.9444 0.333333 34.7111 0.333333 34.4V10.6667L3.66667 9.23333ZM24.0667 17.7333L17 24.8L9.93333 17.7333C8.64444 16.4667 7.77778 14.9556 7.33333 13.2C6.88889 11.5111 6.88889 9.82222 7.33333 8.13333C7.77778 6.4 8.63333 4.88889 9.9 3.6C11.1889 2.31111 12.7111 1.44444 14.4667 0.999998C16.1556 0.555554 17.8444 0.555554 19.5333 0.999998C21.2889 1.44444 22.8 2.31111 24.0667 3.6C25.3556 4.88889 26.2222 6.4 26.6667 8.13333C27.1111 9.82222 27.1111 11.5111 26.6667 13.2C26.2222 14.9556 25.3556 16.4667 24.0667 17.7333ZM17 20.1L21.7 15.3667C22.6556 14.4333 23.2667 13.3 23.5333 11.9667C23.8 10.6333 23.6778 9.34444 23.1667 8.1C22.6556 6.85556 21.8333 5.86667 20.7 5.13333C19.5889 4.37778 18.3556 4 17 4C15.6444 4 14.4 4.37778 13.2667 5.13333C12.1556 5.86667 11.3444 6.85556 10.8333 8.1C10.3222 9.34444 10.2 10.6333 10.4667 11.9667C10.7333 13.3 11.3444 14.4333 12.3 15.3667L17 20.1Z" fill="#050610"/>
</svg>
