<svg width="38" height="28" viewBox="0 0 38 28" fill="none" xmlns="http://www.w3.org/2000/svg">
<path d="M27.3333 9.33333L36.0333 3.23333C36.1444 3.14444 36.2778 3.1 36.4333 3.1C36.5889 3.1 36.7333 3.13333 36.8667 3.2C37.0222 3.26666 37.1333 3.36666 37.2 3.5C37.2889 3.63333 37.3333 3.77778 37.3333 3.93333V24.0667C37.3333 24.2222 37.2889 24.3667 37.2 24.5C37.1333 24.6333 37.0222 24.7333 36.8667 24.8C36.7333 24.8667 36.5889 24.9 36.4333 24.9C36.2778 24.9 36.1444 24.8556 36.0333 24.7667L27.3333 18.6667V25.6667C27.3333 26.1333 27.1667 26.5333 26.8333 26.8667C26.5222 27.1778 26.1333 27.3333 25.6667 27.3333H2.33333C1.86667 27.3333 1.46667 27.1778 1.13333 26.8667C0.822222 26.5333 0.666667 26.1333 0.666667 25.6667V2.33333C0.666667 1.86667 0.822222 1.47778 1.13333 1.16667C1.46667 0.833332 1.86667 0.666665 2.33333 0.666665H25.6667C26.1333 0.666665 26.5222 0.833332 26.8333 1.16667C27.1667 1.47778 27.3333 1.86667 27.3333 2.33333V9.33333ZM27.3333 14.6L34 19.2667V8.73333L27.3333 13.4V14.6ZM4 4V24H24V4H4ZM7.33333 7.33333H10.6667V10.6667H7.33333V7.33333Z" fill="#050610"/>
</svg>
