<svg width="34" height="34" viewBox="0 0 34 34" fill="none" xmlns="http://www.w3.org/2000/svg">
<path d="M0.333333 30.3333H33.6667V33.6667H0.333333V30.3333ZM3.66667 17H7V28.6667H3.66667V17ZM12 17H15.3333V28.6667H12V17ZM18.6667 17H22V28.6667H18.6667V17ZM27 17H30.3333V28.6667H27V17ZM0.333333 8.66667L17 0.333333L33.6667 8.66667V15.3333H0.333333V8.66667ZM3.66667 10.7333V12H30.3333V10.7333L17 4.06666L3.66667 10.7333ZM17 10.3333C16.5333 10.3333 16.1333 10.1778 15.8 9.86667C15.4889 9.53333 15.3333 9.13333 15.3333 8.66667C15.3333 8.2 15.4889 7.81111 15.8 7.5C16.1333 7.16667 16.5333 7 17 7C17.4667 7 17.8556 7.16667 18.1667 7.5C18.5 7.81111 18.6667 8.2 18.6667 8.66667C18.6667 9.13333 18.5 9.53333 18.1667 9.86667C17.8556 10.1778 17.4667 10.3333 17 10.3333Z" fill="#050610"/>
</svg>
