<svg width="35" height="34" viewBox="0 0 35 34" fill="none" xmlns="http://www.w3.org/2000/svg">
<path d="M0 0.333333H26.6667C27.6 0.333333 28.3889 0.655554 29.0333 1.3C29.6778 1.94444 30 2.73333 30 3.66667V30.3333C30 31.2667 29.6778 32.0556 29.0333 32.7C28.3889 33.3444 27.6 33.6667 26.6667 33.6667H0V0.333333ZM6.66667 3.66667H3.33333V30.3333H6.66667V3.66667ZM10 30.3333H26.6667V3.66667H10V30.3333ZM13.3333 23.6667C13.3333 22.7556 13.5556 21.9222 14 21.1667C14.4444 20.3889 15.0444 19.7778 15.8 19.3333C16.5778 18.8889 17.4222 18.6667 18.3333 18.6667C19.2444 18.6667 20.0778 18.8889 20.8333 19.3333C21.6111 19.7778 22.2222 20.3889 22.6667 21.1667C23.1111 21.9222 23.3333 22.7556 23.3333 23.6667H13.3333ZM18.3333 17C17.4222 17 16.6333 16.6778 15.9667 16.0333C15.3222 15.3667 15 14.5778 15 13.6667C15 12.7556 15.3222 11.9778 15.9667 11.3333C16.6333 10.6667 17.4222 10.3333 18.3333 10.3333C19.2444 10.3333 20.0222 10.6667 20.6667 11.3333C21.3333 11.9778 21.6667 12.7556 21.6667 13.6667C21.6667 14.5778 21.3333 15.3667 20.6667 16.0333C20.0222 16.6778 19.2444 17 18.3333 17ZM31.6667 7H35V13.6667H31.6667V7ZM31.6667 17H35V23.6667H31.6667V17Z" fill="#050610"/>
</svg>
