<svg width="35" height="32" viewBox="0 0 35 32" fill="none" xmlns="http://www.w3.org/2000/svg">
<path d="M34.1667 13.3333V30C34.1667 30.4667 34 30.8667 33.6667 31.2C33.3556 31.5111 32.9667 31.6667 32.5 31.6667H30.8333C30.3667 31.6667 29.9667 31.5111 29.6333 31.2C29.3222 30.8667 29.1667 30.4667 29.1667 30V28.3333H5.83333V30C5.83333 30.4667 5.66667 30.8667 5.33333 31.2C5.02222 31.5111 4.63333 31.6667 4.16667 31.6667H2.5C2.03333 31.6667 1.63333 31.5111 1.3 31.2C0.988889 30.8667 0.833333 30.4667 0.833333 30V13.3333L4.9 5.16667C5.18889 4.61111 5.6 4.16667 6.13333 3.83333C6.66667 3.5 7.25556 3.33333 7.9 3.33333H12.5V0H22.5V3.33333H27.1C27.7444 3.33333 28.3333 3.5 28.8667 3.83333C29.4 4.16667 29.8111 4.61111 30.1 5.16667L34.1667 13.3333ZM30.8333 16.6667H4.16667V25H30.8333V16.6667ZM4.56667 13.3333H30.4333L27.1 6.66667H7.9L4.56667 13.3333ZM8.33333 23.3333C7.64444 23.3333 7.05556 23.0889 6.56667 22.6C6.07778 22.1111 5.83333 21.5222 5.83333 20.8333C5.83333 20.1444 6.07778 19.5556 6.56667 19.0667C7.05556 18.5778 7.64444 18.3333 8.33333 18.3333C9.02222 18.3333 9.61111 18.5778 10.1 19.0667C10.5889 19.5556 10.8333 20.1444 10.8333 20.8333C10.8333 21.5222 10.5889 22.1111 10.1 22.6C9.61111 23.0889 9.02222 23.3333 8.33333 23.3333ZM26.6667 23.3333C25.9778 23.3333 25.3889 23.0889 24.9 22.6C24.4111 22.1111 24.1667 21.5222 24.1667 20.8333C24.1667 20.1444 24.4111 19.5556 24.9 19.0667C25.3889 18.5778 25.9778 18.3333 26.6667 18.3333C27.3556 18.3333 27.9444 18.5778 28.4333 19.0667C28.9222 19.5556 29.1667 20.1444 29.1667 20.8333C29.1667 21.5222 28.9222 22.1111 28.4333 22.6C27.9444 23.0889 27.3556 23.3333 26.6667 23.3333Z" fill="#050610"/>
</svg>
