<svg width="21" height="21" viewBox="0 0 21 21" fill="none" xmlns="http://www.w3.org/2000/svg">
<path d="M7.875 19.25H13.125C17.5 19.25 19.25 17.5 19.25 13.125V7.875C19.25 3.5 17.5 1.75 13.125 1.75H7.875C3.5 1.75 1.75 3.5 1.75 7.875V13.125C1.75 17.5 3.5 19.25 7.875 19.25Z" stroke="#E7EEFF" stroke-width="1.5" stroke-linecap="round" stroke-linejoin="round"/>
<path d="M10.5 13.5625C12.1914 13.5625 13.5625 12.1914 13.5625 10.5C13.5625 8.80863 12.1914 7.4375 10.5 7.4375C8.80863 7.4375 7.4375 8.80863 7.4375 10.5C7.4375 12.1914 8.80863 13.5625 10.5 13.5625Z" stroke="#E7EEFF" stroke-width="1.5" stroke-linecap="round" stroke-linejoin="round"/>
<path d="M15.4316 6.125H15.4417" stroke="#E7EEFF" stroke-width="2" stroke-linecap="round" stroke-linejoin="round"/>
</svg>
