<svg width="70" height="70" viewBox="0 0 70 70" fill="none" xmlns="http://www.w3.org/2000/svg">
<g clip-path="url(#clip0_32_7824)">
<path fill-rule="evenodd" clip-rule="evenodd" d="M31.9333 26.9392L41.6624 27.441L46.9616 35.6154C47.0609 35.7684 47.1968 35.8942 47.357 35.9814C47.5173 36.0685 47.6967 36.1142 47.8791 36.1144C47.9689 36.1143 48.0583 36.1032 48.1455 36.0816C48.3668 36.0257 48.5651 35.9021 48.7129 35.7281C48.8606 35.5541 48.9504 35.3383 48.9696 35.1109L50.7428 13.6896C50.76 13.4831 50.7181 13.2758 50.622 13.0922C50.5259 12.9085 50.3796 12.7559 50.2001 12.6521C50.0206 12.5484 49.8153 12.4978 49.6082 12.5063C49.4011 12.5148 49.2006 12.5819 49.0302 12.6999L31.3661 24.9471C31.1788 25.0774 31.037 25.263 30.9603 25.4779C30.8837 25.6928 30.8761 25.9263 30.9386 26.1458C31.0011 26.3652 31.1306 26.5596 31.309 26.7019C31.4874 26.8441 31.7058 26.9271 31.9336 26.9392H31.9333ZM17.213 42.7533C16.5536 42.7535 15.9091 42.9493 15.3609 43.3158C14.8128 43.6823 14.3856 44.2031 14.1335 44.8124C13.8813 45.4216 13.8155 46.092 13.9443 46.7386C14.0731 47.3853 14.3908 47.9793 14.8571 48.4454C15.3235 48.9116 15.9176 49.229 16.5644 49.3575C17.2111 49.4859 17.8814 49.4198 18.4906 49.1673C19.0997 48.9149 19.6203 48.4874 19.9866 47.9391C20.3528 47.3908 20.5482 46.7462 20.5481 46.0868C20.547 45.2028 20.1952 44.3553 19.5699 43.7303C18.9447 43.1054 18.097 42.754 17.213 42.7533ZM23.2635 40.9953C23.3674 41.0963 23.4503 41.217 23.5072 41.3503C23.5641 41.4837 23.594 41.627 23.595 41.772C23.596 41.9169 23.5682 42.0607 23.5132 42.1948C23.4582 42.3289 23.377 42.4508 23.2745 42.5533C23.172 42.6558 23.0501 42.7369 22.9159 42.7918C22.7818 42.8468 22.638 42.8745 22.493 42.8734C22.3481 42.8723 22.2048 42.8424 22.0714 42.7855C21.9381 42.7285 21.8175 42.6456 21.7165 42.5415C20.5222 41.3475 18.9025 40.6767 17.2137 40.6767C15.5248 40.6767 13.9051 41.3475 12.7108 42.5415C12.5058 42.7468 12.2276 42.8621 11.9375 42.8622C11.6474 42.8623 11.3691 42.7472 11.1639 42.5422C10.9587 42.3371 10.8434 42.0589 10.8432 41.7688C10.8431 41.4787 10.9583 41.2005 11.1633 40.9953C12.7679 39.3908 14.944 38.4895 17.2131 38.4895C19.4822 38.4895 21.6584 39.3908 23.2629 40.9953H23.2635ZM26.2774 37.9805C23.8715 35.58 20.6116 34.2318 17.213 34.2318C13.8143 34.2318 10.5544 35.58 8.14852 37.9805C8.04268 38.081 7.95805 38.2017 7.8996 38.3355C7.84115 38.4693 7.81008 38.6134 7.80821 38.7594C7.80634 38.9054 7.83371 39.0503 7.88872 39.1855C7.94372 39.3207 8.02524 39.4436 8.12847 39.5468C8.2317 39.65 8.35455 39.7316 8.48979 39.7866C8.62502 39.8416 8.76989 39.8689 8.91587 39.8671C9.06185 39.8652 9.20598 39.8341 9.33976 39.7757C9.47353 39.7172 9.59426 39.6326 9.69481 39.5268C11.6903 37.5359 14.3941 36.4179 17.2128 36.4179C20.0316 36.4179 22.7353 37.5359 24.7309 39.5268C24.8316 39.632 24.9523 39.716 25.0859 39.774C25.2195 39.8319 25.3634 39.8626 25.509 39.8642C25.6546 39.8658 25.7991 39.8383 25.934 39.7833C26.0689 39.7284 26.1914 39.647 26.2944 39.544C26.3974 39.441 26.4788 39.3185 26.5338 39.1837C26.5888 39.0488 26.6163 38.9043 26.6148 38.7587C26.6132 38.613 26.5825 38.4692 26.5246 38.3355C26.4667 38.2019 26.3826 38.0812 26.2774 37.9805ZM29.2921 36.5121C29.087 36.7171 28.8089 36.8322 28.5189 36.8322C28.229 36.8322 27.9509 36.7171 27.7458 36.5121C24.9522 33.7187 21.1635 32.1494 17.2129 32.1494C13.2623 32.1494 9.47358 33.7187 6.68003 36.5121C6.57842 36.6136 6.4578 36.6942 6.32507 36.7491C6.19234 36.804 6.05009 36.8322 5.90645 36.8322C5.7628 36.8321 5.62058 36.8038 5.48789 36.7487C5.3552 36.6937 5.23465 36.6131 5.13312 36.5115C5.03159 36.4099 4.95107 36.2893 4.89615 36.1565C4.84124 36.0238 4.813 35.8816 4.81306 35.7379C4.81311 35.5943 4.84146 35.452 4.89649 35.3194C4.95151 35.1867 5.03213 35.0661 5.13374 34.9646C8.33759 31.7615 12.6825 29.9621 17.2128 29.9621C21.7432 29.9621 26.0881 31.7615 29.2919 34.9646C29.3936 35.0662 29.4743 35.1868 29.5293 35.3196C29.5843 35.4523 29.6127 35.5946 29.6127 35.7383C29.6127 35.8821 29.5843 36.0244 29.5293 36.1571C29.4743 36.2899 29.3936 36.4105 29.2919 36.5121H29.2921ZM63.6805 57.9374C60.7085 57.0146 56.8383 56.3257 52.3891 55.918C53.4091 54.7956 54.4647 53.5775 55.5229 52.2706C58.9391 48.0527 61.663 43.8035 63.6207 39.639C66.0897 34.3878 67.3419 29.2538 67.3419 24.38C67.3419 11.0128 56.4663 0.136719 43.0992 0.136719C37.0363 0.136989 31.1935 2.40877 26.7229 6.50413C22.2523 10.5995 19.4783 16.2212 18.9478 22.2608C16.0852 21.9641 13.1943 22.4018 10.5478 23.5325C7.90137 24.6632 5.58669 26.4497 3.82227 28.7232C2.05785 30.9968 0.901897 33.6825 0.463515 36.5268C0.0251332 39.3711 0.318785 42.2802 1.31675 44.9795C2.31472 47.6789 3.98408 50.0793 6.16728 51.9544C8.35047 53.8295 10.9755 55.1173 13.7945 55.6964C16.6136 56.2754 19.5337 56.1265 22.2792 55.2637C25.0247 54.4009 27.5051 52.8528 29.4862 50.7653C30.9354 52.649 32.4034 54.3758 33.8065 55.918C29.3585 56.3257 25.4883 57.0146 22.5175 57.9374C18.5074 59.1802 16.4762 60.7785 16.4762 62.6842C16.4762 64.9305 19.2747 66.7365 24.7925 68.0518C29.6954 69.2196 36.1962 69.8633 43.0992 69.8633C50.0021 69.8633 56.5017 69.2195 61.4043 68.0516C66.924 66.7364 69.7225 64.9303 69.7225 62.684C69.7225 60.7785 67.6895 59.1802 63.6805 57.9374ZM17.213 53.8549C14.2961 53.8549 11.4448 52.9899 9.01955 51.3694C6.59429 49.7488 4.70405 47.4455 3.58784 44.7507C2.47163 42.0559 2.17959 39.0906 2.74865 36.2298C3.31772 33.369 4.72233 30.7412 6.78486 28.6787C8.84739 26.6162 11.4752 25.2116 14.336 24.6425C17.1968 24.0735 20.1621 24.3656 22.8569 25.4818C25.5517 26.598 27.855 28.4883 29.4755 30.9136C31.096 33.3388 31.961 36.1902 31.961 39.107C31.9566 43.0171 30.4014 46.7657 27.6365 49.5305C24.8717 52.2954 21.123 53.8505 17.213 53.8549ZM26.5522 24.9869C26.5451 24.7871 26.5413 24.5861 26.5413 24.3867C26.5421 20.7082 27.7682 17.1348 30.0258 14.2306C32.2835 11.3264 35.4441 9.25691 39.0088 8.34885C42.5734 7.4408 46.339 7.7459 49.7109 9.21599C53.0829 10.6861 55.8691 13.2374 57.6298 16.4672C59.3904 19.6969 60.0252 23.4211 59.4338 27.0518C58.8424 30.6824 57.0586 34.0126 54.364 36.5167C51.6694 39.0208 48.2175 40.556 44.5533 40.88C40.8891 41.204 37.2214 40.2984 34.1292 38.306C34.0019 35.6466 33.2494 33.0548 31.933 30.7406C30.6165 28.4265 28.7731 26.4552 26.5522 24.9869ZM60.8975 65.9232C56.1555 67.0538 49.8349 67.6758 43.0992 67.6758C36.3634 67.6758 30.0414 67.0538 25.2993 65.9232C20.0493 64.6722 18.6634 63.2585 18.6634 62.6842C18.6634 62.2482 19.6043 61.1311 23.1656 60.0265C26.3182 59.0475 30.7604 58.3163 35.7191 57.9551C39.3875 61.7408 42.235 64.0023 42.4208 64.1499C42.6138 64.3023 42.8526 64.3852 43.0985 64.3852C43.3444 64.3852 43.5832 64.3023 43.7762 64.1499C43.9445 64.0175 46.7933 61.756 50.4765 57.9551C55.4365 58.3163 59.88 59.0475 63.0325 60.0265C66.5946 61.1311 67.5348 62.2482 67.5348 62.6842C67.5348 63.2585 66.1471 64.6722 60.8975 65.9232Z" fill="black"/>
</g>
<defs>
<clipPath id="clip0_32_7824">
<rect width="70" height="70" fill="white"/>
</clipPath>
</defs>
</svg>
