<svg width="183" height="54" viewBox="0 0 183 54" fill="none" xmlns="http://www.w3.org/2000/svg">
<path d="M154.407 30.7966L135.256 53.9999L151.742 30.7966L144.922 18.809H155.808L158.472 23.713L166.603 16.584L157.705 26.6645L154.407 20.8523H148.535L154.407 30.7966Z" fill="black"/>
<path d="M156.475 34.3719L147.643 44.5925L155.729 37.3315L158.437 42.3037H169.35L162.559 30.2284L178.81 7.26172L159.851 30.2284L165.699 40.3306H159.851L156.475 34.3719Z" fill="black"/>
<rect x="0.300781" y="7" width="33.6991" height="33.8776" rx="3.48345" fill="black"/>
<path d="M10.8885 18.6279C10.8487 18.6279 10.8102 18.6141 10.7795 18.5887C10.7487 18.5634 10.7276 18.5281 10.7198 18.489C10.4244 17.0285 10.6322 15.5105 11.3091 14.1845C11.3299 14.1435 11.3661 14.1125 11.4097 14.0983C11.4533 14.0841 11.5007 14.0879 11.5415 14.1089C11.5823 14.1298 11.6132 14.1662 11.6273 14.21C11.6414 14.2539 11.6377 14.3015 11.6168 14.3425C10.9756 15.5987 10.7787 17.0367 11.0586 18.4203C11.0631 18.4426 11.0632 18.4656 11.0588 18.488C11.0544 18.5103 11.0458 18.5316 11.0332 18.5505C11.0207 18.5695 11.0045 18.5858 10.9857 18.5985C10.9669 18.6112 10.9458 18.62 10.9236 18.6245C10.912 18.6269 10.9003 18.628 10.8885 18.6279Z" fill="white"/>
<path d="M11.9909 13.5741C11.959 13.5742 11.9278 13.5654 11.9006 13.5486C11.8735 13.5319 11.8515 13.5079 11.8371 13.4794C11.8226 13.4509 11.8163 13.4189 11.8189 13.3869C11.8215 13.355 11.8328 13.3245 11.8516 13.2986C12.7605 12.0474 14.0787 11.158 15.5748 10.7863C17.0709 10.4146 18.6495 10.5845 20.0335 11.266C20.0546 11.2756 20.0735 11.2893 20.0892 11.3064C20.1049 11.3235 20.117 11.3435 20.1249 11.3654C20.1327 11.3873 20.1361 11.4105 20.1348 11.4337C20.1335 11.457 20.1276 11.4797 20.1174 11.5005C20.1072 11.5214 20.093 11.54 20.0755 11.5552C20.058 11.5704 20.0376 11.582 20.0156 11.5891C19.9936 11.5963 19.9704 11.5989 19.9474 11.5969C19.9243 11.5948 19.9019 11.5881 19.8815 11.5772C18.5703 10.9317 17.0748 10.7708 15.6574 11.123C14.2401 11.4751 12.9913 12.3178 12.1301 13.503C12.1142 13.5251 12.0932 13.5431 12.069 13.5554C12.0448 13.5678 12.018 13.5742 11.9909 13.5741Z" fill="white"/>
<path d="M23.4068 16.0927C23.367 16.0926 23.3284 16.0787 23.2977 16.0533C23.2669 16.028 23.2458 15.9927 23.2379 15.9535C22.9257 14.3829 22.0228 12.9939 20.7172 12.0759C20.6818 12.0487 20.6582 12.0088 20.6514 11.9645C20.6446 11.9203 20.6551 11.8751 20.6807 11.8384C20.7063 11.8018 20.7451 11.7765 20.7888 11.7679C20.8325 11.7593 20.8779 11.768 20.9153 11.7923C22.2931 12.7612 23.246 14.2271 23.5754 15.8846C23.5844 15.9297 23.5752 15.9765 23.5499 16.0148C23.5246 16.0531 23.4852 16.0797 23.4404 16.0888C23.4294 16.0912 23.4181 16.0924 23.4068 16.0927Z" fill="white"/>
<path d="M23.5367 17.4894H23.5333C23.4876 17.4885 23.4441 17.4694 23.4124 17.4363C23.3807 17.4032 23.3634 17.3588 23.3642 17.3128C23.3727 16.856 23.3316 16.3996 23.2417 15.9518C23.2326 15.9067 23.2418 15.8599 23.267 15.8216C23.2923 15.7833 23.3317 15.7567 23.3765 15.7476C23.4213 15.7385 23.4679 15.7476 23.506 15.7731C23.5441 15.7985 23.5706 15.8381 23.5797 15.8831C23.6745 16.3557 23.7179 16.8373 23.709 17.3193C23.7082 17.3647 23.6897 17.4079 23.6575 17.4397C23.6252 17.4716 23.5819 17.4894 23.5367 17.4894Z" fill="white"/>
<path d="M10.9527 18.9028C10.9143 18.9027 10.8769 18.8897 10.8466 18.8658C10.8164 18.8419 10.7949 18.8085 10.7857 18.7709C10.7625 18.6759 10.7414 18.5812 10.7231 18.4899C10.7187 18.4676 10.7186 18.4446 10.7229 18.4223C10.7273 18.3999 10.7359 18.3787 10.7484 18.3597C10.7609 18.3407 10.777 18.3244 10.7957 18.3117C10.8144 18.299 10.8355 18.2902 10.8576 18.2857C10.8798 18.2812 10.9026 18.2811 10.9247 18.2855C10.9469 18.2898 10.968 18.2985 10.9868 18.3111C11.0056 18.3237 11.0218 18.3399 11.0344 18.3588C11.047 18.3777 11.0558 18.3989 11.0603 18.4212C11.0777 18.5079 11.0976 18.5977 11.1206 18.688C11.1268 18.7135 11.1272 18.7402 11.1217 18.7658C11.1162 18.7915 11.105 18.8156 11.0889 18.8363C11.0728 18.857 11.0522 18.8737 11.0288 18.8853C11.0053 18.8968 10.9796 18.9027 10.9535 18.9028H10.9527Z" fill="white"/>
<path d="M15.4992 23.5619C15.4659 23.562 15.4333 23.5524 15.4053 23.5343C15.3773 23.5162 15.3551 23.4903 15.3414 23.4598C15.3277 23.4292 15.3231 23.3954 15.3282 23.3623C15.3332 23.3292 15.3477 23.2983 15.3698 23.2733C16.0706 22.4699 16.5825 21.5183 16.8677 20.4891C17.1625 19.4235 17.2011 18.3028 16.9804 17.2192C16.9713 17.1742 16.9805 17.1274 17.0058 17.0891C17.0311 17.0508 17.0705 17.0242 17.1153 17.0151C17.1601 17.0061 17.2067 17.0152 17.2448 17.0407C17.2828 17.0661 17.3093 17.1057 17.3183 17.1508C17.55 18.2876 17.5095 19.4635 17.2 20.5814C16.9007 21.6612 16.3634 22.6595 15.6282 23.5022C15.6121 23.5208 15.5923 23.5358 15.5701 23.5461C15.5478 23.5564 15.5237 23.5618 15.4992 23.5619Z" fill="white"/>
<path d="M14.6746 23.2779C14.6407 23.2779 14.6075 23.2679 14.5792 23.2491C14.5508 23.2303 14.5287 23.2034 14.5155 23.172C14.5023 23.1405 14.4986 23.1059 14.505 23.0723C14.5113 23.0388 14.5274 23.0079 14.5511 22.9835C15.1368 22.3813 15.5953 21.6663 15.8991 20.8814C15.9167 20.8401 15.9497 20.8072 15.991 20.7898C16.0323 20.7725 16.0786 20.7719 16.1203 20.7882C16.162 20.8046 16.1958 20.8366 16.2144 20.8775C16.2331 20.9184 16.2352 20.965 16.2203 21.0074C15.8997 21.8356 15.4159 22.5901 14.798 23.2256C14.782 23.2422 14.7628 23.2553 14.7416 23.2643C14.7204 23.2733 14.6976 23.2779 14.6746 23.2779Z" fill="white"/>
<path d="M16.3931 23.7363C16.3611 23.736 16.3297 23.7267 16.3026 23.7094C16.2754 23.6922 16.2536 23.6677 16.2396 23.6387C16.2255 23.6097 16.2198 23.5773 16.2231 23.5452C16.2263 23.5131 16.2384 23.4825 16.2579 23.4569C16.9535 22.5638 17.4483 21.5298 17.7083 20.426C17.9682 19.3222 17.987 18.1748 17.7635 17.063L17.752 17.0053C17.7074 16.8565 17.61 16.7295 17.4783 16.6482C17.3466 16.567 17.1898 16.5372 17.0377 16.5645C16.8856 16.5919 16.7488 16.6745 16.6533 16.7966C16.5578 16.9187 16.5103 17.0718 16.5197 17.2269L16.5366 17.3116C16.7162 18.1974 16.7114 19.111 16.5227 19.9949C16.5127 20.0393 16.4856 20.078 16.4473 20.1026C16.4091 20.1271 16.3628 20.1355 16.3184 20.126C16.2741 20.1164 16.2353 20.0897 16.2104 20.0516C16.1854 20.0135 16.1765 19.9671 16.1854 19.9223C16.3524 19.1409 16.3675 18.3344 16.2299 17.5472H16.2263L16.1928 17.3804C16.1482 17.1282 16.2035 16.8684 16.347 16.6567C16.4905 16.445 16.7108 16.2982 16.9606 16.2477C17.2105 16.1973 17.47 16.2471 17.6837 16.3867C17.8975 16.5262 18.0483 16.7443 18.1041 16.9943L18.1345 17.1456L18.1305 17.1469C18.3372 18.2862 18.3015 19.4566 18.0256 20.581C17.7497 21.7054 17.2399 22.7583 16.5298 23.6703C16.5135 23.691 16.4928 23.7078 16.4691 23.7192C16.4454 23.7307 16.4194 23.7365 16.3931 23.7363Z" fill="white"/>
<path d="M13.9196 22.8991C13.885 22.8991 13.8512 22.8887 13.8226 22.8691C13.7939 22.8495 13.7718 22.8218 13.7591 22.7894C13.7464 22.757 13.7437 22.7216 13.7513 22.6876C13.7589 22.6537 13.7764 22.6228 13.8017 22.5991C14.4336 22.0048 14.9151 21.2674 15.2061 20.4481C15.497 19.6289 15.589 18.7517 15.4743 17.8895C15.4713 17.8668 15.4727 17.8438 15.4785 17.8218C15.4843 17.7997 15.4944 17.779 15.5081 17.7609C15.5219 17.7427 15.5391 17.7275 15.5587 17.716C15.5783 17.7045 15.6 17.697 15.6225 17.694C15.645 17.6909 15.6678 17.6923 15.6898 17.6981C15.7117 17.704 15.7323 17.7141 15.7504 17.7279C15.7684 17.7417 15.7836 17.759 15.795 17.7787C15.8064 17.7985 15.8139 17.8202 15.8169 17.8429C15.9389 18.7599 15.841 19.693 15.5316 20.5644C15.2222 21.4357 14.7101 22.2202 14.0381 22.8523C14.006 22.8825 13.9636 22.8993 13.9196 22.8991Z" fill="white"/>
<path d="M18.8901 18.7722C18.8445 18.7722 18.8007 18.754 18.7683 18.7216C18.736 18.6893 18.7178 18.6453 18.7176 18.5994C18.7157 18.0299 18.6584 17.462 18.5463 16.9037L18.5328 16.8367C18.4539 16.5218 18.2712 16.2431 18.0144 16.0461C17.7576 15.8492 17.4419 15.7455 17.119 15.7522C16.7961 15.7588 16.4849 15.8754 16.2364 16.0828C15.9878 16.2902 15.8166 16.5761 15.7506 16.894C15.7466 16.9169 15.738 16.9387 15.7254 16.9582C15.7129 16.9777 15.6965 16.9944 15.6774 17.0074C15.6583 17.0205 15.6367 17.0295 15.614 17.034C15.5914 17.0385 15.568 17.0383 15.5454 17.0336C15.5228 17.0288 15.5014 17.0195 15.4824 17.0063C15.4634 16.9931 15.4473 16.9761 15.4349 16.9565C15.4226 16.9369 15.4143 16.915 15.4105 16.892C15.4067 16.8691 15.4076 16.8457 15.413 16.8231C15.4972 16.422 15.7163 16.0623 16.0334 15.8045C16.3505 15.5468 16.7463 15.4069 17.1541 15.4082C17.5619 15.4096 17.9568 15.5522 18.2722 15.812C18.5876 16.0718 18.8044 16.433 18.8859 16.8346L18.9137 16.9734L18.9111 16.9746C19.0101 17.5102 19.0608 18.0537 19.0626 18.5984C19.0627 18.6212 19.0583 18.6437 19.0496 18.6648C19.041 18.6859 19.0284 18.705 19.0124 18.7211C18.9964 18.7373 18.9774 18.7501 18.9565 18.7589C18.9356 18.7676 18.9132 18.7722 18.8905 18.7722H18.8901Z" fill="white"/>
<path d="M17.3522 23.7767C17.3208 23.7767 17.29 23.7682 17.2631 23.7519C17.2362 23.7356 17.2142 23.7122 17.1996 23.6843C17.1849 23.6563 17.1782 23.6249 17.18 23.5934C17.1818 23.5619 17.1922 23.5315 17.21 23.5054C18.0026 22.3405 18.5012 20.9991 18.6625 19.5971C18.6644 19.5739 18.6709 19.5513 18.6816 19.5307C18.6923 19.51 18.707 19.4918 18.7249 19.477C18.7427 19.4622 18.7634 19.4512 18.7856 19.4446C18.8078 19.438 18.8311 19.436 18.854 19.4386C18.877 19.4413 18.8993 19.4485 18.9194 19.46C18.9396 19.4714 18.9572 19.4868 18.9713 19.5053C18.9854 19.5237 18.9956 19.5448 19.0015 19.5674C19.0073 19.5899 19.0085 19.6133 19.0051 19.6364C18.8374 21.0945 18.319 22.4896 17.4947 23.7011C17.4789 23.7245 17.4576 23.7435 17.4328 23.7567C17.408 23.7699 17.3803 23.7767 17.3522 23.7767Z" fill="white"/>
<path d="M13.2381 22.4363C13.2031 22.4361 13.169 22.4253 13.1402 22.4051C13.1115 22.385 13.0896 22.3565 13.0773 22.3235C13.0651 22.2905 13.0631 22.2546 13.0716 22.2205C13.0802 22.1863 13.0989 22.1556 13.1253 22.1324C13.7348 21.6012 14.1963 20.9197 14.4644 20.1549C14.7211 19.4199 14.7896 18.6318 14.6635 17.8632H14.6621L14.6288 17.6983C14.5506 17.3065 14.5638 16.9018 14.6673 16.516C14.7708 16.1302 14.9618 15.7737 15.2254 15.4746C15.489 15.1755 15.818 14.9419 16.1865 14.7921C16.555 14.6423 16.9531 14.5804 17.3494 14.6112C17.3725 14.6123 17.3952 14.618 17.416 14.628C17.4369 14.638 17.4555 14.6522 17.4709 14.6696C17.4862 14.687 17.4979 14.7073 17.5052 14.7293C17.5126 14.7514 17.5155 14.7747 17.5137 14.7979C17.5119 14.821 17.5055 14.8436 17.4948 14.8643C17.4842 14.8849 17.4696 14.9032 17.4517 14.918C17.4339 14.9328 17.4133 14.9439 17.3912 14.9506C17.369 14.9573 17.3458 14.9594 17.3228 14.9569C16.9276 14.9262 16.5313 15.002 16.175 15.1764C15.8186 15.3509 15.5149 15.6178 15.2953 15.9496C14.9942 16.4021 14.8691 16.95 14.9436 17.4892L14.9718 17.6294C15.1491 18.51 15.0865 19.4224 14.7905 20.2702C14.5023 21.0917 14.0065 21.8237 13.3518 22.3944C13.3202 22.4217 13.2798 22.4366 13.2381 22.4363Z" fill="white"/>
<path d="M18.3703 23.6606C18.3399 23.6606 18.3101 23.6525 18.2838 23.6371C18.2576 23.6218 18.2358 23.5998 18.2208 23.5733C18.2057 23.5468 18.1979 23.5168 18.198 23.4862C18.1982 23.4557 18.2064 23.4258 18.2217 23.3995C19.393 21.3941 19.7871 19.0247 19.3285 16.7454L19.3134 16.6702C19.2422 16.3681 19.1092 16.0841 18.9228 15.8365C18.7365 15.5888 18.5009 15.3829 18.231 15.2318C18.2112 15.2207 18.1938 15.2059 18.1798 15.188C18.1657 15.1702 18.1553 15.1497 18.1491 15.1278C18.143 15.106 18.1411 15.0831 18.1437 15.0605C18.1464 15.0379 18.1534 15.016 18.1644 14.9961C18.1867 14.956 18.2239 14.9264 18.2678 14.9138C18.2896 14.9076 18.3124 14.9058 18.3349 14.9084C18.3574 14.911 18.3791 14.9181 18.3989 14.9292C18.7236 15.1106 19.0052 15.3608 19.2244 15.6623C19.4436 15.9638 19.5951 16.3096 19.6685 16.6757L19.6981 16.823H19.6957C20.1259 19.1426 19.7081 21.5404 18.5192 23.5749C18.504 23.601 18.4822 23.6227 18.4561 23.6377C18.43 23.6528 18.4004 23.6607 18.3703 23.6606Z" fill="white"/>
<path d="M12.6325 21.8985C12.597 21.8983 12.5624 21.8871 12.5335 21.8665C12.5046 21.8458 12.4827 21.8167 12.4708 21.783C12.459 21.7494 12.4577 21.7129 12.4673 21.6786C12.4768 21.6442 12.4966 21.6136 12.5241 21.591C13.0357 21.1693 13.4305 20.622 13.6703 20.0021C13.6781 19.9802 13.6901 19.9601 13.7057 19.943C13.7213 19.9259 13.7401 19.9121 13.7611 19.9025C13.7821 19.8928 13.8048 19.8875 13.8278 19.8868C13.8509 19.8861 13.8739 19.8901 13.8954 19.8985C13.9169 19.9069 13.9365 19.9196 13.9531 19.9357C13.9696 19.9519 13.9828 19.9712 13.9918 19.9926C14.0008 20.014 14.0054 20.0369 14.0054 20.0601C14.0054 20.0833 14.0008 20.1063 13.9918 20.1277C13.7303 20.8032 13.2999 21.3996 12.7423 21.8592C12.7114 21.8848 12.6725 21.8987 12.6325 21.8985Z" fill="white"/>
<path d="M20.3504 20.4812C20.3412 20.4809 20.3321 20.4799 20.3232 20.4781C20.3008 20.4745 20.2794 20.4664 20.2602 20.4544C20.241 20.4424 20.2243 20.4267 20.2111 20.4082C20.1979 20.3897 20.1884 20.3688 20.1833 20.3466C20.1782 20.3244 20.1774 20.3015 20.1811 20.279C20.3815 19.0539 20.3582 17.8023 20.1124 16.5856L20.1031 16.5388C19.9356 15.7691 19.4772 15.095 18.8247 14.6585C18.1722 14.222 17.3766 14.0574 16.6057 14.1993C15.8348 14.3412 15.1488 14.7785 14.6925 15.4191C14.2362 16.0597 14.0452 16.8534 14.1598 17.6328L14.1906 17.7863C14.2751 18.2057 14.2951 18.6356 14.2499 19.061C14.2477 19.0839 14.2411 19.1061 14.2304 19.1264C14.2197 19.1466 14.205 19.1645 14.1874 19.1791C14.1697 19.1936 14.1493 19.2045 14.1274 19.211C14.1055 19.2176 14.0826 19.2197 14.0599 19.2172C14.0372 19.2147 14.0152 19.2078 13.9952 19.1967C13.9752 19.1856 13.9575 19.1707 13.9433 19.1527C13.9291 19.1347 13.9186 19.1141 13.9125 19.092C13.9063 19.0699 13.9045 19.0467 13.9073 19.024C13.9427 18.6914 13.9345 18.3556 13.8829 18.0252L13.849 17.8558C13.7592 17.4191 13.7561 16.9689 13.8399 16.5309C13.9237 16.093 14.0928 15.6761 14.3373 15.304C14.5819 14.932 14.8972 14.6122 15.2651 14.363C15.6329 14.1138 16.0462 13.9401 16.481 13.852C16.9159 13.7638 17.3637 13.7629 17.7989 13.8493C18.2341 13.9356 18.6481 14.1076 19.017 14.3552C19.3859 14.6029 19.7024 14.9214 19.9485 15.2924C20.1946 15.6635 20.3654 16.0797 20.4509 16.5173L20.4673 16.5983C20.7058 17.8313 20.7239 19.0971 20.5205 20.3363C20.5137 20.3768 20.493 20.4136 20.4618 20.4401C20.4307 20.4666 20.3912 20.4812 20.3504 20.4812Z" fill="white"/>
<path d="M19.4388 23.353C19.4096 23.3529 19.3808 23.3454 19.3553 23.3311C19.3297 23.3168 19.3082 23.2963 19.2927 23.2713C19.2773 23.2464 19.2684 23.2179 19.2668 23.1886C19.2653 23.1592 19.2712 23.13 19.284 23.1036C19.5701 22.5134 19.7992 21.897 19.9682 21.2628C19.9741 21.2408 19.9842 21.2201 19.998 21.202C20.0118 21.1838 20.029 21.1686 20.0486 21.1572C20.0683 21.1457 20.09 21.1383 20.1125 21.1353C20.135 21.1323 20.1579 21.1338 20.1798 21.1397C20.2017 21.1455 20.2223 21.1557 20.2403 21.1696C20.2584 21.1834 20.2735 21.2008 20.2849 21.2205C20.2963 21.2403 20.3037 21.2621 20.3067 21.2847C20.3097 21.3073 20.3082 21.3303 20.3023 21.3524C20.1274 22.008 19.8905 22.6453 19.5948 23.2555C19.5806 23.2849 19.5584 23.3096 19.5308 23.3268C19.5032 23.3441 19.4713 23.3531 19.4388 23.353Z" fill="white"/>
<path d="M20.5496 22.7928C20.5286 22.7929 20.5078 22.7889 20.4882 22.7813C20.4456 22.7649 20.4112 22.7323 20.3926 22.6905C20.3739 22.6488 20.3725 22.6013 20.3886 22.5584C21.1265 20.6184 21.3045 18.5083 20.9021 16.471L20.8932 16.4272C20.7858 15.8849 20.5623 15.3726 20.2381 14.9258C20.224 14.9075 20.2137 14.8865 20.2078 14.8641C20.202 14.8417 20.2006 14.8183 20.2039 14.7954C20.2071 14.7724 20.2149 14.7504 20.2268 14.7305C20.2387 14.7107 20.2544 14.6934 20.273 14.6798C20.2917 14.6661 20.3128 14.6564 20.3353 14.6511C20.3577 14.6458 20.381 14.6451 20.4037 14.649C20.4264 14.6529 20.4481 14.6613 20.4676 14.6738C20.487 14.6863 20.5037 14.7025 20.5168 14.7216C20.8558 15.1887 21.094 15.7219 21.2163 16.2868L21.2308 16.3582C21.6573 18.4729 21.4768 20.6661 20.7102 22.6816C20.6978 22.7143 20.6757 22.7424 20.6471 22.7622C20.6184 22.7821 20.5844 22.7927 20.5496 22.7928Z" fill="white"/>
<path d="M19.6799 14.2563C19.6401 14.2563 19.6016 14.2425 19.5709 14.2172C19.0168 13.7611 18.3466 13.4705 17.6364 13.3784C16.9262 13.2863 16.2045 13.3965 15.5535 13.6963C15.5328 13.7064 15.5104 13.7122 15.4874 13.7135C15.4645 13.7147 15.4415 13.7113 15.4199 13.7035C15.3983 13.6957 15.3784 13.6836 15.3615 13.668C15.3446 13.6524 15.3309 13.6335 15.3213 13.6125C15.3118 13.5915 15.3065 13.5688 15.3057 13.5457C15.305 13.5226 15.3089 13.4996 15.3171 13.4781C15.3254 13.4565 15.3378 13.4368 15.3537 13.4202C15.3696 13.4035 15.3887 13.3902 15.4098 13.3811C16.1195 13.0542 16.9061 12.9341 17.6803 13.0344C18.4545 13.1347 19.1852 13.4513 19.7893 13.9483C19.8169 13.971 19.8368 14.0016 19.8463 14.0361C19.8558 14.0705 19.8545 14.1071 19.8425 14.1408C19.8305 14.1745 19.8084 14.2036 19.7793 14.2242C19.7502 14.2447 19.7155 14.2557 19.6799 14.2556V14.2563Z" fill="white"/>
<path d="M12.1034 21.2965C12.0677 21.2966 12.0328 21.2855 12.0036 21.2648C11.9744 21.2441 11.9524 21.2148 11.9405 21.1809C11.9286 21.147 11.9275 21.1103 11.9373 21.0758C11.9471 21.0412 11.9673 21.0106 11.9952 20.9881C12.4107 20.6543 12.7311 20.216 12.9238 19.7177C13.1166 19.2193 13.1748 18.6785 13.0927 18.1502L13.0655 18.0147C12.9142 17.2655 12.9704 16.489 13.2277 15.7696C13.485 15.0502 13.9337 14.4156 14.5249 13.9347C14.5605 13.9075 14.6053 13.8953 14.6498 13.9006C14.6943 13.906 14.7349 13.9285 14.7631 13.9635C14.7914 13.9984 14.805 14.043 14.8011 14.0879C14.7972 14.1327 14.7761 14.1743 14.7423 14.2038C14.2202 14.6283 13.8188 15.184 13.5789 15.8146C13.3389 16.4451 13.269 17.1282 13.376 17.7947L13.4066 17.946C13.5298 18.5553 13.4834 19.1869 13.2724 19.7713C13.0615 20.3557 12.6943 20.8703 12.2112 21.2584C12.1807 21.2831 12.1426 21.2966 12.1034 21.2965Z" fill="white"/>
<path d="M11.653 20.6288C11.6177 20.6289 11.5832 20.618 11.5542 20.5977C11.5252 20.5774 11.5032 20.5486 11.491 20.5153C11.4788 20.4819 11.4772 20.4456 11.4862 20.4113C11.4952 20.377 11.5146 20.3463 11.5415 20.3233C11.8323 20.0758 12.0552 19.7575 12.1888 19.3987C12.3224 19.04 12.3624 18.6528 12.3049 18.2741L12.2848 18.1712C12.2327 17.9114 12.201 17.6479 12.19 17.3831C12.1885 17.3601 12.1916 17.3369 12.1991 17.315C12.2066 17.2932 12.2184 17.273 12.2338 17.2558C12.2492 17.2386 12.2678 17.2247 12.2886 17.2148C12.3095 17.2049 12.332 17.1994 12.355 17.1984C12.378 17.1974 12.401 17.2011 12.4225 17.2092C12.4441 17.2173 12.4638 17.2296 12.4806 17.2455C12.4973 17.2614 12.5107 17.2805 12.52 17.3016C12.5293 17.3228 12.5343 17.3456 12.5347 17.3688C12.5428 17.5641 12.563 17.7588 12.5951 17.9516L12.6253 18.1021C12.716 18.556 12.684 19.026 12.5326 19.4631C12.3811 19.9003 12.1159 20.2886 11.7644 20.5877C11.7334 20.6144 11.6938 20.629 11.653 20.6288Z" fill="white"/>
<path d="M21.9531 17.032C21.9118 17.0319 21.8719 17.0169 21.8407 16.9898C21.8094 16.9627 21.7889 16.9251 21.7828 16.8841C21.7564 16.7058 21.726 16.5273 21.6921 16.3525L21.6748 16.2692C21.4617 15.208 20.8863 14.2549 20.0482 13.575C19.2101 12.895 18.162 12.5309 17.0851 12.5456C16.0082 12.5602 14.9703 12.9527 14.1508 13.6553C13.3313 14.3578 12.7819 15.3261 12.5974 16.3928C12.5884 16.437 12.5627 16.476 12.5256 16.5014C12.4885 16.5268 12.443 16.5367 12.3988 16.529C12.3546 16.5213 12.3151 16.4965 12.2888 16.46C12.2624 16.4235 12.2512 16.3781 12.2576 16.3334C12.4537 15.1977 13.0349 14.1652 13.9026 13.4115C14.7702 12.6578 15.8706 12.2294 17.0169 12.199C18.1632 12.1686 19.2845 12.5382 20.1904 13.245C21.0963 13.9517 21.7308 14.9519 21.9862 16.0758H21.988L22.0138 16.2005C22.0555 16.4076 22.0924 16.6203 22.1238 16.8328C22.1271 16.8553 22.126 16.8783 22.1206 16.9004C22.1151 16.9225 22.1053 16.9432 22.0918 16.9615C22.0784 16.9798 22.0614 16.9952 22.042 17.007C22.0226 17.0187 22.0011 17.0264 21.9787 17.0297C21.9702 17.0311 21.9617 17.0318 21.9531 17.032Z" fill="white"/>
<path d="M21.6814 21.8813C21.6664 21.8812 21.6514 21.8792 21.6369 21.8754C21.5927 21.8635 21.555 21.8345 21.5321 21.7948C21.5092 21.755 21.5028 21.7077 21.5145 21.6633C21.842 20.4307 21.968 19.1528 21.8878 17.8795C21.8863 17.8568 21.8894 17.834 21.8967 17.8125C21.904 17.791 21.9155 17.7711 21.9304 17.754C21.9454 17.737 21.9636 17.723 21.9839 17.713C22.0042 17.703 22.0263 17.6971 22.0489 17.6957C22.0715 17.6942 22.0941 17.6973 22.1155 17.7046C22.1369 17.712 22.1567 17.7235 22.1737 17.7386C22.1907 17.7536 22.2045 17.7719 22.2145 17.7923C22.2245 17.8127 22.2303 17.8349 22.2318 17.8576C22.3146 19.1686 22.185 20.4845 21.8478 21.7536C21.8379 21.7903 21.8162 21.8227 21.7861 21.8457C21.756 21.8688 21.7192 21.8813 21.6814 21.8813Z" fill="white"/>
<path d="M11.276 19.8833C11.2424 19.8833 11.2096 19.8735 11.1815 19.855C11.1534 19.8365 11.1313 19.8102 11.1179 19.7793C11.1045 19.7484 11.1003 19.7142 11.106 19.681C11.1116 19.6477 11.1268 19.6169 11.1496 19.5922C11.2966 19.4326 11.4058 19.2416 11.469 19.0336C11.5322 18.8256 11.5478 18.6059 11.5146 18.391L11.5019 18.3302C11.3209 17.4252 11.3577 16.4899 11.6092 15.6021C11.8606 14.7143 12.3194 13.8997 12.9473 13.2262C13.5753 12.5527 14.3542 12.0398 15.2192 11.7302C16.0842 11.4206 17.0103 11.3232 17.9204 11.4462C17.9658 11.4523 18.0069 11.4764 18.0347 11.513C18.0625 11.5497 18.0747 11.5959 18.0686 11.6416C18.0625 11.6873 18.0386 11.7286 18.0021 11.7566C17.9657 11.7845 17.9197 11.7967 17.8742 11.7906C17.0268 11.6757 16.1644 11.7641 15.3575 12.0485C14.5506 12.333 13.8221 12.8055 13.2317 13.4273C12.6413 14.0491 12.2058 14.8026 11.9607 15.6262C11.7155 16.4497 11.6678 17.3199 11.8215 18.1655L11.8416 18.2619C11.8967 18.5393 11.8855 18.8259 11.8091 19.0981C11.7327 19.3703 11.5932 19.6204 11.4021 19.828C11.386 19.8454 11.3664 19.8593 11.3447 19.8688C11.323 19.8783 11.2996 19.8832 11.276 19.8833Z" fill="white"/>
<path d="M22.7851 20.3768C22.7779 20.3768 22.7707 20.3764 22.7635 20.3756C22.7181 20.3699 22.6769 20.3463 22.6487 20.31C22.6206 20.2738 22.608 20.2278 22.6136 20.1821C22.7766 18.863 22.7317 17.5263 22.4804 16.2213L22.457 16.1101C22.2656 15.1598 21.8256 14.2779 21.1824 13.5555C20.5391 12.833 19.7159 12.2961 18.7975 11.9999C18.7755 11.9934 18.7549 11.9825 18.7372 11.9678C18.7194 11.9532 18.7046 11.9352 18.6939 11.9147C18.6831 11.8943 18.6765 11.8719 18.6745 11.8489C18.6725 11.8259 18.675 11.8027 18.682 11.7807C18.6891 11.7587 18.7004 11.7383 18.7153 11.7207C18.7303 11.7032 18.7486 11.6888 18.7691 11.6785C18.7897 11.6681 18.8121 11.662 18.835 11.6605C18.858 11.659 18.881 11.6621 18.9027 11.6697C19.8529 11.9762 20.7078 12.5251 21.3839 13.2629C22.06 14.0008 22.5342 14.9022 22.7603 15.8793H22.7625L22.7966 16.0414C23.0743 17.418 23.1282 18.8309 22.956 20.2249C22.9508 20.2668 22.9305 20.3053 22.8991 20.3333C22.8676 20.3613 22.8271 20.3767 22.7851 20.3768Z" fill="white"/>
<path d="M10.5928 23.2266V37.8763H23.7081V23.2574C22.0718 24.8313 19.7463 25.8144 17.1664 25.8144C14.5697 25.8144 12.2307 24.8184 10.5928 23.2266Z" fill="white"/>
<path d="M37.3535 30.0661L41.2132 29.7286C41.3959 31.2753 41.8178 32.5478 42.4786 33.5461C43.1535 34.5304 44.194 35.3318 45.6001 35.9505C47.0062 36.5551 48.588 36.8574 50.3456 36.8574C51.9064 36.8574 53.2843 36.6254 54.4795 36.1614C55.6747 35.6974 56.5605 35.0647 57.137 34.2632C57.7276 33.4477 58.0228 32.5618 58.0228 31.6057C58.0228 30.6355 57.7416 29.7919 57.1792 29.0748C56.6167 28.3436 55.6887 27.732 54.3951 27.2398C53.5656 26.9164 51.7306 26.4173 48.8903 25.7424C46.0501 25.0534 44.0605 24.4066 42.9215 23.802C41.4452 23.0286 40.3414 22.0725 39.6102 20.9336C38.8931 19.7806 38.5346 18.494 38.5346 17.0739C38.5346 15.5131 38.9775 14.0579 39.8633 12.708C40.7492 11.3441 42.0427 10.3107 43.7441 9.60762C45.4455 8.90458 47.3366 8.55306 49.4176 8.55306C51.7095 8.55306 53.7273 8.92567 55.4708 9.67089C57.2284 10.402 58.5782 11.4847 59.5203 12.9189C60.4624 14.3531 60.9686 15.9772 61.0389 17.791L57.1159 18.0863C56.905 16.1318 56.1879 14.6554 54.9646 13.6571C53.7554 12.6588 51.9626 12.1596 49.5864 12.1596C47.1117 12.1596 45.3048 12.6166 44.1659 13.5306C43.0411 14.4305 42.4786 15.5202 42.4786 16.7997C42.4786 17.9105 42.8794 18.8245 43.6808 19.5416C44.4682 20.2587 46.5211 20.9969 49.8395 21.7561C53.1719 22.5014 55.4567 23.1552 56.6941 23.7176C58.4939 24.5472 59.8226 25.6018 60.6803 26.8813C61.538 28.1468 61.9669 29.6091 61.9669 31.2683C61.9669 32.9134 61.4958 34.4671 60.5538 35.9294C59.6117 37.3777 58.2548 38.5096 56.4832 39.3251C54.7256 40.1265 52.743 40.5273 50.5355 40.5273C47.7374 40.5273 45.3892 40.1195 43.491 39.304C41.6069 38.4885 40.1234 37.2652 39.0408 35.6341C37.9721 33.989 37.4097 32.133 37.3535 30.0661ZM67.0709 40V9.08034H70.8674V20.1743C72.639 18.1214 74.8747 17.095 77.5743 17.095C79.2335 17.095 80.6748 17.4254 81.898 18.0863C83.1213 18.7331 83.9931 19.633 84.5133 20.7859C85.0477 21.9389 85.3148 23.6122 85.3148 25.8056V40H81.5184V25.8056C81.5184 23.9074 81.1036 22.5295 80.274 21.6718C79.4585 20.8 78.2985 20.3641 76.794 20.3641C75.6691 20.3641 74.6075 20.6594 73.6092 21.2499C72.625 21.8264 71.9219 22.6138 71.5001 23.6122C71.0783 24.6105 70.8674 25.9884 70.8674 27.746V40H67.0709ZM91.136 13.4462V9.08034H94.9324V13.4462H91.136ZM91.136 40V17.6012H94.9324V40H91.136ZM106.954 40L98.4335 17.6012H102.441L107.25 31.0152C107.77 32.4634 108.248 33.9679 108.684 35.5287C109.021 34.3476 109.492 32.9274 110.097 31.2683L115.074 17.6012H118.976L110.498 40H106.954ZM136.946 37.2371C135.54 38.4322 134.183 39.2759 132.875 39.768C131.582 40.2601 130.19 40.5062 128.699 40.5062C126.239 40.5062 124.348 39.9086 123.026 38.7134C121.704 37.5042 121.043 35.9646 121.043 34.0945C121.043 32.9977 121.289 31.9994 121.781 31.0995C122.288 30.1856 122.941 29.4544 123.743 28.906C124.558 28.3577 125.472 27.9429 126.485 27.6617C127.23 27.4648 128.355 27.275 129.859 27.0922C132.925 26.7266 135.181 26.2907 136.63 25.7845C136.644 25.2643 136.651 24.9339 136.651 24.7933C136.651 23.2466 136.292 22.1569 135.575 21.5241C134.605 20.6664 133.164 20.2376 131.251 20.2376C129.466 20.2376 128.144 20.5539 127.286 21.1867C126.443 21.8053 125.817 22.9091 125.409 24.498L121.697 23.9918C122.035 22.4029 122.59 21.1234 123.363 20.1532C124.137 19.1689 125.254 18.4167 126.717 17.8964C128.179 17.3621 129.873 17.095 131.8 17.095C133.712 17.095 135.266 17.32 136.461 17.7699C137.656 18.2198 138.535 18.7893 139.097 19.4783C139.66 20.1532 140.053 21.0109 140.278 22.0514C140.405 22.6982 140.468 23.8653 140.468 25.5525V30.6144C140.468 34.1437 140.546 36.3793 140.7 37.3214C140.869 38.2494 141.192 39.1423 141.67 40H137.705C137.312 39.2126 137.058 38.2916 136.946 37.2371ZM136.63 28.7584C135.252 29.3208 133.185 29.7989 130.429 30.1926C128.868 30.4176 127.764 30.6707 127.118 30.9519C126.471 31.2331 125.972 31.6479 125.62 32.1963C125.269 32.7306 125.093 33.3282 125.093 33.989C125.093 35.0014 125.472 35.845 126.232 36.52C127.005 37.1949 128.13 37.5323 129.606 37.5323C131.069 37.5323 132.369 37.216 133.508 36.5832C134.647 35.9364 135.484 35.0576 136.018 33.9468C136.426 33.0891 136.63 31.8237 136.63 30.1504V28.7584Z" fill="black"/>
<path d="M179.586 20.7173L178.618 18.9985H178.203V20.7173H177.323V16.3066H178.97C179.31 16.3066 179.599 16.3677 179.838 16.4899C180.076 16.6078 180.254 16.77 180.372 16.9765C180.493 17.1787 180.554 17.4061 180.554 17.6589C180.554 17.9496 180.47 18.2129 180.303 18.4488C180.135 18.6805 179.886 18.8405 179.555 18.929L180.604 20.7173H179.586ZM178.203 18.335H178.939C179.178 18.335 179.356 18.2782 179.473 18.1644C179.59 18.0465 179.649 17.8843 179.649 17.6779C179.649 17.4756 179.59 17.3198 179.473 17.2103C179.356 17.0965 179.178 17.0396 178.939 17.0396H178.203V18.335Z" fill="black"/>
<path d="M178.81 14.8711C180.833 14.8711 182.478 16.5209 182.478 18.5615C182.477 20.602 180.833 22.251 178.81 22.251C176.787 22.251 175.142 20.602 175.142 18.5615C175.142 16.5209 176.786 14.8711 178.81 14.8711Z" stroke="black" stroke-width="1.04503"/>
</svg>
