<svg width="23" height="22" viewBox="0 0 23 22" fill="none" xmlns="http://www.w3.org/2000/svg">
<path d="M20.6668 11.7886C20.6668 13.8877 19.5851 15.7486 17.9168 16.9219L16.6885 19.6261C16.4043 20.2402 15.5793 20.3594 15.1485 19.8369L13.7918 18.2052C12.0868 18.2052 10.5193 17.6277 9.32764 16.6652L9.87764 16.0144C14.1126 15.6936 17.4585 12.3386 17.4585 8.25022C17.4585 7.55355 17.3576 6.86605 17.1743 6.20605C19.2551 7.30605 20.6668 9.39605 20.6668 11.7886Z" fill="#E7EEFF"/>
<path d="M15.4418 5.56433C14.3693 3.36433 11.9768 1.8335 9.2085 1.8335C5.4135 1.8335 2.3335 4.70266 2.3335 8.25016C2.3335 10.3493 3.41516 12.2102 5.0835 13.3835L6.31183 16.0877C6.596 16.7018 7.421 16.8118 7.85183 16.2985L8.356 15.6935L9.2085 14.6668C13.0035 14.6668 16.0835 11.7977 16.0835 8.25016C16.0835 7.28766 15.8543 6.38016 15.4418 5.56433ZM11.5002 8.93766H6.91683C6.541 8.93766 6.22933 8.626 6.22933 8.25016C6.22933 7.87433 6.541 7.56266 6.91683 7.56266H11.5002C11.876 7.56266 12.1877 7.87433 12.1877 8.25016C12.1877 8.626 11.876 8.93766 11.5002 8.93766Z" fill="#E7EEFF"/>
</svg>
