<svg width="70" height="70" viewBox="0 0 70 70" fill="none" xmlns="http://www.w3.org/2000/svg">
<path d="M31.5945 47.6055C31.5945 46.2784 31.5945 44.9513 31.5945 43.6241C31.5945 41.5174 31.5945 39.4107 31.5945 37.304C31.5945 36.8032 31.5748 36.2981 31.5988 35.7978C31.5703 36.0098 31.5419 36.2219 31.5133 36.4338C31.5263 36.3454 31.5444 36.2707 31.574 36.1864C31.4937 36.377 31.4133 36.5675 31.3329 36.758C31.3687 36.6809 31.4059 36.617 31.4554 36.548C31.3308 36.7094 31.2061 36.8708 31.0813 37.0323C31.1357 36.9694 31.1883 36.9188 31.253 36.8667C31.0916 36.9914 30.9302 37.1161 30.7688 37.2408C30.8374 37.1949 30.9014 37.1598 30.9769 37.1266C30.7864 37.207 30.5959 37.2874 30.4054 37.3678C30.4841 37.3412 30.5551 37.324 30.6373 37.3118C30.4253 37.3403 30.2133 37.3688 30.0013 37.3973C30.0861 37.3926 30.16 37.3955 30.2443 37.4067C30.0323 37.3782 29.8202 37.3497 29.6082 37.3212C29.6637 37.3313 29.7176 37.3466 29.77 37.3672C29.5795 37.2868 29.389 37.2064 29.1985 37.126C29.5654 37.2908 29.9027 37.5544 30.2404 37.7694C30.9703 38.2342 31.7002 38.699 32.4301 39.1637C34.103 40.2289 35.7759 41.2941 37.4489 42.3593C37.8419 42.6096 38.2478 42.8468 38.6287 43.1154C38.4673 42.9907 38.3059 42.866 38.1445 42.7413C38.2106 42.798 38.2632 42.8521 38.3173 42.9202C38.1926 42.7588 38.0679 42.5974 37.9432 42.4359C37.9745 42.4794 38.0016 42.5253 38.0245 42.5738C37.9441 42.3833 37.8637 42.1928 37.7833 42.0023C37.815 42.0779 37.8368 42.1468 37.8545 42.2268C37.826 42.0148 37.7976 41.8028 37.769 41.5908C37.7831 41.6976 37.7831 41.7953 37.769 41.902C37.7976 41.6901 37.826 41.478 37.8545 41.266C37.8368 41.3461 37.8149 41.4149 37.7833 41.4906C37.8637 41.3001 37.9441 41.1095 38.0245 40.919C38.0016 40.9675 37.9745 41.0134 37.9432 41.0569C38.0679 40.8955 38.1925 40.7341 38.3173 40.5727C38.2631 40.6407 38.2105 40.6949 38.1445 40.7515C38.3059 40.6269 38.4673 40.5022 38.6287 40.3774C37.5977 41.1044 36.4924 41.7426 35.4286 42.4199C33.761 43.4818 32.0934 44.5436 30.4258 45.6054C30.0285 45.8584 29.6303 46.173 29.1986 46.3669C29.3891 46.2865 29.5796 46.2061 29.7701 46.1257C29.7177 46.1463 29.6637 46.1616 29.6083 46.1717C29.8203 46.1432 30.0323 46.1148 30.2443 46.0862C30.16 46.0975 30.0862 46.1003 30.0014 46.0956C30.2134 46.1241 30.4254 46.1526 30.6374 46.1811C30.5552 46.1689 30.4842 46.1517 30.4054 46.1251C30.596 46.2055 30.7865 46.2859 30.977 46.3663C30.9014 46.3331 30.8375 46.298 30.7688 46.2521C30.9302 46.3768 31.0916 46.5015 31.2531 46.6262C31.1884 46.5741 31.1358 46.5234 31.0814 46.4606C31.2061 46.622 31.3308 46.7834 31.4555 46.9448C31.406 46.8758 31.3688 46.812 31.3329 46.7348C31.4133 46.9254 31.4937 47.1159 31.5741 47.3064C31.5444 47.2222 31.5263 47.1474 31.5134 47.059C31.5419 47.271 31.5704 47.483 31.5989 47.695C31.5974 47.6653 31.5959 47.6354 31.5945 47.6055C31.5346 46.3573 30.5369 45.1531 29.2019 45.213C27.957 45.2687 26.7451 46.2666 26.8093 47.6055C26.8814 49.1068 27.8175 50.4378 29.3257 50.7895C30.1731 50.9871 31.0754 50.8467 31.8176 50.389C32.1489 50.1847 32.4745 49.9707 32.8027 49.7617C34.2027 48.8703 35.6027 47.9789 37.0027 47.0874C38.2106 46.3184 39.4184 45.5493 40.6263 44.7802C40.7329 44.7124 40.8406 44.6458 40.9463 44.5765C41.9104 43.9438 42.4521 43.0477 42.5543 41.9021C42.6632 40.6811 41.9541 39.5821 40.9685 38.9307C40.8918 38.8799 40.8132 38.8317 40.7355 38.7823C38.1568 37.1403 35.5781 35.4983 32.9994 33.8564C32.6202 33.6149 32.2427 33.3702 31.8614 33.1318C30.0472 31.9978 27.6104 32.8676 26.9599 34.9144C26.793 35.4397 26.8095 35.9696 26.8095 36.5082V38.3388V47.4052V47.6055C26.8095 48.8571 27.9099 50.056 29.202 49.9981C30.4982 49.9401 31.5945 48.9469 31.5945 47.6055Z" fill="#050610"/>
<path d="M16.7504 58.8984C15.7288 60.3873 14.7073 61.8763 13.6858 63.3652C13.3494 63.8554 13.2915 64.6529 13.4446 65.2089C13.5975 65.7639 14.0265 66.3653 14.5442 66.6388C15.7602 67.2813 17.0599 66.8849 17.8177 65.7804C18.8393 64.2915 19.8607 62.8025 20.8823 61.3136C21.2186 60.8234 21.2766 60.0259 21.1235 59.4699C20.9706 58.9149 20.5415 58.3135 20.0239 58.04C18.8079 57.3975 17.5081 57.794 16.7504 58.8984Z" fill="#050610"/>
<path d="M47.1983 61.3136C48.2199 62.8025 49.2414 64.2915 50.263 65.7805C50.6194 66.3001 51.0696 66.7084 51.6928 66.88C52.2655 67.0377 53.0282 66.9665 53.5365 66.6389C54.5612 65.9782 55.1521 64.4691 54.3948 63.3653C53.3732 61.8764 52.3517 60.3874 51.3302 58.8985C50.9737 58.3789 50.5235 57.9706 49.9003 57.7989C49.3276 57.6412 48.565 57.7124 48.0567 58.0401C47.0319 58.7008 46.4411 60.2099 47.1983 61.3136Z" fill="#050610"/>
<path d="M60.6957 53.4813V56.145C60.6957 57.0389 60.7704 57.9678 60.6836 58.8589C60.7121 58.6469 60.7406 58.4349 60.7691 58.2229C60.7492 58.3446 60.7196 58.4577 60.677 58.5734C60.7574 58.3829 60.8378 58.1924 60.9182 58.0019C60.8695 58.1121 60.8138 58.212 60.7456 58.3113C60.8703 58.1499 60.995 57.9885 61.1197 57.827C61.0273 57.9454 60.9275 58.0452 60.8093 58.1374C60.9707 58.0127 61.1321 57.8881 61.2936 57.7633C61.1943 57.8315 61.0944 57.8872 60.9842 57.9358C61.1747 57.8555 61.3652 57.7751 61.5557 57.6947C61.44 57.7373 61.3269 57.7669 61.2052 57.7868C61.4172 57.7582 61.6292 57.7298 61.8412 57.7013C61.324 57.7517 60.7889 57.7134 60.2705 57.7134C58.9846 57.7134 57.6988 57.7134 56.4129 57.7134C54.4928 57.7134 52.5726 57.7134 50.6525 57.7134C48.3154 57.7134 45.9781 57.7134 43.641 57.7134C41.0796 57.7134 38.5181 57.7134 35.9567 57.7134C33.3708 57.7134 30.7849 57.7134 28.199 57.7134C25.7885 57.7134 23.378 57.7134 20.9675 57.7134C18.9245 57.7134 16.8815 57.7134 14.8386 57.7134C13.3815 57.7134 11.9244 57.7134 10.4673 57.7134C9.7861 57.7134 9.10469 57.7186 8.42349 57.7134C8.33435 57.7127 8.24876 57.7101 8.15873 57.7013C8.37071 57.7298 8.58277 57.7582 8.79475 57.7868C8.673 57.7669 8.55993 57.7373 8.4442 57.6947L9.01575 57.9358C8.90556 57.8872 8.80569 57.8315 8.70636 57.7633C8.86776 57.888 9.02915 58.0127 9.19062 58.1374C9.07229 58.045 8.97248 57.9451 8.8802 57.827C9.00488 57.9884 9.12957 58.1498 9.25433 58.3113C9.18611 58.212 9.13046 58.1121 9.08179 58.0019C9.16218 58.1924 9.24257 58.3829 9.32296 58.5734C9.2803 58.4577 9.25077 58.3446 9.23088 58.2229C9.25939 58.4349 9.28782 58.6469 9.31633 58.8589C9.28242 58.5107 9.30423 58.1529 9.30423 57.8037C9.30423 56.9859 9.30423 56.1681 9.30423 55.3503C9.30423 52.6424 9.30423 49.9346 9.30423 47.2267C9.30423 43.9564 9.30423 40.6861 9.30423 37.4158C9.30423 34.5928 9.30423 31.7697 9.30423 28.9467C9.30423 27.5871 9.28905 26.2266 9.30423 24.8671C9.30512 24.7889 9.30867 24.712 9.31633 24.6337C9.28782 24.8457 9.25939 25.0577 9.23088 25.2697C9.25071 25.148 9.2803 25.0349 9.32296 24.9192C9.24257 25.1097 9.16218 25.3002 9.08179 25.4907C9.13046 25.3805 9.18611 25.2806 9.25433 25.1813C9.12964 25.3427 9.00495 25.5041 8.8802 25.6656C8.97262 25.5472 9.07249 25.4474 9.19062 25.3552C9.02922 25.4798 8.86782 25.6045 8.70636 25.7293C8.80562 25.6611 8.90556 25.6054 9.01575 25.5567C8.82524 25.6371 8.63472 25.7175 8.4442 25.7979C8.55993 25.7553 8.673 25.7257 8.79475 25.7058C8.58277 25.7343 8.37071 25.7628 8.15873 25.7913C8.67594 25.7409 9.21106 25.7792 9.72949 25.7792H13.587H19.3475H26.3589H34.0433H41.801H49.0324H55.1613H59.5326C60.2138 25.7792 60.8953 25.774 61.5765 25.7792C61.6656 25.7799 61.7512 25.7825 61.8412 25.7913C61.6292 25.7628 61.4172 25.7343 61.2052 25.7058C61.3269 25.7257 61.44 25.7553 61.5557 25.7979C61.3652 25.7175 61.1747 25.6371 60.9842 25.5567C61.0944 25.6054 61.1943 25.6611 61.2936 25.7293C61.1322 25.6046 60.9708 25.4799 60.8093 25.3552C60.9277 25.4476 61.0275 25.5475 61.1197 25.6656C60.9951 25.5042 60.8704 25.3428 60.7456 25.1813C60.8138 25.2806 60.8695 25.3805 60.9182 25.4907C60.8378 25.3002 60.7574 25.1097 60.677 24.9192C60.7196 25.0349 60.7492 25.148 60.7691 25.2697C60.7406 25.0577 60.7121 24.8457 60.6836 24.6337C60.7376 25.1879 60.6957 25.762 60.6957 26.3177V29.915V37.0076V40.0537V47.9569C60.6957 49.7693 60.6725 51.5834 60.6957 53.3957C60.6961 53.4243 60.6957 53.4528 60.6957 53.4813C60.6957 54.7329 61.7962 55.9318 63.0883 55.8739C64.3846 55.8159 65.4809 54.8227 65.4809 53.4813C65.4809 50.4117 65.4809 47.3421 65.4809 44.2724C65.4809 41.8405 65.4809 39.4087 65.4809 36.9768C65.4809 33.2943 65.4809 29.6118 65.4809 25.9292C65.4809 25.5617 65.4911 25.1924 65.4809 24.825C65.4213 22.6862 63.7648 21.0416 61.6283 20.9941C61.188 20.9843 60.7463 20.9941 60.3059 20.9941C57.7798 20.9941 55.2538 20.9941 52.7277 20.9941C48.8082 20.9941 44.8886 20.9941 40.9689 20.9941C36.6129 20.9941 32.2568 20.9941 27.9009 20.9941C24.0824 20.9941 20.264 20.9941 16.4456 20.9941C14.078 20.9941 11.7105 20.9941 9.34292 20.9941C8.94951 20.9941 8.55125 20.9761 8.15866 21.0062C6.09325 21.1642 4.53726 22.7989 4.51907 24.8859C4.51702 25.1229 4.51907 25.3599 4.51907 25.5968V34.3551V47.2267V57.0917C4.51907 57.6176 4.50417 58.1459 4.51907 58.6717C4.57991 60.8127 6.23988 62.4514 8.37523 62.4984C8.52363 62.5017 8.67245 62.4984 8.82093 62.4984H14.9789H25.9372H38.9509H51.1018H59.5182H61.4287C61.8143 62.4984 62.1788 62.4753 62.5681 62.386C63.9362 62.0727 65.1251 60.8812 65.3833 59.4949C65.4684 59.0376 65.4808 58.6545 65.4808 58.2083C65.4808 56.6326 65.4808 55.0569 65.4808 53.4812C65.4808 52.2297 64.3804 51.0307 63.0882 51.0886C61.7919 51.1468 60.6957 52.14 60.6957 53.4813Z" fill="#050610"/>
<path d="M27.2347 14.1804C27.3652 13.4379 27.5763 12.7169 27.8674 12.0215C27.787 12.212 27.7066 12.4026 27.6262 12.5931C27.9545 11.8296 28.3729 11.1141 28.8767 10.453C28.752 10.6144 28.6273 10.7758 28.5025 10.9373C29.0279 10.261 29.6324 9.65738 30.3095 9.133C30.1481 9.25769 29.9867 9.38237 29.8252 9.50713C30.487 9.00435 31.2031 8.58701 31.9673 8.25985C31.7767 8.34024 31.5862 8.42063 31.3957 8.50102C32.1805 8.17385 32.9978 7.94902 33.8394 7.82788C33.6274 7.85639 33.4154 7.88483 33.2034 7.91333C34.0891 7.7948 34.9808 7.79275 35.8671 7.90663C35.6551 7.87813 35.4431 7.84969 35.2311 7.82118C36.0729 7.93808 36.8909 8.15854 37.6771 8.48133C37.4866 8.40094 37.2961 8.32055 37.1056 8.24016C37.9 8.5756 38.6432 9.00824 39.3277 9.53283C39.1663 9.40815 39.0049 9.28346 38.8434 9.1587C39.4931 9.66668 40.0754 10.2475 40.5849 10.896C40.4602 10.7346 40.3355 10.5732 40.2108 10.4117C40.7369 11.0949 41.1714 11.8369 41.5089 12.6305C41.4285 12.44 41.3481 12.2494 41.2678 12.0589C41.2926 12.1182 41.3168 12.1777 41.3406 12.2374C41.5711 12.8109 41.863 13.3624 42.4401 13.6673C42.993 13.9594 43.6711 14.1116 44.2838 13.9084C44.8197 13.7307 45.3651 13.6047 45.9246 13.5282C45.7126 13.5567 45.5006 13.5851 45.2886 13.6136C46.0368 13.5222 46.7869 13.5219 47.5346 13.6165C47.3225 13.588 47.1106 13.5595 46.8986 13.531C47.6592 13.6356 48.3972 13.836 49.1059 14.1313C48.9154 14.0509 48.7249 13.9705 48.5344 13.8901C49.2236 14.1859 49.8678 14.5646 50.4619 15.0223C50.3005 14.8976 50.1391 14.7729 49.9776 14.6482C50.5397 15.0905 51.0436 15.5943 51.4858 16.1563C51.3611 15.9949 51.2364 15.8335 51.1116 15.6721C51.5693 16.2662 51.948 16.9104 52.2438 17.5996C52.1634 17.4091 52.083 17.2185 52.0026 17.028C52.298 17.7367 52.4984 18.4748 52.6029 19.2354C52.5744 19.0234 52.546 18.8113 52.5175 18.5993C52.6123 19.3494 52.6117 20.1019 52.5193 20.8525C52.5478 20.6405 52.5762 20.4284 52.6047 20.2164C52.5 20.978 52.3012 21.7147 52.0078 22.4253C52.0882 22.2348 52.1686 22.0443 52.249 21.8538C52.2021 21.963 52.1539 22.0712 52.1039 22.1792C51.8274 22.777 51.6816 23.3651 51.8628 24.0228C52.0156 24.5778 52.4447 25.1793 52.9623 25.4527C53.5176 25.7461 54.1903 25.8931 54.806 25.6939C55.3663 25.5126 55.9785 25.1507 56.2359 24.5943C57.0489 22.8366 57.5147 20.9212 57.3436 18.9728C57.1997 17.3329 56.7682 15.7786 55.96 14.336C54.5103 11.7485 51.9261 9.76649 49.0369 9.07694C47.0635 8.60595 44.9421 8.65407 43.0118 9.29419C43.9928 9.85118 44.9739 10.4082 45.955 10.9652C45.1835 9.04625 44.0639 7.27841 42.4498 5.95258C40.83 4.62203 38.931 3.61387 36.8468 3.25922C34.7656 2.90512 32.6016 2.97628 30.6001 3.70021C28.7004 4.38735 26.9416 5.47762 25.5866 6.99068C24.099 8.65182 23.0084 10.7011 22.6207 12.9082C22.5069 13.5564 22.5186 14.1652 22.8619 14.7519C23.1523 15.2482 23.7213 15.7215 24.2917 15.8514C24.9042 15.9909 25.5917 15.9607 26.1354 15.6103C26.6305 15.2909 27.1286 14.7845 27.2347 14.1804Z" fill="#050610"/>
<path d="M17.7966 22.7507C17.6021 22.2159 17.4667 21.6696 17.3879 21.106C17.4164 21.318 17.4448 21.53 17.4734 21.742C17.3896 21.0621 17.3904 20.3817 17.4796 19.7027C17.4511 19.9146 17.4226 20.1267 17.3941 20.3387C17.4865 19.6975 17.6552 19.0759 17.9003 18.4763C17.8199 18.6668 17.7395 18.8573 17.6591 19.0478C17.9174 18.437 18.2486 17.8662 18.65 17.3383C18.5253 17.4997 18.4007 17.6611 18.2759 17.8226C18.6808 17.303 19.1443 16.8395 19.6639 16.4346C19.5025 16.5593 19.3411 16.684 19.1796 16.8087C19.7075 16.4073 20.2783 16.0761 20.8891 15.8178C20.6986 15.8982 20.5081 15.9786 20.3176 16.059C20.9172 15.8139 21.5388 15.6452 22.18 15.5528C21.968 15.5813 21.7559 15.6098 21.544 15.6383C22.2292 15.5482 22.9156 15.5483 23.6014 15.6345C23.3895 15.606 23.1774 15.5776 22.9654 15.5491C23.6347 15.6445 24.282 15.8215 24.9062 16.0808C24.7157 16.0004 24.5252 15.92 24.3347 15.8396C24.9324 16.0981 25.4899 16.4248 26.0079 16.8196C25.8465 16.6949 25.6851 16.5702 25.5236 16.4455C26.0041 16.8225 26.436 17.2482 26.8199 17.7231C27.1814 18.1702 27.9629 18.4239 28.5118 18.4239C29.0986 18.4239 29.7995 18.1632 30.2036 17.7231C30.6221 17.2671 30.9329 16.6685 30.9043 16.0313C30.8743 15.3601 30.6237 14.8592 30.2036 14.3394C27.7763 11.3369 23.5047 10.0905 19.8201 11.1713C16.6123 12.1122 14.0806 14.6273 13.0662 17.8034C12.4334 19.7847 12.4726 22.0705 13.1823 24.0228C13.3987 24.6181 13.7201 25.124 14.2819 25.4526C14.7947 25.7527 15.5505 25.8799 16.1255 25.6938C17.2783 25.3208 18.2544 24.01 17.7966 22.7507Z" fill="#050610"/>
</svg>
