<svg width="111" height="110" viewBox="0 0 111 110" fill="none" xmlns="http://www.w3.org/2000/svg">
<rect x="0.5" width="110" height="110" rx="55" fill="#F1F1F1"/>
<path d="M56.0001 67.3569C48.9282 67.3569 42.5958 64.1569 38.5288 61.4725C34.1446 58.5792 31.4479 55.7209 31.3352 55.6008C31.1826 55.4379 31.0977 55.2231 31.0977 54.9999C31.0977 54.7766 31.1826 54.5618 31.3352 54.3989C31.4479 54.2788 34.1454 51.4206 38.5288 48.5272C42.5958 45.8428 48.9282 42.6428 56.0001 42.6428C63.072 42.6428 69.4044 45.8428 73.4714 48.5272C77.8548 51.4206 80.5522 54.2786 80.6647 54.3989C80.8174 54.5618 80.9023 54.7766 80.9023 54.9999C80.9023 55.2231 80.8174 55.4379 80.6647 55.6008C80.5522 55.7211 77.8548 58.5792 73.4714 61.4725C69.4044 64.1569 63.072 67.3569 56.0001 67.3569ZM33.2218 54.9999C35.6391 57.326 45.012 65.5991 56.0001 65.5991C67.0032 65.5991 76.3641 57.3272 78.779 55.0002C76.3622 52.6756 66.9889 44.4006 56.0001 44.4006C45.0112 44.4006 35.6393 52.6735 33.2218 54.9999Z" fill="#050610"/>
<path d="M55.9999 67.3569C53.5559 67.3569 51.1668 66.6321 49.1348 65.2743C47.1027 63.9164 45.5189 61.9865 44.5836 59.7286C43.6484 57.4706 43.4037 54.986 43.8805 52.589C44.3574 50.192 45.5343 47.9902 47.2624 46.262C48.9906 44.5339 51.1924 43.357 53.5894 42.8803C55.9865 42.4035 58.471 42.6482 60.729 43.5835C62.9869 44.5188 64.9168 46.1026 66.2746 48.1347C67.6324 50.1668 68.3571 52.5559 68.3571 54.9999C68.3534 58.276 67.0503 61.417 64.7337 63.7336C62.417 66.0502 59.2761 67.3532 55.9999 67.3569ZM55.9999 44.4006C53.9036 44.4007 51.8544 45.0223 50.1114 46.187C48.3683 47.3517 47.0098 49.0071 46.2076 50.9438C45.4054 52.8806 45.1956 55.0117 45.6046 57.0678C46.0136 59.1238 47.0231 61.0124 48.5054 62.4947C49.9877 63.977 51.8763 64.9865 53.9324 65.3954C55.9884 65.8044 58.1196 65.5945 60.0563 64.7922C61.993 63.99 63.6484 62.6315 64.813 60.8885C65.9777 59.1454 66.5993 57.0962 66.5993 54.9999C66.5961 52.1897 65.4784 49.4956 63.4913 47.5086C61.5042 45.5215 58.81 44.4038 55.9999 44.4006Z" fill="#050610"/>
<path d="M56.0002 41.0238C55.7671 41.0238 55.5435 40.9312 55.3787 40.7664C55.2139 40.6015 55.1213 40.378 55.1213 40.1449V36.823C55.1213 36.5899 55.2139 36.3663 55.3787 36.2015C55.5435 36.0367 55.7671 35.9441 56.0002 35.9441C56.2333 35.9441 56.4568 36.0367 56.6217 36.2015C56.7865 36.3663 56.8791 36.5899 56.8791 36.823V40.1449C56.8791 40.378 56.7865 40.6015 56.6217 40.7664C56.4568 40.9312 56.2333 41.0238 56.0002 41.0238ZM48.5734 43.0142C48.419 43.0143 48.2673 42.9737 48.1336 42.8965C47.9999 42.8193 47.8889 42.7083 47.8117 42.5746L46.1516 39.6976C46.0368 39.4958 46.0066 39.2569 46.0674 39.0329C46.1282 38.8089 46.2751 38.6181 46.4761 38.5021C46.6771 38.386 46.9159 38.3542 47.1403 38.4135C47.3646 38.4728 47.5564 38.6185 47.6738 38.8187L49.334 41.6957C49.4111 41.8292 49.4518 41.9807 49.4518 42.135C49.4519 42.2892 49.4114 42.4407 49.3343 42.5744C49.2573 42.708 49.1464 42.819 49.0129 42.8962C48.8794 42.9734 48.7277 43.0141 48.5734 43.0142ZM46.9109 71.621C46.7567 71.6209 46.6052 71.5802 46.4717 71.503C46.3381 71.4258 46.2273 71.3148 46.1502 71.1812C46.0732 71.0476 46.0327 70.896 46.0327 70.7418C46.0328 70.5876 46.0734 70.436 46.1506 70.3025L47.8107 67.4257C47.868 67.325 47.9447 67.2365 48.0363 67.1655C48.1279 67.0945 48.2326 67.0423 48.3445 67.0119C48.4564 66.9816 48.5731 66.9736 48.6881 66.9886C48.803 67.0035 48.9139 67.041 49.0142 67.099C49.1146 67.1569 49.2026 67.2342 49.273 67.3263C49.3434 67.4183 49.3949 67.5234 49.4245 67.6355C49.4541 67.7475 49.4613 67.8644 49.4456 67.9792C49.4299 68.094 49.3916 68.2046 49.333 68.3046L47.6728 71.1814C47.5957 71.3152 47.4846 71.4262 47.3508 71.5034C47.2171 71.5806 47.0654 71.6212 46.9109 71.621ZM56.0002 74.0558C55.7671 74.0558 55.5435 73.9632 55.3787 73.7984C55.2139 73.6336 55.1213 73.41 55.1213 73.1769V69.8552C55.1213 69.6221 55.2139 69.3986 55.3787 69.2337C55.5435 69.0689 55.7671 68.9763 56.0002 68.9763C56.2333 68.9763 56.4568 69.0689 56.6217 69.2337C56.7865 69.3986 56.8791 69.6221 56.8791 69.8552V73.1769C56.8791 73.41 56.7865 73.6336 56.6217 73.7984C56.4568 73.9632 56.2333 74.0558 56.0002 74.0558ZM65.0894 71.621C64.935 71.6211 64.7834 71.5805 64.6496 71.5033C64.5159 71.4262 64.4049 71.3151 64.3277 71.1814L62.6676 68.3046C62.551 68.1027 62.5194 67.8628 62.5798 67.6377C62.6401 67.4125 62.7875 67.2205 62.9893 67.104C63.1912 66.9874 63.4312 66.9558 63.6563 67.0162C63.8815 67.0765 64.0735 67.2238 64.19 67.4257L65.8502 70.3025C65.9274 70.4361 65.968 70.5876 65.9681 70.7418C65.9681 70.8961 65.9276 71.0477 65.8505 71.1813C65.7734 71.3149 65.6625 71.4259 65.529 71.5031C65.3954 71.5803 65.2437 71.621 65.0894 71.621ZM63.4269 43.0142C63.2727 43.0141 63.1212 42.9734 62.9877 42.8962C62.8542 42.819 62.7433 42.708 62.6663 42.5744C62.5892 42.4407 62.5487 42.2892 62.5487 42.135C62.5488 41.9807 62.5894 41.8292 62.6666 41.6957L64.3267 38.8187C64.4433 38.6167 64.6353 38.4692 64.8606 38.4088C65.0859 38.3484 65.3259 38.3799 65.5279 38.4964C65.7299 38.613 65.8774 38.805 65.9378 39.0303C65.9983 39.2555 65.9667 39.4956 65.8502 39.6976L64.19 42.5746C64.1128 42.7085 64.0015 42.8197 63.8675 42.8969C63.7335 42.974 63.5816 43.0145 63.4269 43.0142ZM62.6588 54.641C62.4257 54.641 62.2021 54.5484 62.0373 54.3835C61.8725 54.2187 61.7799 53.9952 61.7799 53.7621V51.7726H59.7892C59.5561 51.7726 59.3326 51.68 59.1678 51.5152C59.0029 51.3504 58.9103 51.1268 58.9103 50.8937C58.9103 50.6606 59.0029 50.437 59.1678 50.2722C59.3326 50.1074 59.5561 50.0148 59.7892 50.0148H62.658C62.8911 50.0148 63.1147 50.1074 63.2795 50.2722C63.4443 50.437 63.5369 50.6606 63.5369 50.8937V53.7621C63.5369 53.995 63.4444 54.2185 63.2798 54.3833C63.1151 54.5481 62.8917 54.6408 62.6588 54.641Z" fill="#050610"/>
<path d="M49.3418 59.9856C49.168 59.9857 48.998 59.9341 48.8535 59.8375C48.709 59.741 48.5963 59.6037 48.5298 59.4431C48.4633 59.2825 48.4459 59.1058 48.4798 58.9353C48.5137 58.7648 48.5974 58.6082 48.7203 58.4853L53.9926 53.213C54.0742 53.1314 54.1711 53.0666 54.2777 53.0225C54.3844 52.9783 54.4987 52.9556 54.6141 52.9556C54.7295 52.9556 54.8438 52.9783 54.9504 53.0225C55.0571 53.0666 55.1539 53.1314 55.2356 53.213L57.1658 55.1435L62.0373 50.272C62.2022 50.1072 62.4257 50.0146 62.6588 50.0146C62.8919 50.0147 63.1155 50.1073 63.2803 50.2722C63.4451 50.437 63.5376 50.6606 63.5376 50.8937C63.5376 51.1268 63.4449 51.3503 63.2801 51.5151L57.7871 57.0079C57.6223 57.1727 57.3989 57.2653 57.1658 57.2653C57.0504 57.2653 56.9361 57.2426 56.8295 57.1984C56.7228 57.1543 56.626 57.0895 56.5443 57.0079L54.6135 55.078L49.9633 59.7282C49.8818 59.81 49.7849 59.8748 49.6782 59.919C49.5716 59.9632 49.4572 59.9858 49.3418 59.9856Z" fill="#050610"/>
</svg>
