<svg width="111" height="110" viewBox="0 0 111 110" fill="none" xmlns="http://www.w3.org/2000/svg">
<rect x="0.5" width="110" height="110" rx="55" fill="#F1F1F1"/>
<path d="M56 76.875C59.7679 76.8749 63.4719 75.9016 66.7531 74.0494C70.0343 72.1971 72.7815 69.5287 74.7283 66.3027C76.6752 63.0768 77.7558 59.4026 77.8654 55.6363C77.975 51.87 77.1099 48.1392 75.3539 44.8055C75.2545 44.6265 75.0889 44.4938 74.8927 44.4357C74.6964 44.3776 74.4852 44.3988 74.3044 44.4948C74.1237 44.5908 73.9878 44.7539 73.9261 44.9491C73.8643 45.1442 73.8816 45.3558 73.9742 45.5383C75.5121 48.4549 76.3148 51.7028 76.3125 55C75.1992 81.943 36.8008 81.943 35.6875 55C35.5 39.9359 52.25 29.8391 65.4625 37.0266C65.5531 37.0746 65.6524 37.1044 65.7545 37.1141C65.8566 37.1238 65.9597 37.1133 66.0578 37.0832C66.1559 37.0531 66.247 37.004 66.3261 36.9386C66.4052 36.8733 66.4707 36.793 66.5187 36.7023C66.5668 36.6117 66.5966 36.5125 66.6063 36.4103C66.616 36.3082 66.6055 36.2052 66.5754 36.1071C66.5453 36.009 66.4962 35.9178 66.4308 35.8387C66.3655 35.7596 66.2852 35.6942 66.1945 35.6461C63.0523 33.9883 59.5527 33.1229 56 33.125C26.9844 34.3242 26.9844 75.6766 56 76.875Z" fill="#050610"/>
<path d="M56.0002 48.75C56.6765 48.7495 57.3482 48.8618 57.9877 49.082C58.1836 49.1495 58.3983 49.1363 58.5845 49.0455C58.7707 48.9546 58.9132 48.7936 58.9807 48.5977C59.3244 47.2172 56.8908 47.2719 56.0002 47.1875C45.6369 47.6156 45.6377 62.3844 56.0002 62.8125C58.0715 62.8102 60.0573 61.9864 61.522 60.5218C62.9866 59.0571 63.8104 57.0713 63.8127 55C63.733 54.0938 63.7854 51.6852 62.4096 52.0273C62.2139 52.0948 62.0529 52.2372 61.9621 52.4232C61.8713 52.6092 61.858 52.8237 61.9252 53.0195C62.1428 53.657 62.2526 54.3264 62.2502 55C61.9369 63.2789 50.0627 63.2789 49.7502 55C49.7523 53.343 50.4114 51.7545 51.5831 50.5829C52.7547 49.4112 54.3432 48.7521 56.0002 48.75Z" fill="#050610"/>
<path d="M63.4807 43.0742C63.5305 42.9845 63.5621 42.8858 63.5737 42.7838C63.5854 42.6818 63.5768 42.5785 63.5485 42.4798C63.5202 42.3812 63.4727 42.289 63.4088 42.2087C63.3449 42.1284 63.2658 42.0614 63.176 42.0117C60.9796 40.7961 58.5106 40.1577 56.0002 40.1562C36.3111 40.9703 36.3111 69.0305 56.0002 69.8438C58.5823 69.8453 61.1202 69.1728 63.3628 67.8929C65.6054 66.6129 67.475 64.7697 68.7869 62.5457C70.0988 60.3216 70.8074 57.7936 70.8428 55.2117C70.8781 52.6298 70.239 50.0834 68.9885 47.8242C68.888 47.6429 68.7196 47.509 68.5203 47.4518C68.3211 47.3947 68.1073 47.419 67.926 47.5195C67.7447 47.62 67.6107 47.7884 67.5536 47.9877C67.4964 48.1869 67.5208 48.4007 67.6213 48.582C72.5744 57.1695 65.9221 68.4531 56.0002 68.2812C52.479 68.2773 49.1031 66.8768 46.6133 64.3869C44.1234 61.8971 42.7229 58.5212 42.7189 55C42.5486 45.0789 53.8291 38.4258 62.4182 43.3789C62.5079 43.4289 62.6066 43.4607 62.7086 43.4725C62.8107 43.4842 62.914 43.4757 63.0127 43.4474C63.1115 43.4191 63.2036 43.3715 63.2839 43.3075C63.3642 43.2434 63.4311 43.1642 63.4807 43.0742Z" fill="#050610"/>
<path d="M65.0033 40.8579L65.29 44.6056L55.4478 54.4478C55.3055 54.5951 55.2268 54.7925 55.2285 54.9973C55.2303 55.2021 55.3125 55.3981 55.4573 55.5429C55.6022 55.6878 55.7981 55.7699 56.003 55.7717C56.2078 55.7735 56.4052 55.6948 56.5525 55.5524L66.3947 45.7103L70.1424 45.997C70.2546 46.0055 70.3674 45.9897 70.473 45.9506C70.5786 45.9115 70.6745 45.85 70.7541 45.7704L76.44 40.0845C76.5434 39.978 76.6145 39.8444 76.6452 39.6992C76.6758 39.5539 76.6648 39.403 76.6133 39.2638C76.5618 39.1246 76.472 39.0028 76.3543 38.9124C76.2365 38.8221 76.0956 38.7669 75.9478 38.7532L72.5103 38.4899L72.247 35.0524C72.2334 34.9047 72.1782 34.7637 72.0878 34.646C71.9975 34.5282 71.8757 34.4384 71.7365 34.387C71.5973 34.3355 71.4463 34.3244 71.3011 34.3551C71.1559 34.3858 71.0223 34.4569 70.9158 34.5603L65.2299 40.2462C65.1502 40.3258 65.0886 40.4216 65.0495 40.5272C65.0104 40.6328 64.9946 40.7456 65.0033 40.8579ZM70.8189 36.8665C71.1314 40.5048 70.5158 39.8642 74.1338 40.1814L69.9033 44.4118L66.8244 44.1759L66.5884 41.0978L70.8189 36.8665Z" fill="#050610"/>
</svg>
