<svg width="205" height="17" viewBox="0 0 205 17" fill="none" xmlns="http://www.w3.org/2000/svg">
<path d="M195.359 0.683425C191.427 0.242729 144.191 -0.6045 117.306 0.683431C65.5598 3.16235 19.5953 9.2219 8.89921 11.4254C-1.79693 13.6289 -2.17823 15.1489 4.18172 15.6998C10.8306 16.2757 22.1971 16.1078 29.1352 14.7306C28.0752 15.3733 27.3085 17.3878 29.1352 16.9341C30.7775 16.5261 89.5539 11.9763 93.0229 11.9763C96.4919 11.9763 105.454 12.5271 108.633 11.9763C111.813 11.4254 187.709 12.7156 192.757 12.8026C201.048 12.9454 203.65 12.9454 204.321 12.5271C205.416 11.8437 202.586 8.48741 201.141 7.29386C204.807 8.26304 205.385 7.71217 204.807 6.335C203.728 3.7649 200.273 1.23429 195.359 0.683425Z" fill="#E61F57"/>
</svg>
