<svg width="70" height="70" viewBox="0 0 70 70" fill="none" xmlns="http://www.w3.org/2000/svg">
<path fill-rule="evenodd" clip-rule="evenodd" d="M53.1403 18.7008V13.634C50.869 12.6797 49.274 10.4344 49.2742 7.81648C49.274 5.35787 50.6808 3.2282 52.733 2.1875L52.7329 8.52934L55.5817 10.1741L58.4303 8.5292V2.1875C60.4826 3.2282 61.8892 5.35787 61.8892 7.81648C61.8893 10.4344 60.2942 12.6797 58.0231 13.634V18.7008H53.1403ZM60.1247 26.2511H19.4984L17.581 18.3077C17.1678 16.5956 15.6654 15.4067 13.9028 15.4067H9.87427C8.90015 15.4067 8.1106 16.1964 8.1106 17.1704C8.1106 18.1444 8.90028 18.9339 9.87427 18.9339H13.9028C14.035 18.9339 14.1324 19.0039 14.164 19.1343L20.885 46.9757C18.2419 47.8918 16.4418 50.3937 16.4418 53.2055C16.4418 56.8337 19.404 59.7957 23.0321 59.7957H23.1665C22.8749 60.4857 22.7137 61.2441 22.7137 62.0404C22.7137 65.2281 25.2978 67.8124 28.4857 67.8124C31.6735 67.8124 34.2576 65.2282 34.2576 62.0404C34.2576 61.2441 34.0965 60.4857 33.8048 59.7957H44.5221C44.2305 60.4857 44.0693 61.2441 44.0693 62.0404C44.0693 65.2281 46.6534 67.8124 49.8413 67.8124C53.0291 67.8124 55.6133 65.2282 55.6133 62.0404C55.6133 58.8525 53.0291 56.2684 49.8413 56.2684C40.9355 56.3825 31.9471 56.2684 23.0321 56.2684C21.351 56.2684 19.9692 54.8866 19.9692 53.2053C19.9692 51.5241 21.351 50.1423 23.0321 50.1423H50.2293C53.1812 50.1423 55.7203 48.2609 56.5897 45.4416L61.7641 28.6655C62.219 27.5219 61.3795 26.2511 60.1247 26.2511ZM49.8413 59.6904C51.1391 59.6904 52.1913 60.7426 52.1913 62.0405C52.1913 63.3384 51.1391 64.3906 49.8413 64.3906C48.5433 64.3906 47.4912 63.3384 47.4912 62.0405C47.4912 60.7426 48.5433 59.6904 49.8413 59.6904ZM28.4857 59.6904C29.7837 59.6904 30.8357 60.7426 30.8357 62.0405C30.8357 63.3384 29.7837 64.3906 28.4857 64.3906C27.1878 64.3906 26.1356 63.3384 26.1356 62.0405C26.1356 60.7426 27.1876 59.6904 28.4857 59.6904ZM29.6726 46.6154H24.4146L23.3107 42.0425H29.6726V46.6154ZM29.6726 39.855H22.7826L21.9558 36.4302H29.6726V39.855ZM29.6726 34.2427H21.4277L20.3499 29.7783H29.6725V34.2427H29.6726ZM37.7634 46.6154H31.8601V42.0425H37.7634V46.6154ZM37.7634 39.855H31.8601V36.4302H37.7634V39.855ZM37.7634 34.2427H31.8601V29.7783H37.7634V34.2427ZM45.8541 46.6154H39.9509V42.0425H45.8541V46.6154ZM45.8541 39.855H39.9509V36.4302H45.8541V39.855ZM45.8541 34.2427H39.9509V29.7783H45.8541V34.2427ZM53.2279 44.4084C52.8105 45.7618 51.6435 46.6154 50.2293 46.6154H48.0416V42.0425H53.9576L53.2279 44.4084ZM54.6324 39.855H48.0416V36.4302H55.6887L54.6324 39.855ZM56.3634 34.2427H48.0416V29.7783H57.7405L56.3634 34.2427ZM35.6146 20.8883H59.2195C59.9714 20.8883 60.5867 21.5035 60.5867 22.2555V24.0905C60.4356 24.0732 60.2816 24.0637 60.1247 24.0637H34.2475V22.2555C34.2475 21.5034 34.8626 20.8883 35.6146 20.8883ZM37.8357 18.7008V11.4487L36.4149 8.35844L37.8357 2.1875L41.976 2.18764L43.3969 8.35857L41.976 11.4488L41.9758 18.7008H37.8357ZM34.1159 8.59455L34.9575 4.9391L34.5834 5.10521C33.7462 4.58965 32.8325 4.21039 31.876 3.98275L31.1849 2.1875H28.2525L27.5614 3.98289C26.6048 4.21053 25.6913 4.58979 24.854 5.10535L23.0947 4.324L21.0211 6.39762L21.8023 8.15678C21.2867 8.99404 20.9075 9.90787 20.6798 10.8645L18.8847 11.5555V14.4878L20.6797 15.1787C20.9073 16.1354 21.2865 17.0495 21.8023 17.8869L21.0212 19.6457L23.0948 21.7193L24.8543 20.9379C25.6917 21.4535 26.6051 21.8328 27.5617 22.0604L28.2528 23.8558H31.1853L31.8761 22.0608C31.9405 22.0455 32.0048 22.0295 32.0689 22.0127C32.1948 20.1698 33.7415 18.7009 35.615 18.7009H35.6488V11.9275L34.1159 8.59455ZM29.7187 18.1357C26.894 18.1357 24.6046 15.8464 24.6046 13.0216C24.6046 10.1969 26.8941 7.9074 29.7187 7.9074C32.5433 7.9074 34.8328 10.1969 34.8328 13.0216C34.8328 15.8463 32.5433 18.1357 29.7187 18.1357Z" fill="#050610"/>
</svg>
