<svg width="56" height="49" viewBox="0 0 56 49" fill="none" xmlns="http://www.w3.org/2000/svg">
<path d="M22.8491 25.9893H32.5951V29.2379H22.8491V25.9893Z" fill="#C0C0C0"/>
<path d="M44.9809 29.2383H35.8436V30.8626C35.8436 31.7603 35.117 32.4869 34.2193 32.4869H21.2246C20.3269 32.4869 19.6003 31.7603 19.6003 30.8626V29.2383H10.463C9.4402 29.2391 8.44315 28.9177 7.61338 28.3198C6.78361 27.7218 6.16328 26.8777 5.84045 25.9072L0 8.3833V43.8571C0 46.544 2.18614 48.73 4.873 48.73H50.5709C53.2579 48.73 55.4439 46.5439 55.4439 43.8571V8.3846L49.603 25.9072C49.2804 26.8777 48.6602 27.7218 47.8305 28.3198C47.0008 28.9178 46.0038 29.2392 44.981 29.2383H44.9809Z" fill="#C0C0C0"/>
<path d="M34.2194 0H21.2247C18.5377 0 16.3517 2.1861 16.3517 4.87292V6.49723H2.79492L8.92126 24.8785C9.02911 25.202 9.23607 25.4834 9.51279 25.6827C9.78951 25.882 10.1219 25.9891 10.463 25.9889H19.6004V24.3646C19.6004 23.4669 20.327 22.7403 21.2247 22.7403H34.2194C35.1171 22.7403 35.8437 23.4669 35.8437 24.3646V25.9889H44.981C45.6806 25.9889 46.3007 25.5431 46.5228 24.8785L52.6496 6.49723H39.0924V4.87292C39.0924 2.18599 36.9064 0 34.2194 0ZM19.6004 6.49723V4.87292C19.6004 3.97663 20.3284 3.24861 21.2247 3.24861H34.2194C35.1157 3.24861 35.8437 3.97663 35.8437 4.87292V6.49723H19.6004Z" fill="#F1F1F1"/>
</svg>
