<svg width="40" height="40" viewBox="0 0 40 40" fill="none" xmlns="http://www.w3.org/2000/svg">
<path d="M16.5088 20.4707H23.0343V22.6323H16.5088V20.4707Z" fill="#151515"/>
<path d="M31.3272 22.6327H25.2093V23.7135C25.2093 24.3109 24.7228 24.7943 24.1217 24.7943H15.421C14.82 24.7943 14.3335 24.3109 14.3335 23.7135V22.6327H8.21553C7.53071 22.6333 6.86312 22.4194 6.30755 22.0216C5.75197 21.6236 5.33662 21.062 5.12047 20.4162L1.20996 8.75586V32.36C1.20996 34.1479 2.6737 35.6025 4.47271 35.6025H35.07C36.8691 35.6025 38.3328 34.1478 38.3328 32.36V8.75672L34.422 20.4162C34.206 21.062 33.7907 21.6236 33.2352 22.0216C32.6796 22.4195 32.012 22.6333 31.3272 22.6327Z" fill="#151515"/>
<path d="M24.1225 3.17773H15.4218C13.6227 3.17773 12.1591 4.63236 12.1591 6.42016V7.50097H3.08203L7.18396 19.7318C7.25617 19.9471 7.39474 20.1343 7.58002 20.2669C7.7653 20.3996 7.98786 20.4708 8.21624 20.4707H14.3342V19.3899C14.3342 18.7925 14.8207 18.3091 15.4218 18.3091H24.1225C24.7235 18.3091 25.21 18.7925 25.21 19.3899V20.4707H31.328C31.7964 20.4707 32.2116 20.174 32.3603 19.7318L36.4625 7.50097H27.3852V6.42016C27.3852 4.63229 25.9216 3.17773 24.1225 3.17773ZM14.3342 7.50097V6.42016C14.3342 5.82377 14.8217 5.33935 15.4218 5.33935H24.1225C24.7226 5.33935 25.21 5.82377 25.21 6.42016V7.50097H14.3342Z" fill="#2A2A2A"/>
</svg>
