<svg width="37" height="34" viewBox="0 0 37 34" fill="none" xmlns="http://www.w3.org/2000/svg">
<path d="M11.6654 29.9993V19.9993H24.9987V29.9993H29.9987V3.33268H6.66536V29.9993H11.6654ZM14.9987 29.9993H21.6654V23.3327H14.9987V29.9993ZM33.332 29.9993H36.6654V33.3327H-0.00130203V29.9993H3.33203V1.66602C3.33203 1.19935 3.48759 0.810459 3.7987 0.499348C4.13203 0.166015 4.53203 -0.000651836 4.9987 -0.000651836H31.6654C32.132 -0.000651836 32.5209 0.166015 32.832 0.499348C33.1654 0.810459 33.332 1.19935 33.332 1.66602V29.9993ZM16.6654 9.99935V6.66602H19.9987V9.99935H23.332V13.3327H19.9987V16.666H16.6654V13.3327H13.332V9.99935H16.6654Z" fill="white"/>
</svg>
