<svg width="34" height="34" viewBox="0 0 34 34" fill="none" xmlns="http://www.w3.org/2000/svg">
<path d="M0.00130218 29.9993H33.3346V33.3327H0.00130218V29.9993ZM3.33464 16.666H6.66797V28.3327H3.33464V16.666ZM11.668 16.666H15.0013V28.3327H11.668V16.666ZM18.3346 16.666H21.668V28.3327H18.3346V16.666ZM26.668 16.666H30.0013V28.3327H26.668V16.666ZM0.00130218 8.33268L16.668 -0.000651836L33.3346 8.33268V14.9993H0.00130218V8.33268ZM3.33464 10.3993V11.666H30.0013V10.3993L16.668 3.73268L3.33464 10.3993ZM16.668 9.99935C16.2013 9.99935 15.8013 9.84379 15.468 9.53268C15.1569 9.19935 15.0013 8.79935 15.0013 8.33268C15.0013 7.86601 15.1569 7.47713 15.468 7.16602C15.8013 6.83268 16.2013 6.66602 16.668 6.66602C17.1346 6.66602 17.5235 6.83268 17.8346 7.16602C18.168 7.47713 18.3346 7.86601 18.3346 8.33268C18.3346 8.79935 18.168 9.19935 17.8346 9.53268C17.5235 9.84379 17.1346 9.99935 16.668 9.99935Z" fill="#050610"/>
</svg>
