<svg width="70" height="70" viewBox="0 0 70 70" fill="none" xmlns="http://www.w3.org/2000/svg">
<path fill-rule="evenodd" clip-rule="evenodd" d="M14.3503 67.8124H55.6498C56.1768 67.8124 56.6068 67.3824 56.6068 66.8554V64.4808C56.6068 62.6485 54.7305 61.1493 52.4371 61.1493H44.9947V53.3809H61.9116C64.6007 53.3809 66.8011 51.1807 66.8011 48.4914V14.8542C66.8011 12.165 64.6009 9.96478 61.9116 9.96478H52.0657C52.37 10.664 52.6121 11.3979 52.7836 12.1602C53.814 12.6256 54.7363 13.2719 55.5159 14.0535H62.0341C62.4071 14.0535 62.7122 14.3588 62.7122 14.7316V45.1448H7.28769V14.7316C7.28769 14.3586 7.59284 14.0535 7.96581 14.0535H14.484C14.9862 13.5502 15.5484 13.1025 16.1622 12.7225C16.21 11.7738 16.3571 10.8515 16.5919 9.96478H8.08845C5.39919 9.96478 3.19897 12.165 3.19897 14.8542V48.4914C3.19897 51.1807 5.39919 53.3809 8.08845 53.3809H25.0053V61.1493H17.5629C15.2696 61.1493 13.3933 62.6484 13.3933 64.4808V66.8554C13.3933 67.3826 13.8231 67.8124 14.3503 67.8124ZM36.0938 36.9604C37.0596 37.3824 37.7345 38.3458 37.7345 39.467C37.7345 40.9772 36.5104 42.2014 35.0002 42.2014C33.49 42.2014 32.2658 40.9772 32.2658 39.467C32.2658 38.3458 32.9406 37.3825 33.9064 36.9604V27.5733H30.9254V35.7011C30.9254 36.3051 30.4357 36.7949 29.8317 36.7949H24.2594C23.8375 37.7605 22.874 38.4355 21.7528 38.4355C20.2426 38.4355 19.0184 37.2113 19.0184 35.7011C19.0184 34.1909 20.2426 32.9667 21.7528 32.9667C22.874 32.9667 23.8375 33.6417 24.2594 34.6074H28.7378V27.5733H20.9929C17.132 27.5733 13.9732 24.4146 13.9732 20.5536C13.9732 17.6258 15.79 15.1024 18.3515 14.0533C18.3393 13.8391 18.3325 13.6232 18.3325 13.4058C18.3325 7.21003 23.3553 2.18726 29.5512 2.18726C32.5822 2.18726 35.332 3.38956 37.3508 5.343C38.4187 4.96005 39.5697 4.75142 40.7694 4.75142C45.9909 4.75142 50.2892 8.703 50.8383 13.7784C53.8185 14.5892 56.0267 17.3257 56.0267 20.5536C56.0267 24.4146 52.8679 27.5733 49.007 27.5733H41.2622V34.6074H45.7407C46.1626 33.6417 47.126 32.9667 48.2473 32.9667C49.7575 32.9667 50.9816 34.1909 50.9816 35.7011C50.9816 37.2113 49.7575 38.4355 48.2473 38.4355C47.126 38.4355 46.1626 37.7605 45.7407 36.7949H40.1684C39.5644 36.7949 39.0747 36.3051 39.0747 35.7011V27.5733H36.0938V36.9604ZM29.5512 5.33288C30.1553 5.33288 30.645 5.82261 30.645 6.42663C30.645 7.03065 30.1553 7.52038 29.5512 7.52038C26.2992 7.52038 23.6656 10.154 23.6656 13.406C23.6656 14.01 23.1759 14.4997 22.5719 14.4997C21.9679 14.4997 21.4781 14.01 21.4781 13.406C21.478 8.94622 25.0915 5.33288 29.5512 5.33288Z" fill="#050610"/>
</svg>
