<svg width="110" height="110" viewBox="0 0 110 110" fill="none" xmlns="http://www.w3.org/2000/svg">
<rect width="110" height="110" rx="55" fill="#F1F1F1"/>
<mask id="path-2-outside-1_403_4640" maskUnits="userSpaceOnUse" x="29" y="29.0039" width="52" height="52" fill="black">
<rect fill="white" x="29" y="29.0039" width="52" height="52"/>
<path d="M40.309 63.4733L30.7687 73.0136C30.2765 73.5072 30 74.1758 30 74.8729C30 75.57 30.2765 76.2387 30.7687 76.7323L33.268 79.2316C33.7616 79.7238 34.4302 80.0002 35.1273 80.0002C35.8244 80.0002 36.493 79.7238 36.9866 79.2316L46.5269 69.6912C46.9289 69.2881 47.1895 68.7656 47.2696 68.202C47.3496 67.6383 47.2449 67.0639 46.9711 66.5648L48.6484 64.8874C51.5294 67.1074 54.9745 68.476 58.5935 68.838C62.2125 69.2001 65.8605 68.5411 69.1241 66.9359C72.3877 65.3307 75.1364 62.8433 77.0587 59.7558C78.9809 56.6682 79.9999 53.104 80 49.4669C79.9994 46.3719 79.2608 43.3216 77.8456 40.5691C76.4303 37.8165 74.3791 35.4412 71.8621 33.64C69.3452 31.8388 66.435 30.6637 63.3731 30.2122C60.3112 29.7607 57.1857 30.0457 54.256 31.0438C51.3262 32.0418 48.6767 33.7241 46.5272 35.9509C44.3777 38.1778 42.7901 40.8851 41.8962 43.8482C41.0023 46.8114 40.8278 49.945 41.3872 52.9891C41.9466 56.0331 43.2238 58.9 45.1128 61.3517L43.4353 63.029C42.9362 62.7553 42.3618 62.6507 41.7982 62.7307C41.2346 62.8108 40.7121 63.0714 40.309 63.4733ZM45.4221 68.5864L35.8817 78.1267C35.6812 78.3259 35.41 78.4378 35.1273 78.4378C34.8446 78.4378 34.5734 78.3259 34.3728 78.1267L31.8736 75.6275C31.6744 75.4269 31.5625 75.1557 31.5625 74.873C31.5625 74.5903 31.6744 74.319 31.8736 74.1185L41.4139 64.5782C41.6141 64.3784 41.8855 64.2662 42.1684 64.2662C42.4512 64.2662 42.7226 64.3784 42.9228 64.5782L45.4222 67.0774C45.6219 67.2777 45.7341 67.549 45.7341 67.8319C45.7341 68.1148 45.6219 68.3861 45.4221 68.5864ZM47.8731 36.8069C49.5336 35.135 51.5078 33.8074 53.6825 32.9001C55.8572 31.9928 58.1895 31.5237 60.5459 31.5197C62.9022 31.5157 65.2361 31.9769 67.4139 32.8768C69.5916 33.7766 71.5703 35.0975 73.2365 36.7637C74.9027 38.4299 76.2236 40.4086 77.1235 42.5863C78.0233 44.7641 78.4845 47.098 78.4805 49.4544C78.4765 51.8107 78.0074 54.1431 77.1001 56.3177C76.1928 58.4924 74.8652 60.4666 73.1933 62.1271C71.5328 63.7989 69.5587 65.1266 67.384 66.0338C65.2093 66.9411 62.877 67.4102 60.5206 67.4142C58.1643 67.4182 55.8303 66.9571 53.6526 66.0572C51.4749 65.1573 49.4962 63.8364 47.83 62.1702C46.1638 60.504 44.8429 58.5254 43.943 56.3476C43.0432 54.1699 42.582 51.8359 42.586 49.4796C42.59 47.1233 43.0591 44.7909 43.9664 42.6162C44.8737 40.4416 46.2013 38.4674 47.8731 36.8069ZM46.7683 63.232C46.9901 63.4538 47.2164 63.6695 47.4471 63.879L45.9403 65.386L44.6143 64.0599L46.1212 62.5532C46.3308 62.7836 46.5464 63.0099 46.7683 63.232ZM48.8633 51.9241L50.7495 52.2843C50.9602 53.0177 51.2535 53.7248 51.6235 54.392L50.5439 55.9815C50.4418 56.1318 50.3953 56.3131 50.4124 56.4941C50.4296 56.675 50.5093 56.8444 50.6378 56.9729L53.0273 59.3624C53.1559 59.491 53.3252 59.5707 53.5061 59.5878C53.6871 59.6049 53.8684 59.5584 54.0187 59.4563L55.6082 58.3766C56.2755 58.7467 56.9826 59.04 57.7159 59.2507L58.0762 61.137C58.1102 61.3155 58.2055 61.4766 58.3456 61.5925C58.4857 61.7083 58.6618 61.7717 58.8435 61.7717H62.2229C62.4047 61.7717 62.5808 61.7083 62.7209 61.5925C62.861 61.4766 62.9562 61.3155 62.9903 61.137L63.3507 59.2507C64.084 59.0399 64.791 58.7467 65.4583 58.3766L67.0478 59.4564C67.1982 59.5585 67.3795 59.605 67.5605 59.5878C67.7414 59.5707 67.9107 59.491 68.0392 59.3624L70.4288 56.9729C70.5573 56.8444 70.637 56.675 70.6542 56.4941C70.6713 56.3131 70.6248 56.1318 70.5226 55.9815L69.4434 54.3919C69.8134 53.7246 70.1067 53.0176 70.3175 52.2842L72.2037 51.924C72.3822 51.8899 72.5433 51.7946 72.6592 51.6546C72.775 51.5145 72.8384 51.3384 72.8385 51.1567V47.7772C72.8384 47.5954 72.775 47.4194 72.6592 47.2793C72.5433 47.1393 72.3822 47.044 72.2037 47.0099L70.3175 46.6495C70.1066 45.9162 69.8134 45.2091 69.4434 44.5418L70.523 42.9524C70.6252 42.802 70.6717 42.6207 70.6545 42.4398C70.6374 42.2588 70.5577 42.0895 70.4292 41.961L68.0392 39.5714C67.9107 39.4429 67.7414 39.3632 67.5605 39.3461C67.3795 39.329 67.1983 39.3755 67.0479 39.4776L65.4583 40.5569C64.791 40.1868 64.084 39.8936 63.3507 39.6828L62.9903 37.7965C62.9562 37.618 62.861 37.4569 62.7209 37.341C62.5808 37.2252 62.4047 37.1618 62.2229 37.1618H58.8435C58.6618 37.1618 58.4857 37.2252 58.3456 37.341C58.2055 37.4569 58.1102 37.618 58.0762 37.7965L57.7159 39.6828C56.9826 39.8936 56.2756 40.1868 55.6083 40.5569L54.0187 39.4776C53.8684 39.3754 53.6871 39.3289 53.5061 39.3461C53.3252 39.3632 53.1559 39.4429 53.0273 39.5714L50.6378 41.961C50.5093 42.0895 50.4296 42.2588 50.4124 42.4398C50.3953 42.6207 50.4418 42.802 50.5439 42.9524L51.6235 44.5418C51.2535 45.2091 50.9603 45.9162 50.7495 46.6495L48.8633 47.0099C48.6847 47.044 48.5237 47.1393 48.4078 47.2793C48.2919 47.4194 48.2285 47.5954 48.2285 47.7772V51.1567C48.2285 51.3385 48.2919 51.5146 48.4078 51.6546C48.5236 51.7947 48.6847 51.89 48.8633 51.9241ZM49.791 48.4234L51.5274 48.0913C51.6759 48.063 51.813 47.9922 51.922 47.8875C52.031 47.7828 52.1073 47.6487 52.1417 47.5015C52.3544 46.5894 52.7155 45.7184 53.2106 44.9234C53.2905 44.795 53.3313 44.6462 53.3283 44.4951C53.3252 44.344 53.2784 44.197 53.1935 44.0719L52.1994 42.6083L53.6753 41.133L55.1389 42.1272C55.2639 42.2121 55.4109 42.2589 55.5621 42.262C55.7132 42.265 55.862 42.2241 55.9903 42.1443C56.7854 41.6492 57.6563 41.2881 58.5684 41.0753C58.7157 41.041 58.8498 40.9647 58.9545 40.8557C59.0592 40.7466 59.13 40.6096 59.1584 40.4611L59.4904 38.7246H61.5775L61.9096 40.4611C61.9379 40.6095 62.0087 40.7466 62.1134 40.8556C62.2181 40.9647 62.3522 41.041 62.4994 41.0753C63.4115 41.288 64.2825 41.6491 65.0775 42.1442C65.2059 42.224 65.3546 42.2649 65.5058 42.2619C65.6569 42.2589 65.8039 42.2121 65.929 42.1272L67.3913 41.133L68.8672 42.6089L67.873 44.0725C67.7881 44.1975 67.7413 44.3445 67.7383 44.4956C67.7352 44.6467 67.7761 44.7955 67.8559 44.9239C68.3509 45.7189 68.7121 46.5899 68.9248 47.502C68.9591 47.6492 69.0354 47.7833 69.1445 47.888C69.2535 47.9927 69.3906 48.0636 69.5391 48.0919L71.2755 48.424V50.5112L69.5391 50.8432C69.3906 50.8716 69.2536 50.9424 69.1446 51.0471C69.0356 51.1517 68.9593 51.2858 68.9249 51.4329C68.7122 52.3451 68.351 53.216 67.8559 54.0111C67.7761 54.1395 67.7352 54.2883 67.7382 54.4394C67.7412 54.5906 67.7881 54.7377 67.873 54.8627L68.8672 56.3248L67.3914 57.8007L65.9277 56.8069C65.8027 56.7219 65.6557 56.6751 65.5046 56.672C65.3534 56.6689 65.2046 56.7098 65.0763 56.7896C64.2812 57.2848 63.4103 57.646 62.4981 57.8587C62.3509 57.8931 62.2168 57.9694 62.1121 58.0784C62.0074 58.1874 61.9366 58.3245 61.9082 58.473L61.5762 60.2093H59.4897L59.1577 58.473C59.1294 58.3245 59.0585 58.1875 58.9538 58.0784C58.8491 57.9694 58.7151 57.8931 58.5679 57.8587C57.6557 57.646 56.7848 57.2848 55.9897 56.7897C55.8613 56.7098 55.7125 56.6689 55.5614 56.672C55.4102 56.675 55.2631 56.7219 55.1381 56.8069L53.6747 57.8009L52.1988 56.325L53.1934 54.8614C53.2783 54.7363 53.3251 54.5893 53.3282 54.4381C53.3312 54.287 53.2904 54.1382 53.2105 54.0098C52.7154 53.2148 52.3542 52.3438 52.1416 51.4317C52.1073 51.2845 52.031 51.1504 51.9219 51.0456C51.8129 50.9409 51.6758 50.8701 51.5273 50.8417L49.7909 50.5097L49.791 48.4234ZM60.5332 54.7077C61.5697 54.7078 62.583 54.4005 63.4449 53.8247C64.3068 53.2489 64.9786 52.4304 65.3753 51.4728C65.7721 50.5152 65.8759 49.4615 65.6738 48.4448C65.4716 47.4282 64.9725 46.4943 64.2396 45.7614C63.5067 45.0284 62.5729 44.5292 61.5563 44.3269C60.5397 44.1247 59.4859 44.2284 58.5283 44.6251C57.5706 45.0217 56.7521 45.6934 56.1762 46.5553C55.6003 47.4171 55.293 48.4304 55.293 49.4669C55.2946 50.8562 55.8472 52.1882 56.8296 53.1706C57.812 54.153 59.144 54.7056 60.5333 54.7073L60.5332 54.7077ZM60.5332 45.7888C61.2607 45.7887 61.9719 46.0044 62.5768 46.4085C63.1818 46.8126 63.6533 47.387 63.9318 48.0591C64.2103 48.7312 64.2832 49.4708 64.1413 50.1844C63.9994 50.8979 63.6491 51.5533 63.1347 52.0678C62.6203 52.5822 61.9649 52.9326 61.2514 53.0746C60.5379 53.2165 59.7983 53.1437 59.1261 52.8653C58.454 52.5869 57.8795 52.1154 57.4753 51.5105C57.0712 50.9056 56.8554 50.1944 56.8555 49.4669C56.8565 48.4918 57.2444 47.5569 57.9338 46.8674C58.6233 46.1778 59.5582 45.7899 60.5333 45.7887L60.5332 45.7888Z"/>
</mask>
<path d="M40.309 63.4733L30.7687 73.0136C30.2765 73.5072 30 74.1758 30 74.8729C30 75.57 30.2765 76.2387 30.7687 76.7323L33.268 79.2316C33.7616 79.7238 34.4302 80.0002 35.1273 80.0002C35.8244 80.0002 36.493 79.7238 36.9866 79.2316L46.5269 69.6912C46.9289 69.2881 47.1895 68.7656 47.2696 68.202C47.3496 67.6383 47.2449 67.0639 46.9711 66.5648L48.6484 64.8874C51.5294 67.1074 54.9745 68.476 58.5935 68.838C62.2125 69.2001 65.8605 68.5411 69.1241 66.9359C72.3877 65.3307 75.1364 62.8433 77.0587 59.7558C78.9809 56.6682 79.9999 53.104 80 49.4669C79.9994 46.3719 79.2608 43.3216 77.8456 40.5691C76.4303 37.8165 74.3791 35.4412 71.8621 33.64C69.3452 31.8388 66.435 30.6637 63.3731 30.2122C60.3112 29.7607 57.1857 30.0457 54.256 31.0438C51.3262 32.0418 48.6767 33.7241 46.5272 35.9509C44.3777 38.1778 42.7901 40.8851 41.8962 43.8482C41.0023 46.8114 40.8278 49.945 41.3872 52.9891C41.9466 56.0331 43.2238 58.9 45.1128 61.3517L43.4353 63.029C42.9362 62.7553 42.3618 62.6507 41.7982 62.7307C41.2346 62.8108 40.7121 63.0714 40.309 63.4733ZM45.4221 68.5864L35.8817 78.1267C35.6812 78.3259 35.41 78.4378 35.1273 78.4378C34.8446 78.4378 34.5734 78.3259 34.3728 78.1267L31.8736 75.6275C31.6744 75.4269 31.5625 75.1557 31.5625 74.873C31.5625 74.5903 31.6744 74.319 31.8736 74.1185L41.4139 64.5782C41.6141 64.3784 41.8855 64.2662 42.1684 64.2662C42.4512 64.2662 42.7226 64.3784 42.9228 64.5782L45.4222 67.0774C45.6219 67.2777 45.7341 67.549 45.7341 67.8319C45.7341 68.1148 45.6219 68.3861 45.4221 68.5864ZM47.8731 36.8069C49.5336 35.135 51.5078 33.8074 53.6825 32.9001C55.8572 31.9928 58.1895 31.5237 60.5459 31.5197C62.9022 31.5157 65.2361 31.9769 67.4139 32.8768C69.5916 33.7766 71.5703 35.0975 73.2365 36.7637C74.9027 38.4299 76.2236 40.4086 77.1235 42.5863C78.0233 44.7641 78.4845 47.098 78.4805 49.4544C78.4765 51.8107 78.0074 54.1431 77.1001 56.3177C76.1928 58.4924 74.8652 60.4666 73.1933 62.1271C71.5328 63.7989 69.5587 65.1266 67.384 66.0338C65.2093 66.9411 62.877 67.4102 60.5206 67.4142C58.1643 67.4182 55.8303 66.9571 53.6526 66.0572C51.4749 65.1573 49.4962 63.8364 47.83 62.1702C46.1638 60.504 44.8429 58.5254 43.943 56.3476C43.0432 54.1699 42.582 51.8359 42.586 49.4796C42.59 47.1233 43.0591 44.7909 43.9664 42.6162C44.8737 40.4416 46.2013 38.4674 47.8731 36.8069ZM46.7683 63.232C46.9901 63.4538 47.2164 63.6695 47.4471 63.879L45.9403 65.386L44.6143 64.0599L46.1212 62.5532C46.3308 62.7836 46.5464 63.0099 46.7683 63.232ZM48.8633 51.9241L50.7495 52.2843C50.9602 53.0177 51.2535 53.7248 51.6235 54.392L50.5439 55.9815C50.4418 56.1318 50.3953 56.3131 50.4124 56.4941C50.4296 56.675 50.5093 56.8444 50.6378 56.9729L53.0273 59.3624C53.1559 59.491 53.3252 59.5707 53.5061 59.5878C53.6871 59.6049 53.8684 59.5584 54.0187 59.4563L55.6082 58.3766C56.2755 58.7467 56.9826 59.04 57.7159 59.2507L58.0762 61.137C58.1102 61.3155 58.2055 61.4766 58.3456 61.5925C58.4857 61.7083 58.6618 61.7717 58.8435 61.7717H62.2229C62.4047 61.7717 62.5808 61.7083 62.7209 61.5925C62.861 61.4766 62.9562 61.3155 62.9903 61.137L63.3507 59.2507C64.084 59.0399 64.791 58.7467 65.4583 58.3766L67.0478 59.4564C67.1982 59.5585 67.3795 59.605 67.5605 59.5878C67.7414 59.5707 67.9107 59.491 68.0392 59.3624L70.4288 56.9729C70.5573 56.8444 70.637 56.675 70.6542 56.4941C70.6713 56.3131 70.6248 56.1318 70.5226 55.9815L69.4434 54.3919C69.8134 53.7246 70.1067 53.0176 70.3175 52.2842L72.2037 51.924C72.3822 51.8899 72.5433 51.7946 72.6592 51.6546C72.775 51.5145 72.8384 51.3384 72.8385 51.1567V47.7772C72.8384 47.5954 72.775 47.4194 72.6592 47.2793C72.5433 47.1393 72.3822 47.044 72.2037 47.0099L70.3175 46.6495C70.1066 45.9162 69.8134 45.2091 69.4434 44.5418L70.523 42.9524C70.6252 42.802 70.6717 42.6207 70.6545 42.4398C70.6374 42.2588 70.5577 42.0895 70.4292 41.961L68.0392 39.5714C67.9107 39.4429 67.7414 39.3632 67.5605 39.3461C67.3795 39.329 67.1983 39.3755 67.0479 39.4776L65.4583 40.5569C64.791 40.1868 64.084 39.8936 63.3507 39.6828L62.9903 37.7965C62.9562 37.618 62.861 37.4569 62.7209 37.341C62.5808 37.2252 62.4047 37.1618 62.2229 37.1618H58.8435C58.6618 37.1618 58.4857 37.2252 58.3456 37.341C58.2055 37.4569 58.1102 37.618 58.0762 37.7965L57.7159 39.6828C56.9826 39.8936 56.2756 40.1868 55.6083 40.5569L54.0187 39.4776C53.8684 39.3754 53.6871 39.3289 53.5061 39.3461C53.3252 39.3632 53.1559 39.4429 53.0273 39.5714L50.6378 41.961C50.5093 42.0895 50.4296 42.2588 50.4124 42.4398C50.3953 42.6207 50.4418 42.802 50.5439 42.9524L51.6235 44.5418C51.2535 45.2091 50.9603 45.9162 50.7495 46.6495L48.8633 47.0099C48.6847 47.044 48.5237 47.1393 48.4078 47.2793C48.2919 47.4194 48.2285 47.5954 48.2285 47.7772V51.1567C48.2285 51.3385 48.2919 51.5146 48.4078 51.6546C48.5236 51.7947 48.6847 51.89 48.8633 51.9241ZM49.791 48.4234L51.5274 48.0913C51.6759 48.063 51.813 47.9922 51.922 47.8875C52.031 47.7828 52.1073 47.6487 52.1417 47.5015C52.3544 46.5894 52.7155 45.7184 53.2106 44.9234C53.2905 44.795 53.3313 44.6462 53.3283 44.4951C53.3252 44.344 53.2784 44.197 53.1935 44.0719L52.1994 42.6083L53.6753 41.133L55.1389 42.1272C55.2639 42.2121 55.4109 42.2589 55.5621 42.262C55.7132 42.265 55.862 42.2241 55.9903 42.1443C56.7854 41.6492 57.6563 41.2881 58.5684 41.0753C58.7157 41.041 58.8498 40.9647 58.9545 40.8557C59.0592 40.7466 59.13 40.6096 59.1584 40.4611L59.4904 38.7246H61.5775L61.9096 40.4611C61.9379 40.6095 62.0087 40.7466 62.1134 40.8556C62.2181 40.9647 62.3522 41.041 62.4994 41.0753C63.4115 41.288 64.2825 41.6491 65.0775 42.1442C65.2059 42.224 65.3546 42.2649 65.5058 42.2619C65.6569 42.2589 65.8039 42.2121 65.929 42.1272L67.3913 41.133L68.8672 42.6089L67.873 44.0725C67.7881 44.1975 67.7413 44.3445 67.7383 44.4956C67.7352 44.6467 67.7761 44.7955 67.8559 44.9239C68.3509 45.7189 68.7121 46.5899 68.9248 47.502C68.9591 47.6492 69.0354 47.7833 69.1445 47.888C69.2535 47.9927 69.3906 48.0636 69.5391 48.0919L71.2755 48.424V50.5112L69.5391 50.8432C69.3906 50.8716 69.2536 50.9424 69.1446 51.0471C69.0356 51.1517 68.9593 51.2858 68.9249 51.4329C68.7122 52.3451 68.351 53.216 67.8559 54.0111C67.7761 54.1395 67.7352 54.2883 67.7382 54.4394C67.7412 54.5906 67.7881 54.7377 67.873 54.8627L68.8672 56.3248L67.3914 57.8007L65.9277 56.8069C65.8027 56.7219 65.6557 56.6751 65.5046 56.672C65.3534 56.6689 65.2046 56.7098 65.0763 56.7896C64.2812 57.2848 63.4103 57.646 62.4981 57.8587C62.3509 57.8931 62.2168 57.9694 62.1121 58.0784C62.0074 58.1874 61.9366 58.3245 61.9082 58.473L61.5762 60.2093H59.4897L59.1577 58.473C59.1294 58.3245 59.0585 58.1875 58.9538 58.0784C58.8491 57.9694 58.7151 57.8931 58.5679 57.8587C57.6557 57.646 56.7848 57.2848 55.9897 56.7897C55.8613 56.7098 55.7125 56.6689 55.5614 56.672C55.4102 56.675 55.2631 56.7219 55.1381 56.8069L53.6747 57.8009L52.1988 56.325L53.1934 54.8614C53.2783 54.7363 53.3251 54.5893 53.3282 54.4381C53.3312 54.287 53.2904 54.1382 53.2105 54.0098C52.7154 53.2148 52.3542 52.3438 52.1416 51.4317C52.1073 51.2845 52.031 51.1504 51.9219 51.0456C51.8129 50.9409 51.6758 50.8701 51.5273 50.8417L49.7909 50.5097L49.791 48.4234ZM60.5332 54.7077C61.5697 54.7078 62.583 54.4005 63.4449 53.8247C64.3068 53.2489 64.9786 52.4304 65.3753 51.4728C65.7721 50.5152 65.8759 49.4615 65.6738 48.4448C65.4716 47.4282 64.9725 46.4943 64.2396 45.7614C63.5067 45.0284 62.5729 44.5292 61.5563 44.3269C60.5397 44.1247 59.4859 44.2284 58.5283 44.6251C57.5706 45.0217 56.7521 45.6934 56.1762 46.5553C55.6003 47.4171 55.293 48.4304 55.293 49.4669C55.2946 50.8562 55.8472 52.1882 56.8296 53.1706C57.812 54.153 59.144 54.7056 60.5333 54.7073L60.5332 54.7077ZM60.5332 45.7888C61.2607 45.7887 61.9719 46.0044 62.5768 46.4085C63.1818 46.8126 63.6533 47.387 63.9318 48.0591C64.2103 48.7312 64.2832 49.4708 64.1413 50.1844C63.9994 50.8979 63.6491 51.5533 63.1347 52.0678C62.6203 52.5822 61.9649 52.9326 61.2514 53.0746C60.5379 53.2165 59.7983 53.1437 59.1261 52.8653C58.454 52.5869 57.8795 52.1154 57.4753 51.5105C57.0712 50.9056 56.8554 50.1944 56.8555 49.4669C56.8565 48.4918 57.2444 47.5569 57.9338 46.8674C58.6233 46.1778 59.5582 45.7899 60.5333 45.7887L60.5332 45.7888Z" fill="#050610"/>
<path d="M40.309 63.4733L30.7687 73.0136C30.2765 73.5072 30 74.1758 30 74.8729C30 75.57 30.2765 76.2387 30.7687 76.7323L33.268 79.2316C33.7616 79.7238 34.4302 80.0002 35.1273 80.0002C35.8244 80.0002 36.493 79.7238 36.9866 79.2316L46.5269 69.6912C46.9289 69.2881 47.1895 68.7656 47.2696 68.202C47.3496 67.6383 47.2449 67.0639 46.9711 66.5648L48.6484 64.8874C51.5294 67.1074 54.9745 68.476 58.5935 68.838C62.2125 69.2001 65.8605 68.5411 69.1241 66.9359C72.3877 65.3307 75.1364 62.8433 77.0587 59.7558C78.9809 56.6682 79.9999 53.104 80 49.4669C79.9994 46.3719 79.2608 43.3216 77.8456 40.5691C76.4303 37.8165 74.3791 35.4412 71.8621 33.64C69.3452 31.8388 66.435 30.6637 63.3731 30.2122C60.3112 29.7607 57.1857 30.0457 54.256 31.0438C51.3262 32.0418 48.6767 33.7241 46.5272 35.9509C44.3777 38.1778 42.7901 40.8851 41.8962 43.8482C41.0023 46.8114 40.8278 49.945 41.3872 52.9891C41.9466 56.0331 43.2238 58.9 45.1128 61.3517L43.4353 63.029C42.9362 62.7553 42.3618 62.6507 41.7982 62.7307C41.2346 62.8108 40.7121 63.0714 40.309 63.4733ZM45.4221 68.5864L35.8817 78.1267C35.6812 78.3259 35.41 78.4378 35.1273 78.4378C34.8446 78.4378 34.5734 78.3259 34.3728 78.1267L31.8736 75.6275C31.6744 75.4269 31.5625 75.1557 31.5625 74.873C31.5625 74.5903 31.6744 74.319 31.8736 74.1185L41.4139 64.5782C41.6141 64.3784 41.8855 64.2662 42.1684 64.2662C42.4512 64.2662 42.7226 64.3784 42.9228 64.5782L45.4222 67.0774C45.6219 67.2777 45.7341 67.549 45.7341 67.8319C45.7341 68.1148 45.6219 68.3861 45.4221 68.5864ZM47.8731 36.8069C49.5336 35.135 51.5078 33.8074 53.6825 32.9001C55.8572 31.9928 58.1895 31.5237 60.5459 31.5197C62.9022 31.5157 65.2361 31.9769 67.4139 32.8768C69.5916 33.7766 71.5703 35.0975 73.2365 36.7637C74.9027 38.4299 76.2236 40.4086 77.1235 42.5863C78.0233 44.7641 78.4845 47.098 78.4805 49.4544C78.4765 51.8107 78.0074 54.1431 77.1001 56.3177C76.1928 58.4924 74.8652 60.4666 73.1933 62.1271C71.5328 63.7989 69.5587 65.1266 67.384 66.0338C65.2093 66.9411 62.877 67.4102 60.5206 67.4142C58.1643 67.4182 55.8303 66.9571 53.6526 66.0572C51.4749 65.1573 49.4962 63.8364 47.83 62.1702C46.1638 60.504 44.8429 58.5254 43.943 56.3476C43.0432 54.1699 42.582 51.8359 42.586 49.4796C42.59 47.1233 43.0591 44.7909 43.9664 42.6162C44.8737 40.4416 46.2013 38.4674 47.8731 36.8069ZM46.7683 63.232C46.9901 63.4538 47.2164 63.6695 47.4471 63.879L45.9403 65.386L44.6143 64.0599L46.1212 62.5532C46.3308 62.7836 46.5464 63.0099 46.7683 63.232ZM48.8633 51.9241L50.7495 52.2843C50.9602 53.0177 51.2535 53.7248 51.6235 54.392L50.5439 55.9815C50.4418 56.1318 50.3953 56.3131 50.4124 56.4941C50.4296 56.675 50.5093 56.8444 50.6378 56.9729L53.0273 59.3624C53.1559 59.491 53.3252 59.5707 53.5061 59.5878C53.6871 59.6049 53.8684 59.5584 54.0187 59.4563L55.6082 58.3766C56.2755 58.7467 56.9826 59.04 57.7159 59.2507L58.0762 61.137C58.1102 61.3155 58.2055 61.4766 58.3456 61.5925C58.4857 61.7083 58.6618 61.7717 58.8435 61.7717H62.2229C62.4047 61.7717 62.5808 61.7083 62.7209 61.5925C62.861 61.4766 62.9562 61.3155 62.9903 61.137L63.3507 59.2507C64.084 59.0399 64.791 58.7467 65.4583 58.3766L67.0478 59.4564C67.1982 59.5585 67.3795 59.605 67.5605 59.5878C67.7414 59.5707 67.9107 59.491 68.0392 59.3624L70.4288 56.9729C70.5573 56.8444 70.637 56.675 70.6542 56.4941C70.6713 56.3131 70.6248 56.1318 70.5226 55.9815L69.4434 54.3919C69.8134 53.7246 70.1067 53.0176 70.3175 52.2842L72.2037 51.924C72.3822 51.8899 72.5433 51.7946 72.6592 51.6546C72.775 51.5145 72.8384 51.3384 72.8385 51.1567V47.7772C72.8384 47.5954 72.775 47.4194 72.6592 47.2793C72.5433 47.1393 72.3822 47.044 72.2037 47.0099L70.3175 46.6495C70.1066 45.9162 69.8134 45.2091 69.4434 44.5418L70.523 42.9524C70.6252 42.802 70.6717 42.6207 70.6545 42.4398C70.6374 42.2588 70.5577 42.0895 70.4292 41.961L68.0392 39.5714C67.9107 39.4429 67.7414 39.3632 67.5605 39.3461C67.3795 39.329 67.1983 39.3755 67.0479 39.4776L65.4583 40.5569C64.791 40.1868 64.084 39.8936 63.3507 39.6828L62.9903 37.7965C62.9562 37.618 62.861 37.4569 62.7209 37.341C62.5808 37.2252 62.4047 37.1618 62.2229 37.1618H58.8435C58.6618 37.1618 58.4857 37.2252 58.3456 37.341C58.2055 37.4569 58.1102 37.618 58.0762 37.7965L57.7159 39.6828C56.9826 39.8936 56.2756 40.1868 55.6083 40.5569L54.0187 39.4776C53.8684 39.3754 53.6871 39.3289 53.5061 39.3461C53.3252 39.3632 53.1559 39.4429 53.0273 39.5714L50.6378 41.961C50.5093 42.0895 50.4296 42.2588 50.4124 42.4398C50.3953 42.6207 50.4418 42.802 50.5439 42.9524L51.6235 44.5418C51.2535 45.2091 50.9603 45.9162 50.7495 46.6495L48.8633 47.0099C48.6847 47.044 48.5237 47.1393 48.4078 47.2793C48.2919 47.4194 48.2285 47.5954 48.2285 47.7772V51.1567C48.2285 51.3385 48.2919 51.5146 48.4078 51.6546C48.5236 51.7947 48.6847 51.89 48.8633 51.9241ZM49.791 48.4234L51.5274 48.0913C51.6759 48.063 51.813 47.9922 51.922 47.8875C52.031 47.7828 52.1073 47.6487 52.1417 47.5015C52.3544 46.5894 52.7155 45.7184 53.2106 44.9234C53.2905 44.795 53.3313 44.6462 53.3283 44.4951C53.3252 44.344 53.2784 44.197 53.1935 44.0719L52.1994 42.6083L53.6753 41.133L55.1389 42.1272C55.2639 42.2121 55.4109 42.2589 55.5621 42.262C55.7132 42.265 55.862 42.2241 55.9903 42.1443C56.7854 41.6492 57.6563 41.2881 58.5684 41.0753C58.7157 41.041 58.8498 40.9647 58.9545 40.8557C59.0592 40.7466 59.13 40.6096 59.1584 40.4611L59.4904 38.7246H61.5775L61.9096 40.4611C61.9379 40.6095 62.0087 40.7466 62.1134 40.8556C62.2181 40.9647 62.3522 41.041 62.4994 41.0753C63.4115 41.288 64.2825 41.6491 65.0775 42.1442C65.2059 42.224 65.3546 42.2649 65.5058 42.2619C65.6569 42.2589 65.8039 42.2121 65.929 42.1272L67.3913 41.133L68.8672 42.6089L67.873 44.0725C67.7881 44.1975 67.7413 44.3445 67.7383 44.4956C67.7352 44.6467 67.7761 44.7955 67.8559 44.9239C68.3509 45.7189 68.7121 46.5899 68.9248 47.502C68.9591 47.6492 69.0354 47.7833 69.1445 47.888C69.2535 47.9927 69.3906 48.0636 69.5391 48.0919L71.2755 48.424V50.5112L69.5391 50.8432C69.3906 50.8716 69.2536 50.9424 69.1446 51.0471C69.0356 51.1517 68.9593 51.2858 68.9249 51.4329C68.7122 52.3451 68.351 53.216 67.8559 54.0111C67.7761 54.1395 67.7352 54.2883 67.7382 54.4394C67.7412 54.5906 67.7881 54.7377 67.873 54.8627L68.8672 56.3248L67.3914 57.8007L65.9277 56.8069C65.8027 56.7219 65.6557 56.6751 65.5046 56.672C65.3534 56.6689 65.2046 56.7098 65.0763 56.7896C64.2812 57.2848 63.4103 57.646 62.4981 57.8587C62.3509 57.8931 62.2168 57.9694 62.1121 58.0784C62.0074 58.1874 61.9366 58.3245 61.9082 58.473L61.5762 60.2093H59.4897L59.1577 58.473C59.1294 58.3245 59.0585 58.1875 58.9538 58.0784C58.8491 57.9694 58.7151 57.8931 58.5679 57.8587C57.6557 57.646 56.7848 57.2848 55.9897 56.7897C55.8613 56.7098 55.7125 56.6689 55.5614 56.672C55.4102 56.675 55.2631 56.7219 55.1381 56.8069L53.6747 57.8009L52.1988 56.325L53.1934 54.8614C53.2783 54.7363 53.3251 54.5893 53.3282 54.4381C53.3312 54.287 53.2904 54.1382 53.2105 54.0098C52.7154 53.2148 52.3542 52.3438 52.1416 51.4317C52.1073 51.2845 52.031 51.1504 51.9219 51.0456C51.8129 50.9409 51.6758 50.8701 51.5273 50.8417L49.7909 50.5097L49.791 48.4234ZM60.5332 54.7077C61.5697 54.7078 62.583 54.4005 63.4449 53.8247C64.3068 53.2489 64.9786 52.4304 65.3753 51.4728C65.7721 50.5152 65.8759 49.4615 65.6738 48.4448C65.4716 47.4282 64.9725 46.4943 64.2396 45.7614C63.5067 45.0284 62.5729 44.5292 61.5563 44.3269C60.5397 44.1247 59.4859 44.2284 58.5283 44.6251C57.5706 45.0217 56.7521 45.6934 56.1762 46.5553C55.6003 47.4171 55.293 48.4304 55.293 49.4669C55.2946 50.8562 55.8472 52.1882 56.8296 53.1706C57.812 54.153 59.144 54.7056 60.5333 54.7073L60.5332 54.7077ZM60.5332 45.7888C61.2607 45.7887 61.9719 46.0044 62.5768 46.4085C63.1818 46.8126 63.6533 47.387 63.9318 48.0591C64.2103 48.7312 64.2832 49.4708 64.1413 50.1844C63.9994 50.8979 63.6491 51.5533 63.1347 52.0678C62.6203 52.5822 61.9649 52.9326 61.2514 53.0746C60.5379 53.2165 59.7983 53.1437 59.1261 52.8653C58.454 52.5869 57.8795 52.1154 57.4753 51.5105C57.0712 50.9056 56.8554 50.1944 56.8555 49.4669C56.8565 48.4918 57.2444 47.5569 57.9338 46.8674C58.6233 46.1778 59.5582 45.7899 60.5333 45.7887L60.5332 45.7888Z" stroke="#050610" stroke-width="0.4" mask="url(#path-2-outside-1_403_4640)"/>
</svg>
