<svg width="70" height="70" viewBox="0 0 70 70" fill="none" xmlns="http://www.w3.org/2000/svg">
<path d="M38.4999 17.4526H19.8334C19.1025 17.4463 18.3719 17.4853 17.6459 17.5692C9.80022 18.2401 5.86255 22.8776 5.86255 31.4234V43.0901C5.86255 54.7567 10.5295 57.0609 19.8334 57.0609H20.9999C21.3576 57.0843 21.707 57.179 22.0276 57.3393C22.3482 57.4995 22.6336 57.7222 22.867 57.9942L26.3675 62.6609C26.6641 63.1361 27.0767 63.5281 27.5665 63.7998C28.0563 64.0715 28.6073 64.2141 29.1674 64.2141C29.7276 64.2141 30.2785 64.0715 30.7684 63.7998C31.2582 63.5281 31.6708 63.1361 31.9673 62.6609L35.4665 57.9942C35.6847 57.7053 35.9667 57.4707 36.2906 57.3088C36.6145 57.1469 36.9714 57.062 37.3335 57.0609H38.4999C47.0463 57.0609 51.6832 53.1526 52.3541 45.2776C52.4378 44.5515 52.4768 43.8209 52.4707 43.0901V31.4234C52.4707 22.1192 47.8138 17.4623 38.4999 17.4526ZM18.9762 40.7859H18.9618C18.1892 40.784 17.449 40.4756 16.9038 39.9283C16.3585 39.381 16.0527 38.6397 16.0537 37.8671C16.0546 37.0946 16.3622 36.354 16.9088 35.808C17.4554 35.2621 18.1964 34.9554 18.9689 34.9554C19.7415 34.9554 20.4824 35.2621 21.029 35.808C21.5756 36.354 21.8832 37.0946 21.8841 37.8671C21.8851 38.6397 21.5793 39.381 21.0341 39.9283C20.4888 40.4756 19.7487 40.784 18.9762 40.7859ZM29.1787 40.7859H29.1644C28.3919 40.784 27.6517 40.4756 27.1064 39.9283C26.5611 39.381 26.2554 38.6397 26.2563 37.8671C26.2573 37.0946 26.5648 36.354 27.1114 35.808C27.658 35.2621 28.399 34.9554 29.1716 34.9554C29.9441 34.9554 30.6851 35.2621 31.2317 35.808C31.7783 36.354 32.0858 37.0946 32.0868 37.8671C32.0877 38.6397 31.782 39.381 31.2367 39.9283C30.6914 40.4756 29.9512 40.784 29.1787 40.7859ZM39.3785 40.7859H39.3642C38.5909 40.784 37.85 40.4753 37.3042 39.9274C36.7584 39.3796 36.4523 38.6376 36.4533 37.8643C36.4542 37.091 36.7621 36.3496 37.3092 35.8032C37.8563 35.2567 38.598 34.9497 39.3713 34.9497C40.1447 34.9497 40.8863 35.2567 41.4335 35.8032C41.9806 36.3496 42.2885 37.091 42.2894 37.8643C42.2904 38.6376 41.9843 39.3796 41.4385 39.9274C40.8927 40.4753 40.1518 40.784 39.3785 40.7859ZM64.1374 19.7567V31.4234C64.1374 37.243 62.3315 41.2351 58.7197 43.3997C58.5191 43.5115 58.292 43.5673 58.0624 43.561C57.8327 43.5547 57.609 43.4867 57.4148 43.3641C57.2205 43.2414 57.0629 43.0687 56.9585 42.8641C56.8541 42.6595 56.8068 42.4305 56.8215 42.2012L56.8457 31.4234C56.8457 19.7567 50.1665 13.0776 38.4999 13.0776L20.7334 13.1036C20.5036 13.1181 20.2741 13.0704 20.0691 12.9654C19.8642 12.8604 19.6914 12.702 19.569 12.5069C19.4466 12.3119 19.3792 12.0874 19.3738 11.8572C19.3684 11.627 19.4252 11.3996 19.5383 11.199C21.7274 7.59639 25.7147 5.79194 31.5 5.78564H50.1667C59.4708 5.78582 64.1277 10.4429 64.1374 19.7567Z" fill="#050610"/>
</svg>
