<svg width="10" height="10" viewBox="0 0 10 10" fill="none" xmlns="http://www.w3.org/2000/svg">
<g clip-path="url(#clip0_613_16693)">
<path d="M4.72426 0.400787C4.77603 0.295896 4.88285 0.229492 4.99983 0.229492C5.11682 0.229472 5.22366 0.295876 5.27543 0.400767L6.47413 2.82923C6.58685 3.05758 6.80471 3.21589 7.05673 3.25249L9.73683 3.64209C9.8526 3.65892 9.94877 3.74 9.98494 3.85126C10.0211 3.9625 9.99095 4.08464 9.90718 4.1663L7.96799 6.05679C7.78564 6.23458 7.70243 6.49068 7.74545 6.74165L8.20301 9.41053C8.22277 9.52583 8.17538 9.64235 8.08073 9.71104C7.98611 9.77984 7.86064 9.78887 7.75711 9.73443L5.35991 8.4744C5.13451 8.35592 4.86522 8.35592 4.63978 8.47444L2.2428 9.73441C2.13925 9.78885 2.01378 9.77974 1.91916 9.711C1.82451 9.64224 1.77714 9.52571 1.7969 9.41045L2.25467 6.74177C2.29774 6.49072 2.21452 6.23458 2.03212 6.05675L0.0928154 4.16632C0.00906481 4.08466 -0.0211041 3.96252 0.0150499 3.85128C0.0512039 3.74004 0.147371 3.65897 0.263137 3.64211L2.94316 3.25253C3.19518 3.21589 3.41306 3.0576 3.52578 2.82921L4.72426 0.400787Z" fill="#313131" fill-opacity="0.75"/>
</g>
<defs>
<clipPath id="clip0_613_16693">
<rect width="10" height="10" fill="white"/>
</clipPath>
</defs>
</svg>
