<svg width="70" height="70" viewBox="0 0 70 70" fill="none" xmlns="http://www.w3.org/2000/svg">
<g clip-path="url(#clip0_32_7777)">
<path d="M64.8428 59.2222H63.6384V29.1428C62.5163 28.659 61.559 27.856 60.8898 26.8472C59.7781 28.5251 57.8737 29.6369 55.7119 29.6369C53.5501 29.6369 51.6457 28.5251 50.534 26.8472C49.4222 28.5251 47.5178 29.6369 45.356 29.6369C43.1943 29.6369 41.2898 28.5251 40.1781 26.8472C39.0663 28.5251 37.1619 29.6369 35.0001 29.6369C32.8384 29.6369 30.934 28.5251 29.8222 26.8472C28.7104 28.5251 26.8163 29.6369 24.6545 29.6369C22.4825 29.6369 20.5678 28.5149 19.456 26.8163C18.334 28.4737 16.4501 29.5649 14.2987 29.5649C12.1369 29.5649 10.2325 28.4531 9.12072 26.7751C8.4516 27.784 7.49425 28.5972 6.3619 29.0707V59.2222H5.15749C3.9119 59.2222 2.90308 60.231 2.90308 61.4766V65.759H67.0972V61.4766C67.0972 60.231 66.0884 59.2222 64.8428 59.2222ZM30.306 59.2222H13.3722V38.3354C13.3722 36.9354 14.5045 35.7928 15.9148 35.7928H27.7634C29.1634 35.7928 30.306 36.9354 30.306 38.3354V59.2222ZM55.4545 49.4016C55.4545 50.3075 54.7237 51.0384 53.8178 51.0384H40.0134C39.1075 51.0384 38.3663 50.3075 38.3663 49.4016V36.9149C38.3663 36.009 39.1075 35.2781 40.0134 35.2781H53.8178C54.7237 35.2781 55.4545 36.009 55.4545 36.9149V49.4016Z" fill="#050610"/>
<path d="M61.6207 20.5779H69.6192L66.4589 13.8867C66.1192 13.1661 65.3986 12.7029 64.5957 12.7029H58.9751L61.6207 20.5779Z" fill="#050610"/>
<path d="M11.0355 12.6309H5.41489C4.62224 12.6309 3.89136 13.0941 3.55165 13.8147L0.391357 20.5059H8.37959L11.0355 12.6309Z" fill="#050610"/>
<path d="M61.9192 22.6367V23.4294C61.9192 25.7147 63.7721 27.5779 66.0677 27.5779C68.353 27.5779 70.2059 25.7147 70.2059 23.4294V22.6367H61.9192Z" fill="#050610"/>
<path d="M55.7118 27.5779C57.9971 27.5779 59.8603 25.7147 59.8603 23.4294V22.6367H51.5632V23.4294C51.5632 25.7147 53.4265 27.5779 55.7118 27.5779Z" fill="#050610"/>
<path d="M48.0839 14.6794L47.6824 12.7029H40.6104L41.1456 20.5779H49.278L48.0839 14.6794Z" fill="#050610"/>
<path d="M10.1501 23.3573C10.1501 25.6426 12.0134 27.5058 14.2987 27.5058C16.584 27.5058 18.4472 25.6426 18.4472 23.3573V22.6367H10.1501V23.3573Z" fill="#050610"/>
<path d="M56.8031 12.7029H49.7825L50.9766 18.6014L51.3781 20.5779H59.4486L56.8031 12.7029Z" fill="#050610"/>
<path d="M20.5059 23.4294C20.5059 25.7147 22.3588 27.5779 24.6544 27.5779C26.9397 27.5779 28.7926 25.7147 28.7926 23.4294V22.6367H20.5059V23.4294Z" fill="#050610"/>
<path d="M8.09125 23.3573V22.5647H-0.205811V23.3573C-0.205811 25.6426 1.65742 27.5059 3.94272 27.5059C6.22801 27.5059 8.09125 25.6426 8.09125 23.3573Z" fill="#050610"/>
<path d="M20.2178 12.7029H13.2075L10.5825 20.5058H18.6428L20.2178 12.7029Z" fill="#050610"/>
<path d="M31.4589 12.7029L30.9236 20.5779H39.0765L38.5515 12.7029H31.4589Z" fill="#050610"/>
<path d="M45.3561 27.5779C47.6413 27.5779 49.5046 25.7147 49.5046 23.4294V22.6367H41.2075V23.4294C41.2075 25.7147 43.0708 27.5779 45.3561 27.5779Z" fill="#050610"/>
<path d="M29.3898 12.7029H22.328L20.7324 20.5779H28.8648L29.3898 12.7029Z" fill="#050610"/>
<path d="M30.8516 23.4294C30.8516 25.7147 32.7148 27.5779 35.0001 27.5779C37.2854 27.5779 39.1486 25.7147 39.1486 23.4294V22.6367H30.8516V23.4294Z" fill="#050610"/>
<path d="M13.8868 10.6442H63.6383V8.55445C63.6383 6.17651 61.7133 4.24121 59.3353 4.24121H10.6751C8.29711 4.24121 6.36182 6.17651 6.36182 8.55445V10.5721H13.9074L13.8868 10.6442Z" fill="#050610"/>
</g>
<defs>
<clipPath id="clip0_32_7777">
<rect width="70" height="70" fill="white"/>
</clipPath>
</defs>
</svg>
