<svg width="60" height="60" viewBox="0 0 60 60" fill="none" xmlns="http://www.w3.org/2000/svg">
<path fill-rule="evenodd" clip-rule="evenodd" d="M57.532 9.14508V60H47.8547V9.14508H45.3869L52.6933 0L60.0001 9.14508H57.532ZM29.636 12.8544L24.8859 15.5582L25.9882 10.2046L21.9507 6.52313L27.3814 5.91574L29.636 0.937031L31.891 5.91527L37.3214 6.52313L33.284 10.2041L34.3861 15.5582L29.636 12.8544ZM12.271 10.2041L13.3733 15.5583L8.62334 12.8543L3.87291 15.5583L4.97529 10.2047L0.937598 6.52313L6.36842 5.91574L8.62287 0.937266L10.8779 5.91539L16.308 6.52324L12.271 10.2041ZM9.67697 60H-0.000488281V41.2835H9.67697V60ZM25.6287 60H15.9512V30.6142H25.6287V60ZM41.5803 60H31.9029V19.9448H41.5803V60Z" fill="#F1F1F1"/>
<path fill-rule="evenodd" clip-rule="evenodd" d="M29.6359 12.8544L24.8858 15.5581L25.9881 10.2046L21.9506 6.52311L27.3813 5.91572L29.6359 0.937012L31.8909 5.91525L37.3213 6.52311L33.2839 10.2041L34.386 15.5581L29.6359 12.8544ZM12.2709 10.2041L13.3732 15.5583L8.62324 12.8543L3.87281 15.5583L4.97519 10.2047L0.9375 6.52311L6.36832 5.91572L8.62277 0.937246L10.8778 5.91537L16.3079 6.52322L12.2709 10.2041Z" fill="#C0C0C0"/>
</svg>
