<svg width="40" height="40" viewBox="0 0 40 40" fill="none" xmlns="http://www.w3.org/2000/svg">
<g clip-path="url(#clip0_1663_25901)">
<path fill-rule="evenodd" clip-rule="evenodd" d="M38.355 6.09672V40H31.9035V6.09672H30.2583L35.1292 0L40.0004 6.09672H38.355ZM19.7577 8.5696L16.5909 10.3721L17.3258 6.80307L14.6341 4.34875L18.2546 3.94383L19.7577 0.624687L21.261 3.94351L24.8813 4.34875L22.1897 6.80273L22.9244 10.3721L19.7577 8.5696ZM8.18099 6.80273L8.91586 10.3722L5.74922 8.56953L2.58227 10.3722L3.31719 6.80313L0.625391 4.34875L4.24594 3.94383L5.74891 0.624844L7.25226 3.94359L10.8723 4.34883L8.18099 6.80273ZM6.45164 40H0V27.5223H6.45164V40ZM17.0861 40H10.6345V20.4095H17.0861V40ZM27.7205 40H21.2689V13.2965H27.7205V40Z" fill="#2A2A2A"/>
<path fill-rule="evenodd" clip-rule="evenodd" d="M19.7573 8.56992L16.5905 10.3724L17.3254 6.80339L14.6337 4.34906L18.2542 3.94414L19.7573 0.625L21.2606 3.94382L24.8809 4.34906L22.1893 6.80306L22.924 10.3724L19.7573 8.56992ZM8.1806 6.80306L8.91547 10.3725L5.74883 8.56986L2.58187 10.3725L3.31679 6.80346L0.625 4.34906L4.24555 3.94414L5.74851 0.625156L7.25187 3.9439L10.8719 4.34914L8.1806 6.80306Z" fill="#151515"/>
</g>
<defs>
<clipPath id="clip0_1663_25901">
<rect width="40" height="40" fill="white"/>
</clipPath>
</defs>
</svg>
