<svg width="23" height="22" viewBox="0 0 23 22" fill="none" xmlns="http://www.w3.org/2000/svg">
<path d="M8.75016 1.8335C6.3485 1.8335 4.396 3.786 4.396 6.18766C4.396 8.5435 6.2385 10.4502 8.64016 10.5327C8.7135 10.5235 8.78683 10.5235 8.84183 10.5327C8.86016 10.5327 8.86933 10.5327 8.88766 10.5327C8.89683 10.5327 8.89683 10.5327 8.906 10.5327C11.2527 10.4502 13.0952 8.5435 13.1043 6.18766C13.1043 3.786 11.1518 1.8335 8.75016 1.8335Z" fill="#E7EEFF"/>
<path d="M13.4069 12.9706C10.8494 11.2656 6.67854 11.2656 4.10271 12.9706C2.93854 13.7498 2.29688 14.804 2.29688 15.9315C2.29688 17.059 2.93854 18.104 4.09354 18.874C5.37687 19.7356 7.06354 20.1665 8.75021 20.1665C10.4369 20.1665 12.1235 19.7356 13.4069 18.874C14.5619 18.0948 15.2035 17.0498 15.2035 15.9131C15.1944 14.7856 14.5619 13.7406 13.4069 12.9706Z" fill="#E7EEFF"/>
<path d="M18.8241 6.7281C18.9707 8.50643 17.7057 10.0648 15.9549 10.2756C15.9457 10.2756 15.9457 10.2756 15.9366 10.2756H15.9091C15.8541 10.2756 15.7991 10.2756 15.7532 10.2939C14.8641 10.3398 14.0482 10.0556 13.4341 9.5331C14.3782 8.68977 14.9191 7.42477 14.8091 6.04977C14.7449 5.30727 14.4882 4.62893 14.1032 4.05143C14.4516 3.87727 14.8549 3.76727 15.2674 3.7306C17.0641 3.57477 18.6682 4.9131 18.8241 6.7281Z" fill="#E7EEFF"/>
<path d="M20.6576 15.2075C20.5842 16.0967 20.0159 16.8667 19.0626 17.3892C18.1459 17.8934 16.9909 18.1317 15.8451 18.1042C16.5051 17.5084 16.8901 16.7659 16.9634 15.9775C17.0551 14.8409 16.5142 13.75 15.4326 12.8792C14.8184 12.3934 14.1034 12.0084 13.3242 11.7242C15.3501 11.1375 17.8984 11.5317 19.4659 12.7967C20.3092 13.475 20.7401 14.3275 20.6576 15.2075Z" fill="#E7EEFF"/>
</svg>
