<svg width="349" height="351" viewBox="0 0 349 351" fill="none" xmlns="http://www.w3.org/2000/svg">
<rect width="348.315" height="350.16" rx="37.563" fill="white"/>
<path d="M109.441 120.191C109.03 120.191 108.632 120.048 108.314 119.786C107.997 119.524 107.779 119.16 107.698 118.755C104.644 103.66 106.792 87.969 113.788 74.2641C114.004 73.8401 114.378 73.5195 114.829 73.3728C115.279 73.2262 115.769 73.2654 116.191 73.482C116.613 73.6986 116.932 74.0748 117.078 74.5277C117.224 74.9807 117.185 75.4734 116.969 75.8974C110.342 88.8806 108.307 103.745 111.199 118.045C111.246 118.276 111.247 118.513 111.202 118.744C111.156 118.976 111.067 119.195 110.937 119.391C110.807 119.587 110.641 119.756 110.446 119.887C110.252 120.018 110.033 120.11 109.804 120.156C109.685 120.181 109.563 120.192 109.441 120.191Z" fill="#050610"/>
<path d="M120.839 67.9521C120.51 67.9525 120.187 67.8612 119.906 67.6883C119.626 67.5154 119.398 67.2677 119.249 66.9727C119.1 66.6777 119.035 66.3469 119.062 66.0171C119.088 65.6873 119.205 65.3713 119.4 65.1043C128.794 52.172 142.419 42.9785 157.883 39.1368C173.347 35.2951 189.663 37.0507 203.968 44.0954C204.185 44.1942 204.381 44.336 204.544 44.5124C204.706 44.6889 204.831 44.8963 204.912 45.1225C204.993 45.3486 205.028 45.5888 205.015 45.8287C205.002 46.0687 204.94 46.3035 204.835 46.5192C204.73 46.7349 204.582 46.9272 204.402 47.0845C204.221 47.2418 204.011 47.3609 203.783 47.4349C203.556 47.5088 203.316 47.536 203.078 47.5149C202.839 47.4937 202.608 47.4246 202.397 47.3117C188.844 40.6392 173.387 38.977 158.737 42.6168C144.087 46.2566 131.179 54.966 122.278 67.2171C122.113 67.4453 121.897 67.6309 121.647 67.7586C121.396 67.8864 121.12 67.9527 120.839 67.9521Z" fill="#050610"/>
<path d="M238.836 93.9793C238.425 93.9783 238.026 93.8347 237.708 93.5725C237.39 93.3104 237.172 92.9459 237.091 92.5407C233.863 76.3071 224.531 61.9508 211.037 52.4619C210.671 52.181 210.427 51.7685 210.357 51.3109C210.287 50.8533 210.395 50.3861 210.66 50.0072C210.924 49.6283 211.325 49.367 211.777 49.2781C212.229 49.1892 212.697 49.2796 213.085 49.5304C227.325 59.545 237.174 74.6963 240.58 91.8288C240.672 92.2947 240.577 92.7785 240.316 93.1742C240.054 93.5698 239.647 93.8451 239.184 93.9395C239.069 93.9636 238.953 93.977 238.836 93.9793Z" fill="#050610"/>
<path d="M240.178 108.422H240.142C239.67 108.413 239.22 108.215 238.892 107.873C238.565 107.53 238.386 107.071 238.395 106.596C238.482 101.874 238.057 97.1576 237.128 92.5286C237.034 92.0629 237.129 91.5789 237.39 91.1831C237.651 90.7872 238.058 90.512 238.522 90.4178C238.985 90.3237 239.466 90.4184 239.86 90.6811C240.254 90.9438 240.528 91.353 240.621 91.8187C241.602 96.7033 242.05 101.681 241.958 106.663C241.95 107.132 241.758 107.579 241.425 107.908C241.092 108.237 240.644 108.421 240.178 108.422Z" fill="#050610"/>
<path d="M110.104 123.024C109.706 123.024 109.32 122.889 109.007 122.642C108.694 122.395 108.473 122.05 108.377 121.661C108.138 120.679 107.92 119.701 107.731 118.756C107.685 118.526 107.684 118.288 107.729 118.058C107.773 117.827 107.863 117.607 107.992 117.411C108.121 117.215 108.287 117.047 108.481 116.915C108.675 116.784 108.892 116.692 109.121 116.646C109.35 116.599 109.585 116.598 109.814 116.644C110.043 116.689 110.261 116.779 110.456 116.909C110.65 117.039 110.818 117.207 110.948 117.402C111.078 117.597 111.169 117.816 111.215 118.047C111.396 118.943 111.602 119.87 111.839 120.804C111.903 121.068 111.907 121.343 111.85 121.609C111.793 121.875 111.677 122.124 111.511 122.337C111.345 122.551 111.132 122.724 110.89 122.843C110.648 122.962 110.382 123.024 110.112 123.024H110.104Z" fill="#050610"/>
<path d="M157.101 171.188C156.757 171.189 156.42 171.09 156.131 170.903C155.841 170.715 155.612 170.448 155.471 170.132C155.329 169.817 155.282 169.467 155.334 169.125C155.386 168.783 155.535 168.463 155.764 168.204C163.007 159.901 168.299 150.066 171.247 139.427C174.294 128.413 174.693 116.829 172.411 105.63C172.318 105.164 172.412 104.68 172.674 104.285C172.935 103.889 173.342 103.614 173.806 103.52C174.269 103.426 174.75 103.521 175.144 103.784C175.537 104.047 175.811 104.457 175.904 104.922C178.299 116.672 177.88 128.827 174.682 140.382C171.587 151.543 166.035 161.86 158.435 170.571C158.269 170.763 158.064 170.918 157.834 171.024C157.604 171.131 157.355 171.187 157.101 171.188Z" fill="#050610"/>
<path d="M148.569 168.25C148.218 168.25 147.875 168.147 147.582 167.952C147.29 167.758 147.061 167.48 146.924 167.155C146.788 166.83 146.75 166.472 146.815 166.125C146.881 165.779 147.047 165.459 147.292 165.207C153.345 158.983 158.085 151.592 161.225 143.48C161.407 143.053 161.748 142.713 162.175 142.533C162.601 142.354 163.081 142.348 163.512 142.517C163.943 142.686 164.292 143.017 164.484 143.439C164.677 143.862 164.699 144.344 164.545 144.782C161.232 153.343 156.231 161.141 149.844 167.709C149.678 167.881 149.48 168.017 149.261 168.11C149.042 168.203 148.807 168.25 148.569 168.25Z" fill="#050610"/>
<path d="M166.335 172.993C166.003 172.99 165.679 172.894 165.399 172.715C165.118 172.537 164.893 172.284 164.748 171.984C164.603 171.684 164.543 171.35 164.577 171.018C164.61 170.686 164.735 170.37 164.937 170.106C172.127 160.874 177.241 150.186 179.928 138.777C182.614 127.368 182.809 115.51 180.499 104.018L180.38 103.421C179.919 101.884 178.912 100.57 177.551 99.7305C176.19 98.8907 174.569 98.5829 172.997 98.8656C171.425 99.1484 170.011 100.002 169.024 101.264C168.037 102.526 167.545 104.109 167.643 105.712L167.818 106.587C169.674 115.743 169.625 125.186 167.674 134.322C167.57 134.781 167.29 135.181 166.895 135.435C166.5 135.688 166.021 135.775 165.563 135.677C165.104 135.578 164.703 135.302 164.446 134.908C164.188 134.514 164.095 134.034 164.187 133.572C165.914 125.495 166.07 117.159 164.648 109.022H164.61L164.264 107.299C163.803 104.692 164.375 102.007 165.858 99.8185C167.341 97.6303 169.618 96.1128 172.2 95.5911C174.783 95.0693 177.466 95.5848 179.675 97.0271C181.884 98.4694 183.443 100.724 184.019 103.308L184.334 104.872L184.292 104.884C186.429 116.661 186.06 128.758 183.208 140.38C180.356 152.002 175.087 162.885 167.747 172.311C167.579 172.525 167.364 172.698 167.12 172.817C166.875 172.935 166.606 172.995 166.335 172.993Z" fill="#050610"/>
<path d="M140.773 164.33C140.415 164.33 140.066 164.222 139.77 164.019C139.474 163.817 139.246 163.53 139.114 163.196C138.983 162.861 138.955 162.495 139.033 162.144C139.112 161.793 139.293 161.474 139.554 161.229C146.086 155.087 151.063 147.464 154.07 138.997C157.077 130.529 158.028 121.462 156.843 112.55C156.811 112.316 156.826 112.078 156.886 111.85C156.946 111.622 157.05 111.408 157.192 111.221C157.334 111.033 157.512 110.875 157.715 110.757C157.917 110.638 158.141 110.561 158.374 110.529C158.606 110.498 158.843 110.512 159.07 110.572C159.297 110.633 159.509 110.737 159.696 110.88C159.883 111.023 160.039 111.202 160.157 111.405C160.276 111.609 160.352 111.834 160.384 112.068C161.644 121.547 160.633 131.191 157.435 140.198C154.237 149.204 148.944 157.312 141.998 163.846C141.666 164.159 141.228 164.332 140.773 164.33Z" fill="#050610"/>
<path d="M192.142 121.675C191.671 121.675 191.218 121.487 190.884 121.153C190.55 120.818 190.361 120.364 190.359 119.889C190.34 114.003 189.747 108.133 188.589 102.363L188.449 101.669C187.634 98.4149 185.745 95.5344 183.091 93.4984C180.436 91.4625 177.174 90.3915 173.836 90.4603C170.498 90.529 167.282 91.7336 164.713 93.8771C162.144 96.0207 160.374 98.9766 159.692 102.262C159.651 102.498 159.562 102.724 159.432 102.925C159.302 103.127 159.133 103.3 158.936 103.435C158.738 103.569 158.515 103.662 158.281 103.709C158.047 103.755 157.805 103.754 157.572 103.705C157.338 103.655 157.116 103.56 156.92 103.423C156.724 103.286 156.557 103.111 156.429 102.908C156.302 102.705 156.216 102.479 156.177 102.242C156.138 102.005 156.147 101.763 156.203 101.529C157.073 97.3831 159.338 93.6651 162.615 91.0013C165.893 88.3376 169.984 86.8909 174.199 86.9049C178.414 86.9189 182.495 88.3928 185.756 91.0783C189.016 93.7638 191.256 97.4968 192.099 101.649L192.386 103.083L192.359 103.095C193.382 108.631 193.907 114.248 193.925 119.879C193.926 120.114 193.88 120.347 193.791 120.565C193.702 120.783 193.571 120.981 193.406 121.147C193.241 121.314 193.045 121.447 192.829 121.537C192.612 121.628 192.381 121.675 192.147 121.675H192.142Z" fill="#050610"/>
<path d="M176.249 173.402C175.925 173.402 175.606 173.314 175.328 173.145C175.05 172.977 174.823 172.735 174.672 172.447C174.52 172.158 174.45 171.833 174.469 171.507C174.488 171.182 174.595 170.867 174.779 170.598C182.972 158.558 188.125 144.693 189.793 130.201C189.812 129.961 189.879 129.728 189.99 129.515C190.1 129.302 190.252 129.113 190.437 128.96C190.622 128.807 190.835 128.694 191.065 128.625C191.294 128.557 191.535 128.536 191.772 128.563C192.01 128.591 192.24 128.666 192.448 128.784C192.656 128.903 192.838 129.062 192.984 129.252C193.13 129.443 193.236 129.661 193.296 129.894C193.356 130.127 193.369 130.369 193.334 130.607C191.6 145.678 186.242 160.098 177.722 172.621C177.559 172.862 177.339 173.059 177.082 173.195C176.826 173.331 176.54 173.402 176.249 173.402Z" fill="#050610"/>
<path d="M133.728 159.549C133.366 159.548 133.014 159.435 132.717 159.227C132.42 159.019 132.193 158.725 132.066 158.384C131.94 158.043 131.919 157.671 132.008 157.318C132.096 156.965 132.29 156.648 132.562 156.408C138.862 150.918 143.632 143.874 146.403 135.969C149.056 128.372 149.764 120.226 148.461 112.282H148.447L148.103 110.577C147.294 106.528 147.43 102.345 148.5 98.357C149.57 94.3691 151.545 90.6848 154.269 87.5932C156.994 84.5016 160.394 82.0868 164.203 80.5385C168.012 78.9901 172.126 78.3503 176.223 78.6693C176.462 78.68 176.696 78.739 176.911 78.8425C177.127 78.9461 177.32 79.0922 177.478 79.2721C177.637 79.4521 177.757 79.6622 177.833 79.89C177.909 80.1178 177.939 80.3586 177.921 80.5982C177.902 80.8378 177.836 81.0712 177.726 81.2845C177.616 81.4979 177.465 81.6868 177.281 81.8401C177.097 81.9934 176.884 82.108 176.655 82.177C176.426 82.2459 176.185 82.2679 175.948 82.2416C171.863 81.9243 167.767 82.7078 164.084 84.5113C160.4 86.3148 157.261 89.0732 154.991 92.5021C151.88 97.1794 150.586 102.843 151.356 108.416L151.648 109.865C153.481 118.967 152.833 128.398 149.773 137.16C146.795 145.651 141.67 153.218 134.903 159.116C134.577 159.399 134.159 159.553 133.728 159.549Z" fill="#050610"/>
<path d="M186.771 172.203C186.457 172.202 186.149 172.119 185.878 171.96C185.606 171.802 185.382 171.574 185.226 171.3C185.07 171.026 184.989 170.716 184.991 170.401C184.992 170.085 185.077 169.776 185.236 169.504C197.342 148.776 201.415 124.287 196.675 100.727L196.519 99.9501C195.783 96.827 194.408 93.892 192.482 91.3324C190.556 88.7727 188.121 86.6443 185.331 85.0829C185.127 84.9684 184.947 84.8145 184.802 84.6301C184.657 84.4457 184.549 84.2343 184.485 84.0081C184.421 83.7818 184.402 83.5451 184.429 83.3115C184.457 83.0779 184.529 82.852 184.643 82.6465C184.873 82.2317 185.258 81.9257 185.712 81.7959C185.937 81.7317 186.173 81.7126 186.405 81.7398C186.637 81.767 186.862 81.84 187.067 81.9545C190.422 83.8303 193.334 86.4157 195.599 89.5324C197.865 92.649 199.431 96.2226 200.189 100.007L200.495 101.529H200.47C204.917 125.505 200.599 150.288 188.31 171.317C188.153 171.587 187.928 171.811 187.658 171.967C187.388 172.122 187.082 172.204 186.771 172.203Z" fill="#050610"/>
<path d="M127.463 153.994C127.096 153.992 126.739 153.876 126.44 153.662C126.141 153.449 125.915 153.148 125.792 152.8C125.67 152.453 125.657 152.075 125.755 151.72C125.854 151.365 126.059 151.049 126.342 150.815C131.631 146.456 135.712 140.8 138.19 134.392C138.27 134.166 138.394 133.958 138.555 133.782C138.716 133.605 138.911 133.462 139.128 133.362C139.345 133.263 139.58 133.207 139.818 133.2C140.057 133.193 140.294 133.235 140.516 133.321C140.739 133.408 140.941 133.539 141.112 133.706C141.284 133.873 141.42 134.073 141.513 134.294C141.605 134.515 141.653 134.752 141.653 134.992C141.653 135.232 141.605 135.469 141.513 135.69C138.81 142.673 134.362 148.837 128.598 153.588C128.278 153.852 127.877 153.995 127.463 153.994Z" fill="#050610"/>
<path d="M207.233 139.339C207.139 139.336 207.045 139.325 206.952 139.307C206.721 139.269 206.5 139.186 206.301 139.062C206.102 138.937 205.93 138.775 205.794 138.584C205.657 138.393 205.56 138.177 205.506 137.947C205.453 137.718 205.446 137.481 205.484 137.249C207.555 124.586 207.314 111.65 204.773 99.0735L204.678 98.5898C202.946 90.6345 198.208 83.6664 191.464 79.1551C184.72 74.6438 176.497 72.9421 168.528 74.4088C160.56 75.8755 153.47 80.396 148.754 87.0168C144.037 93.6377 142.063 101.841 143.247 109.897L143.566 111.485C144.439 115.819 144.646 120.262 144.178 124.66C144.156 124.896 144.088 125.126 143.977 125.335C143.866 125.545 143.715 125.73 143.532 125.88C143.35 126.03 143.139 126.142 142.913 126.21C142.686 126.278 142.449 126.299 142.214 126.274C141.98 126.249 141.752 126.177 141.546 126.062C141.339 125.948 141.157 125.793 141.01 125.607C140.863 125.421 140.755 125.208 140.691 124.98C140.627 124.751 140.609 124.512 140.637 124.277C141.003 120.839 140.918 117.369 140.385 113.953L140.035 112.203C139.107 107.689 139.075 103.035 139.941 98.5088C140.807 93.9825 142.554 89.6728 145.082 85.8274C147.61 81.9819 150.869 78.6764 154.671 76.1008C158.474 73.5251 162.745 71.7302 167.239 70.8189C171.734 69.9077 176.363 69.8981 180.862 70.7908C185.36 71.6835 189.638 73.4608 193.451 76.0208C197.264 78.5807 200.536 81.8727 203.08 85.7077C205.623 89.5427 207.388 93.8451 208.273 98.3678L208.441 99.2054C210.907 111.949 211.094 125.032 208.991 137.841C208.922 138.26 208.707 138.64 208.385 138.914C208.063 139.188 207.655 139.339 207.233 139.339Z" fill="#050610"/>
<path d="M197.818 169.02C197.516 169.019 197.219 168.942 196.955 168.794C196.691 168.647 196.469 168.434 196.309 168.176C196.149 167.919 196.057 167.624 196.041 167.321C196.025 167.018 196.086 166.715 196.219 166.442C199.175 160.342 201.543 153.971 203.29 147.416C203.351 147.188 203.455 146.975 203.598 146.787C203.741 146.6 203.919 146.443 204.122 146.324C204.325 146.206 204.549 146.129 204.782 146.098C205.014 146.067 205.251 146.082 205.477 146.143C205.704 146.204 205.917 146.309 206.103 146.452C206.29 146.596 206.446 146.775 206.564 146.979C206.681 147.183 206.758 147.408 206.789 147.642C206.82 147.876 206.804 148.114 206.744 148.342C204.936 155.118 202.487 161.705 199.431 168.013C199.284 168.316 199.054 168.572 198.769 168.75C198.484 168.928 198.154 169.022 197.818 169.02Z" fill="#050610"/>
<path d="M209.298 163.241C209.081 163.241 208.865 163.2 208.663 163.121C208.223 162.952 207.868 162.615 207.675 162.183C207.482 161.751 207.467 161.26 207.634 160.818C215.26 140.765 217.1 118.955 212.941 97.8979L212.849 97.4456C211.739 91.84 209.428 86.5446 206.078 81.9271C205.932 81.7375 205.826 81.5204 205.765 81.2888C205.704 81.0572 205.691 80.8157 205.724 80.5786C205.758 80.3415 205.839 80.1136 205.961 79.9084C206.084 79.7031 206.247 79.5247 206.439 79.3836C206.632 79.2425 206.85 79.1417 207.082 79.087C207.314 79.0323 207.555 79.0249 207.79 79.0653C208.024 79.1056 208.249 79.1929 208.45 79.3219C208.65 79.4509 208.823 79.619 208.958 79.8164C212.462 84.6445 214.925 90.1547 216.188 95.9944L216.338 96.7315C220.747 118.59 218.881 141.258 210.958 162.091C210.829 162.429 210.601 162.719 210.305 162.924C210.009 163.129 209.658 163.24 209.298 163.241Z" fill="#050610"/>
<path d="M200.308 75.0045C199.897 75.0049 199.499 74.8621 199.181 74.6003C193.454 69.8864 186.527 66.8827 179.186 65.931C171.845 64.9793 164.386 66.1177 157.657 69.2167C157.444 69.3209 157.212 69.3812 156.974 69.394C156.737 69.4068 156.5 69.3718 156.277 69.2912C156.053 69.2105 155.848 69.0858 155.673 68.9243C155.498 68.7628 155.357 68.5679 155.258 68.3508C155.159 68.1338 155.104 67.8991 155.097 67.6605C155.089 67.4219 155.129 67.1842 155.215 66.9613C155.3 66.7385 155.428 66.535 155.593 66.3628C155.757 66.1905 155.954 66.0531 156.172 65.9585C163.507 62.5802 171.638 61.3387 179.641 62.3752C187.643 63.4116 195.195 66.6845 201.439 71.8216C201.724 72.0556 201.929 72.3725 202.028 72.7287C202.126 73.085 202.113 73.4631 201.989 73.8112C201.865 74.1593 201.637 74.4603 201.336 74.6728C201.035 74.8854 200.676 74.999 200.308 74.9982V75.0045Z" fill="#050610"/>
<path d="M121.995 147.769C121.626 147.77 121.266 147.656 120.964 147.442C120.662 147.228 120.434 146.925 120.311 146.575C120.189 146.225 120.177 145.845 120.278 145.488C120.38 145.131 120.589 144.814 120.877 144.582C125.172 141.132 128.483 136.602 130.475 131.451C132.467 126.299 133.069 120.71 132.22 115.25L131.939 113.849C130.376 106.105 130.956 98.0785 133.616 90.643C136.276 83.2075 140.913 76.6479 147.024 71.6782C147.392 71.3967 147.855 71.2703 148.315 71.3258C148.774 71.3812 149.195 71.614 149.486 71.9751C149.778 72.3362 149.919 72.7973 149.879 73.2608C149.839 73.7243 149.621 74.154 149.271 74.459C143.874 78.847 139.726 84.5903 137.246 91.1079C134.766 97.6255 134.043 104.686 135.149 111.575L135.466 113.139C136.739 119.436 136.259 125.964 134.079 132.005C131.899 138.045 128.103 143.364 123.11 147.376C122.794 147.631 122.401 147.77 121.995 147.769Z" fill="#050610"/>
<path d="M117.335 140.872C116.97 140.873 116.614 140.761 116.314 140.551C116.015 140.341 115.787 140.043 115.661 139.698C115.535 139.354 115.518 138.979 115.611 138.624C115.705 138.269 115.904 137.952 116.183 137.715C119.189 135.156 121.492 131.866 122.873 128.158C124.255 124.45 124.668 120.448 124.074 116.534L123.865 115.47C123.327 112.785 123 110.062 122.886 107.325C122.87 107.086 122.902 106.847 122.98 106.621C123.058 106.395 123.18 106.187 123.338 106.009C123.497 105.831 123.69 105.687 123.905 105.585C124.12 105.483 124.354 105.425 124.591 105.415C124.829 105.405 125.066 105.443 125.289 105.527C125.512 105.61 125.716 105.738 125.889 105.902C126.062 106.066 126.201 106.264 126.297 106.482C126.393 106.701 126.444 106.937 126.448 107.176C126.532 109.195 126.741 111.207 127.073 113.2L127.385 114.756C128.323 119.447 127.991 124.305 126.426 128.824C124.861 133.342 122.12 137.356 118.487 140.447C118.166 140.723 117.757 140.874 117.335 140.872Z" fill="#050610"/>
<path d="M223.805 103.688C223.379 103.687 222.966 103.532 222.643 103.252C222.32 102.971 222.108 102.584 222.045 102.159C221.772 100.317 221.458 98.4719 221.108 96.6648L220.929 95.8042C218.726 84.8349 212.779 74.9844 204.116 67.9564C195.454 60.9284 184.62 57.1647 173.49 57.3162C162.359 57.4677 151.631 61.525 143.161 68.7863C134.691 76.0475 129.011 86.0563 127.104 97.0815C127.012 97.5384 126.746 97.941 126.362 98.2038C125.979 98.4667 125.509 98.569 125.052 98.4892C124.595 98.4093 124.187 98.1536 123.915 97.7762C123.642 97.3988 123.527 96.9296 123.593 96.468C125.619 84.7287 131.627 74.0571 140.595 66.2668C149.562 58.4764 160.937 54.048 172.785 53.7342C184.633 53.4204 196.223 57.2405 205.586 64.5452C214.95 71.85 221.508 82.1887 224.147 93.8044H224.166L224.432 95.0943C224.864 97.2344 225.245 99.4331 225.57 101.63C225.604 101.862 225.593 102.1 225.536 102.328C225.48 102.556 225.379 102.771 225.239 102.96C225.1 103.149 224.925 103.308 224.724 103.429C224.524 103.55 224.301 103.63 224.07 103.665C223.982 103.679 223.894 103.687 223.805 103.688Z" fill="#050610"/>
<path d="M220.994 153.816C220.838 153.815 220.684 153.795 220.533 153.755C220.077 153.633 219.687 153.333 219.45 152.922C219.213 152.511 219.148 152.022 219.269 151.563C222.654 138.823 223.956 125.614 223.127 112.454C223.112 112.219 223.143 111.984 223.219 111.761C223.295 111.539 223.413 111.333 223.568 111.157C223.722 110.98 223.91 110.836 224.12 110.733C224.33 110.629 224.559 110.568 224.792 110.553C225.025 110.539 225.26 110.57 225.481 110.646C225.702 110.722 225.907 110.841 226.082 110.997C226.258 111.152 226.401 111.341 226.504 111.552C226.607 111.763 226.668 111.993 226.682 112.228C227.539 125.778 226.199 139.379 222.714 152.497C222.611 152.876 222.387 153.21 222.076 153.449C221.765 153.687 221.385 153.816 220.994 153.816Z" fill="#050610"/>
<path d="M113.443 133.161C113.096 133.161 112.757 133.06 112.466 132.869C112.176 132.678 111.948 132.406 111.809 132.087C111.67 131.767 111.627 131.414 111.686 131.07C111.744 130.726 111.901 130.407 112.137 130.152C113.656 128.502 114.785 126.529 115.438 124.379C116.091 122.229 116.252 119.958 115.909 117.737L115.778 117.108C113.908 107.754 114.288 98.0867 116.887 88.9103C119.486 79.7339 124.228 71.3146 130.718 64.3534C137.209 57.3922 145.259 52.0907 154.2 48.8905C163.141 45.6902 172.713 44.6838 182.12 45.955C182.589 46.0186 183.014 46.2671 183.302 46.6458C183.589 47.0246 183.715 47.5026 183.652 47.9746C183.588 48.4467 183.341 48.8741 182.964 49.163C182.588 49.4518 182.112 49.5783 181.643 49.5148C172.884 48.3269 163.97 49.2406 155.63 52.1809C147.289 55.1213 139.76 60.0048 133.658 66.4319C127.555 72.8591 123.053 80.6473 120.52 89.1594C117.986 97.6715 117.493 106.666 119.081 115.406L119.29 116.403C119.858 119.27 119.743 122.231 118.954 125.045C118.164 127.859 116.722 130.444 114.747 132.589C114.58 132.769 114.378 132.913 114.154 133.011C113.929 133.11 113.687 133.161 113.443 133.161Z" fill="#050610"/>
<path d="M232.4 138.262C232.325 138.262 232.251 138.258 232.177 138.25C231.708 138.191 231.281 137.947 230.991 137.572C230.7 137.197 230.57 136.722 230.627 136.25C232.313 122.616 231.848 108.799 229.25 95.3107L229.009 94.1611C227.031 84.3387 222.483 75.2242 215.834 67.7569C209.186 60.2895 200.677 54.7394 191.185 51.6784C190.957 51.6108 190.744 51.4981 190.561 51.3469C190.377 51.1958 190.224 51.0091 190.113 50.798C190.002 50.5869 189.934 50.3556 189.913 50.1177C189.892 49.8798 189.918 49.64 189.991 49.4125C190.063 49.185 190.18 48.9744 190.335 48.793C190.49 48.6116 190.679 48.4631 190.891 48.3562C191.104 48.2493 191.335 48.1862 191.572 48.1706C191.809 48.155 192.047 48.1871 192.272 48.2652C202.093 51.4331 210.929 57.1071 217.917 64.7332C224.905 72.3593 229.807 81.6768 232.144 91.776H232.167L232.519 93.4512C235.39 107.68 235.946 122.284 234.166 136.692C234.112 137.125 233.903 137.523 233.578 137.813C233.253 138.102 232.834 138.262 232.4 138.262Z" fill="#050610"/>
<path d="M106.378 167.723V319.143H241.938V168.042C225.025 184.309 200.989 194.471 174.323 194.471C147.483 194.471 123.308 184.176 106.378 167.723Z" fill="#050610"/>
</svg>
