<svg width="70" height="70" viewBox="0 0 70 70" fill="none" xmlns="http://www.w3.org/2000/svg">
<path d="M54.537 1.04175H16.2325C14.3909 1.04175 12.6247 1.77334 11.3224 3.07558C10.0202 4.37782 9.28857 6.14404 9.28857 7.98569V61.09C9.28857 62.9316 10.0202 64.6979 11.3224 66.0001C12.6247 67.3023 14.3909 68.0339 16.2325 68.0339H54.537C56.3787 68.0339 58.1449 67.3023 59.4471 66.0001C60.7494 64.6979 61.481 62.9316 61.481 61.09V7.98569C61.481 6.14404 60.7494 4.37782 59.4471 3.07558C58.1449 1.77334 56.3787 1.04175 54.537 1.04175ZM16.2106 13.4339C16.2106 12.3461 16.6428 11.3029 17.412 10.5337C18.1812 9.7645 19.2244 9.33237 20.3122 9.33237H42.4606C43.5484 9.33237 44.5917 9.7645 45.3609 10.5337C46.1301 11.3029 46.5622 12.3461 46.5622 13.4339V38.3482C46.5622 39.436 46.1301 40.4792 45.3609 41.2484C44.5917 42.0176 43.5484 42.4498 42.4606 42.4498H20.3122C19.2244 42.4498 18.1812 42.0176 17.412 41.2484C16.6428 40.4792 16.2106 39.436 16.2106 38.3482V13.4339ZM55.0894 51.9886C55.0894 52.9676 54.7004 53.9066 54.0082 54.5988C53.3159 55.2911 52.377 55.68 51.3979 55.68H18.6019C17.6228 55.68 16.6839 55.2911 15.9916 54.5988C15.2994 53.9066 14.9104 52.9676 14.9104 51.9886C14.9104 51.0096 15.2994 50.0707 15.9916 49.3784C16.6839 48.6861 17.6228 48.2972 18.6019 48.2972H51.3979C52.377 48.2972 53.3159 48.6861 54.0082 49.3784C54.7004 50.0707 55.0894 51.0096 55.0894 51.9886ZM53.4651 37.521C52.8773 37.521 52.3026 37.3467 51.8138 37.0201C51.325 36.6935 50.9441 36.2293 50.7191 35.6862C50.4942 35.1431 50.4353 34.5455 50.55 33.9689C50.6647 33.3924 50.9478 32.8627 51.3634 32.4471C51.7791 32.0314 52.3087 31.7483 52.8853 31.6336C53.4618 31.5189 54.0595 31.5778 54.6026 31.8028C55.1457 32.0277 55.6099 32.4087 55.9365 32.8975C56.2631 33.3863 56.4374 33.9609 56.4374 34.5488C56.4374 35.3371 56.1243 36.0931 55.5668 36.6505C55.0094 37.2079 54.2534 37.521 53.4651 37.521ZM53.4651 27.9507C52.8773 27.9507 52.3026 27.7764 51.8138 27.4498C51.325 27.1232 50.9441 26.659 50.7191 26.1159C50.4942 25.5728 50.4353 24.9752 50.55 24.3986C50.6647 23.822 50.9478 23.2924 51.3634 22.8768C51.7791 22.4611 52.3087 22.178 52.8853 22.0633C53.4618 21.9486 54.0595 22.0075 54.6026 22.2325C55.1457 22.4574 55.6099 22.8384 55.9365 23.3272C56.2631 23.816 56.4374 24.3906 56.4374 24.9785C56.4374 25.7668 56.1243 26.5228 55.5668 27.0802C55.0094 27.6376 54.2534 27.9507 53.4651 27.9507ZM53.4651 18.3804C52.8773 18.3804 52.3026 18.2061 51.8138 17.8795C51.325 17.5529 50.9441 17.0887 50.7191 16.5456C50.4942 16.0025 50.4353 15.4049 50.55 14.8283C50.6647 14.2517 50.9478 13.7221 51.3634 13.3064C51.7791 12.8908 52.3087 12.6077 52.8853 12.493C53.4618 12.3783 54.0595 12.4372 54.6026 12.6621C55.1457 12.8871 55.6099 13.2681 55.9365 13.7569C56.2631 14.2456 56.4374 14.8203 56.4374 15.4082C56.4374 16.1964 56.1243 16.9525 55.5668 17.5099C55.0094 18.0673 54.2534 18.3804 53.4651 18.3804Z" fill="#050610"/>
<path d="M46.5608 21.5837H16.2092C15.9917 21.5837 15.783 21.4973 15.6292 21.3435C15.4753 21.1896 15.3889 20.981 15.3889 20.7634C15.3889 20.5459 15.4753 20.3372 15.6292 20.1834C15.783 20.0295 15.9917 19.9431 16.2092 19.9431H46.5608C46.7784 19.9431 46.987 20.0295 47.1408 20.1834C47.2947 20.3372 47.3811 20.5459 47.3811 20.7634C47.3811 20.981 47.2947 21.1896 47.1408 21.3435C46.987 21.4973 46.7784 21.5837 46.5608 21.5837Z" fill="#050610"/>
<path d="M46.5608 31.8376H16.2092C15.9917 31.8376 15.783 31.7512 15.6292 31.5974C15.4753 31.4435 15.3889 31.2349 15.3889 31.0173C15.3889 30.7998 15.4753 30.5911 15.6292 30.4373C15.783 30.2834 15.9917 30.197 16.2092 30.197H46.5608C46.7784 30.197 46.987 30.2834 47.1408 30.4373C47.2947 30.5911 47.3811 30.7998 47.3811 31.0173C47.3811 31.2349 47.2947 31.4435 47.1408 31.5974C46.987 31.7512 46.7784 31.8376 46.5608 31.8376Z" fill="#050610"/>
</svg>
