<svg width="110" height="110" viewBox="0 0 110 110" fill="none" xmlns="http://www.w3.org/2000/svg">
<rect width="110" height="110" rx="55" fill="#F1F1F1"/>
<path d="M79.824 66.472C79.8436 66.4393 79.8618 66.4058 79.8785 66.3715C79.896 66.334 79.91 66.2955 79.9245 66.256C79.9375 66.2185 79.95 66.181 79.9595 66.142C79.9685 66.1037 79.9757 66.065 79.981 66.026C79.988 65.982 79.9925 65.9385 79.994 65.894C79.995 65.8765 79.9995 65.8605 79.9995 65.8425C79.9995 61.7665 77.633 58.241 74.207 56.542C76.372 55.0675 77.798 52.5835 77.798 49.772C77.798 45.259 74.1265 41.5875 69.614 41.5875C68.2079 41.5892 66.8258 41.9528 65.601 42.6435C64.1185 38.208 59.928 35 55 35C50.071 35 45.8795 38.2085 44.398 42.646C43.1744 41.9529 41.7922 41.5884 40.386 41.588C35.873 41.588 32.2015 45.2595 32.2015 49.7725C32.2015 52.584 33.627 55.068 35.7925 56.5425C32.3665 58.241 30 61.7665 30 65.843C30 65.8605 30.0045 65.8765 30.005 65.894C30.0065 65.939 30.012 65.983 30.0185 66.027C30.024 66.066 30.0305 66.104 30.0395 66.142C30.0495 66.181 30.062 66.219 30.0755 66.257C30.089 66.296 30.1035 66.334 30.1205 66.3715C30.137 66.4065 30.1565 66.4405 30.176 66.474C30.197 66.509 30.2175 66.544 30.241 66.5765C30.2645 66.6085 30.291 66.639 30.3175 66.669C30.3435 66.699 30.37 66.728 30.399 66.755C30.4285 66.7825 30.46 66.807 30.492 66.8315C30.5544 66.8805 30.622 66.9226 30.6935 66.957C30.7345 66.9775 30.7755 66.9965 30.819 67.012C30.8345 67.018 30.8485 67.0265 30.864 67.032L54.611 74.73C54.6745 74.751 54.74 74.7665 54.807 74.7775C54.842 74.783 54.877 74.7835 54.912 74.786C54.941 74.788 54.97 74.793 54.9995 74.793C55.0275 74.793 55.0545 74.788 55.0825 74.7865C55.119 74.784 55.1555 74.7835 55.192 74.7775C55.2585 74.767 55.324 74.751 55.388 74.73L79.1345 67.032C79.15 67.027 79.164 67.0185 79.179 67.0125C79.2572 66.9831 79.3327 66.9468 79.4045 66.904C79.4405 66.8815 79.4745 66.8565 79.5075 66.831C79.539 66.807 79.5695 66.783 79.5985 66.7565C79.6285 66.7285 79.6555 66.699 79.6825 66.668C79.7087 66.6393 79.7334 66.6092 79.7565 66.578C79.7815 66.5435 79.803 66.5085 79.824 66.472ZM77.4465 64.9515L69.2405 67.6115C68.886 64.3775 67.451 61.466 65.306 59.243C66.5861 58.4037 68.0837 57.9568 69.6145 57.9575C73.6605 57.9575 77.0015 61.022 77.4465 64.9515ZM55 72.228L43.2 68.403C43.603 62.243 48.74 57.354 55 57.354C61.26 57.354 66.3965 62.2425 66.8 68.403L55 72.228ZM47.254 54.223C47.9445 54.8886 48.7175 55.463 49.554 55.932C48.5232 56.3578 47.5458 56.9027 46.6415 57.5555C46.1244 57.1647 45.5718 56.8232 44.991 56.5355C45.8919 55.9232 46.6613 55.1369 47.254 54.223ZM62.7475 54.2215C63.3382 55.1362 64.1059 55.9235 65.0055 56.537C64.4258 56.8242 63.8744 57.1652 63.3585 57.5555C62.4543 56.9028 61.4771 56.358 60.4465 55.932C61.2834 55.4625 62.0567 54.8876 62.7475 54.2215ZM69.6145 44.088C72.749 44.088 75.2985 46.638 75.2985 49.7725C75.2985 52.9075 72.7485 55.4575 69.6145 55.4575C68.5256 55.4584 67.4594 55.1459 66.5433 54.5573C65.6271 53.9687 64.8997 53.1288 64.448 52.138C65.5791 50.3557 66.1789 48.2879 66.177 46.177C66.177 45.875 66.1615 45.5775 66.138 45.2815C67.1326 44.5094 68.3554 44.0896 69.6145 44.088ZM55 37.5C59.784 37.5 63.677 41.3925 63.677 46.177C63.677 50.9615 59.7845 54.854 55 54.854C50.2155 54.854 46.323 50.9615 46.323 46.177C46.323 41.3925 50.2155 37.5 55 37.5ZM34.7015 49.7725C34.7015 46.638 37.2515 44.088 40.386 44.088C41.657 44.088 42.87 44.5075 43.8625 45.277C43.8375 45.5765 43.8243 45.8769 43.823 46.1775C43.823 48.368 44.459 50.412 45.5525 52.1385C45.1003 53.129 44.3728 53.9685 43.4568 54.5571C42.5408 55.1456 41.4748 55.4584 40.386 55.458C37.2515 55.4575 34.7015 52.907 34.7015 49.7725ZM40.386 57.9575C41.932 57.9575 43.4205 58.41 44.694 59.243C42.549 61.4665 41.1135 64.378 40.7595 67.6115L32.554 64.9515C32.9985 61.022 36.3395 57.9575 40.386 57.9575Z" fill="#050610"/>
</svg>
